G04 #@! TF.GenerationSoftware,KiCad,Pcbnew,(5.1.5)-3*
G04 #@! TF.CreationDate,2020-04-03T22:41:24-03:00*
G04 #@! TF.ProjectId,Jupiter-II,4a757069-7465-4722-9d49-492e6b696361,rev?*
G04 #@! TF.SameCoordinates,Original*
G04 #@! TF.FileFunction,Soldermask,Top*
G04 #@! TF.FilePolarity,Negative*
%FSLAX46Y46*%
G04 Gerber Fmt 4.6, Leading zero omitted, Abs format (unit mm)*
G04 Created by KiCad (PCBNEW (5.1.5)-3) date 2020-04-03 22:41:24*
%MOMM*%
%LPD*%
G04 APERTURE LIST*
%ADD10C,0.150000*%
%ADD11R,2.100000X2.100000*%
%ADD12O,2.100000X2.100000*%
%ADD13R,2.000000X2.000000*%
%ADD14O,2.000000X2.000000*%
%ADD15R,1.700000X1.900000*%
%ADD16R,1.200000X1.300000*%
%ADD17R,1.900000X1.700000*%
%ADD18O,3.900120X2.200860*%
%ADD19C,2.000000*%
%ADD20C,3.600000*%
%ADD21C,3.400000*%
%ADD22C,2.100000*%
%ADD23C,2.500000*%
%ADD24C,2.150000*%
%ADD25C,1.900000*%
%ADD26R,3.900000X3.900000*%
%ADD27R,1.650000X1.900000*%
%ADD28O,2.200860X3.900120*%
%ADD29R,1.900000X1.650000*%
%ADD30O,2.200000X2.200000*%
%ADD31R,2.200000X2.200000*%
G04 APERTURE END LIST*
D10*
X88265000Y-134620000D02*
G75*
G02X84455000Y-130810000I0J3810000D01*
G01*
X245110000Y-45085000D02*
G75*
G02X248920000Y-48895000I0J-3810000D01*
G01*
X248920000Y-130810000D02*
G75*
G02X245110000Y-134620000I-3810000J0D01*
G01*
X84455000Y-48895000D02*
G75*
G02X88265000Y-45085000I3810000J0D01*
G01*
X84455000Y-48895000D02*
X84455000Y-130810000D01*
X245110000Y-45085000D02*
X88265000Y-45085000D01*
X248920000Y-130810000D02*
X248920000Y-48895000D01*
X88265000Y-134620000D02*
X245110000Y-134620000D01*
D11*
X198120000Y-50800000D03*
D12*
X198120000Y-53340000D03*
X200660000Y-50800000D03*
X200660000Y-53340000D03*
X203200000Y-50800000D03*
X203200000Y-53340000D03*
X205740000Y-50800000D03*
X205740000Y-53340000D03*
X208280000Y-50800000D03*
X208280000Y-53340000D03*
X210820000Y-50800000D03*
X210820000Y-53340000D03*
X213360000Y-50800000D03*
X213360000Y-53340000D03*
X215900000Y-50800000D03*
X215900000Y-53340000D03*
X218440000Y-50800000D03*
X218440000Y-53340000D03*
X220980000Y-50800000D03*
X220980000Y-53340000D03*
X223520000Y-50800000D03*
X223520000Y-53340000D03*
X226060000Y-50800000D03*
X226060000Y-53340000D03*
X228600000Y-50800000D03*
X228600000Y-53340000D03*
X231140000Y-50800000D03*
X231140000Y-53340000D03*
X233680000Y-50800000D03*
X233680000Y-53340000D03*
D13*
X241300000Y-81280000D03*
D14*
X241300000Y-88900000D03*
D11*
X99060000Y-50800000D03*
D12*
X99060000Y-53340000D03*
X101600000Y-50800000D03*
X101600000Y-53340000D03*
X104140000Y-50800000D03*
X104140000Y-53340000D03*
X106680000Y-50800000D03*
X106680000Y-53340000D03*
X109220000Y-50800000D03*
X109220000Y-53340000D03*
X111760000Y-50800000D03*
X111760000Y-53340000D03*
X114300000Y-50800000D03*
X114300000Y-53340000D03*
X116840000Y-50800000D03*
X116840000Y-53340000D03*
X119380000Y-50800000D03*
X119380000Y-53340000D03*
X121920000Y-50800000D03*
X121920000Y-53340000D03*
X124460000Y-50800000D03*
X124460000Y-53340000D03*
X127000000Y-50800000D03*
X127000000Y-53340000D03*
X129540000Y-50800000D03*
X129540000Y-53340000D03*
X132080000Y-50800000D03*
X132080000Y-53340000D03*
X134620000Y-50800000D03*
X134620000Y-53340000D03*
X137160000Y-50800000D03*
X137160000Y-53340000D03*
X139700000Y-50800000D03*
X139700000Y-53340000D03*
X142240000Y-50800000D03*
X142240000Y-53340000D03*
X144780000Y-50800000D03*
X144780000Y-53340000D03*
X147320000Y-50800000D03*
X147320000Y-53340000D03*
X149860000Y-50800000D03*
X149860000Y-53340000D03*
X152400000Y-50800000D03*
X152400000Y-53340000D03*
X154940000Y-50800000D03*
X154940000Y-53340000D03*
X157480000Y-50800000D03*
X157480000Y-53340000D03*
X160020000Y-50800000D03*
X160020000Y-53340000D03*
D15*
X100965000Y-104140000D03*
X100965000Y-101440000D03*
D16*
X244155000Y-117745000D03*
X242255000Y-117745000D03*
X243205000Y-119745000D03*
D17*
X210345000Y-109220000D03*
X207645000Y-109220000D03*
X207645000Y-57150000D03*
X210345000Y-57150000D03*
X160020000Y-127635000D03*
X157320000Y-127635000D03*
X143510000Y-118110000D03*
X146210000Y-118110000D03*
D18*
X243840000Y-69850000D03*
X243840000Y-67310000D03*
X243840000Y-64770000D03*
D19*
X158750000Y-123785000D03*
D13*
X158750000Y-121285000D03*
X189230000Y-63500000D03*
D14*
X204470000Y-91440000D03*
X189230000Y-66040000D03*
X204470000Y-88900000D03*
X189230000Y-68580000D03*
X204470000Y-86360000D03*
X189230000Y-71120000D03*
X204470000Y-83820000D03*
X189230000Y-73660000D03*
X204470000Y-81280000D03*
X189230000Y-76200000D03*
X204470000Y-78740000D03*
X189230000Y-78740000D03*
X204470000Y-76200000D03*
X189230000Y-81280000D03*
X204470000Y-73660000D03*
X189230000Y-83820000D03*
X204470000Y-71120000D03*
X189230000Y-86360000D03*
X204470000Y-68580000D03*
X189230000Y-88900000D03*
X204470000Y-66040000D03*
X189230000Y-91440000D03*
X204470000Y-63500000D03*
D13*
X189230000Y-97790000D03*
D14*
X204470000Y-125730000D03*
X189230000Y-100330000D03*
X204470000Y-123190000D03*
X189230000Y-102870000D03*
X204470000Y-120650000D03*
X189230000Y-105410000D03*
X204470000Y-118110000D03*
X189230000Y-107950000D03*
X204470000Y-115570000D03*
X189230000Y-110490000D03*
X204470000Y-113030000D03*
X189230000Y-113030000D03*
X204470000Y-110490000D03*
X189230000Y-115570000D03*
X204470000Y-107950000D03*
X189230000Y-118110000D03*
X204470000Y-105410000D03*
X189230000Y-120650000D03*
X204470000Y-102870000D03*
X189230000Y-123190000D03*
X204470000Y-100330000D03*
X189230000Y-125730000D03*
X204470000Y-97790000D03*
D20*
X244475000Y-130175000D03*
D13*
X153035000Y-122555000D03*
D14*
X153035000Y-130175000D03*
X149860000Y-130175000D03*
D13*
X149860000Y-122555000D03*
X146685000Y-122555000D03*
D14*
X146685000Y-130175000D03*
D13*
X140335000Y-122555000D03*
D14*
X140335000Y-130175000D03*
D13*
X133985000Y-122555000D03*
D14*
X133985000Y-130175000D03*
X130810000Y-130175000D03*
D13*
X130810000Y-122555000D03*
D14*
X143510000Y-130175000D03*
D13*
X143510000Y-122555000D03*
D14*
X137160000Y-130175000D03*
D13*
X137160000Y-122555000D03*
D21*
X91440000Y-104140000D03*
X91440000Y-78740000D03*
D14*
X120650000Y-63500000D03*
X105410000Y-111760000D03*
X120650000Y-66040000D03*
X105410000Y-109220000D03*
X120650000Y-68580000D03*
X105410000Y-106680000D03*
X120650000Y-71120000D03*
X105410000Y-104140000D03*
X120650000Y-73660000D03*
X105410000Y-101600000D03*
X120650000Y-76200000D03*
X105410000Y-99060000D03*
X120650000Y-78740000D03*
X105410000Y-96520000D03*
X120650000Y-81280000D03*
X105410000Y-93980000D03*
X120650000Y-83820000D03*
X105410000Y-91440000D03*
X120650000Y-86360000D03*
X105410000Y-88900000D03*
X120650000Y-88900000D03*
X105410000Y-86360000D03*
X120650000Y-91440000D03*
X105410000Y-83820000D03*
X120650000Y-93980000D03*
X105410000Y-81280000D03*
X120650000Y-96520000D03*
X105410000Y-78740000D03*
X120650000Y-99060000D03*
X105410000Y-76200000D03*
X120650000Y-101600000D03*
X105410000Y-73660000D03*
X120650000Y-104140000D03*
X105410000Y-71120000D03*
X120650000Y-106680000D03*
X105410000Y-68580000D03*
X120650000Y-109220000D03*
X105410000Y-66040000D03*
X120650000Y-111760000D03*
D13*
X105410000Y-63500000D03*
D17*
X99220000Y-118745000D03*
X96520000Y-118745000D03*
X96520000Y-120650000D03*
X99220000Y-120650000D03*
X99220000Y-116840000D03*
X96520000Y-116840000D03*
D14*
X123190000Y-122555000D03*
X105410000Y-114935000D03*
X120650000Y-122555000D03*
X107950000Y-114935000D03*
X118110000Y-122555000D03*
X110490000Y-114935000D03*
X115570000Y-122555000D03*
X113030000Y-114935000D03*
X113030000Y-122555000D03*
X115570000Y-114935000D03*
X110490000Y-122555000D03*
X118110000Y-114935000D03*
X107950000Y-122555000D03*
X120650000Y-114935000D03*
X105410000Y-122555000D03*
D13*
X123190000Y-114935000D03*
X217170000Y-63500000D03*
D14*
X224790000Y-81280000D03*
X217170000Y-66040000D03*
X224790000Y-78740000D03*
X217170000Y-68580000D03*
X224790000Y-76200000D03*
X217170000Y-71120000D03*
X224790000Y-73660000D03*
X217170000Y-73660000D03*
X224790000Y-71120000D03*
X217170000Y-76200000D03*
X224790000Y-68580000D03*
X217170000Y-78740000D03*
X224790000Y-66040000D03*
X217170000Y-81280000D03*
X224790000Y-63500000D03*
D15*
X128270000Y-119855000D03*
X128270000Y-122555000D03*
X126365000Y-122555000D03*
X126365000Y-119855000D03*
D22*
X123190000Y-127635000D03*
X123190000Y-130175000D03*
X120650000Y-127635000D03*
X120650000Y-130175000D03*
X118110000Y-127635000D03*
X118110000Y-130175000D03*
X115570000Y-127635000D03*
X115570000Y-130175000D03*
X113030000Y-127635000D03*
X113030000Y-130175000D03*
X110490000Y-127635000D03*
X110490000Y-130175000D03*
X107950000Y-127635000D03*
X107950000Y-130175000D03*
X105410000Y-127635000D03*
D11*
X105410000Y-130175000D03*
D19*
X102235000Y-122555000D03*
X102235000Y-117555000D03*
X100330000Y-113625000D03*
D13*
X100330000Y-111125000D03*
D23*
X93295000Y-114935000D03*
D24*
X90805000Y-116195000D03*
X90805000Y-120695000D03*
D23*
X93295000Y-121945000D03*
D17*
X207645000Y-99060000D03*
X210345000Y-99060000D03*
D25*
X243205000Y-107950000D03*
X243205000Y-103050000D03*
D26*
X95425000Y-65660000D03*
X92425000Y-60960000D03*
X98425000Y-60960000D03*
D15*
X102870000Y-101440000D03*
X102870000Y-104140000D03*
D13*
X217170000Y-86360000D03*
D14*
X224790000Y-104140000D03*
X217170000Y-88900000D03*
X224790000Y-101600000D03*
X217170000Y-91440000D03*
X224790000Y-99060000D03*
X217170000Y-93980000D03*
X224790000Y-96520000D03*
X217170000Y-96520000D03*
X224790000Y-93980000D03*
X217170000Y-99060000D03*
X224790000Y-91440000D03*
X217170000Y-101600000D03*
X224790000Y-88900000D03*
X217170000Y-104140000D03*
X224790000Y-86360000D03*
D19*
X213280000Y-94615000D03*
X208280000Y-94615000D03*
X171450000Y-130810000D03*
X166450000Y-130810000D03*
D17*
X179070000Y-95250000D03*
X181770000Y-95250000D03*
X181770000Y-97790000D03*
X179070000Y-97790000D03*
X179070000Y-100330000D03*
X181770000Y-100330000D03*
X172165000Y-100330000D03*
X169465000Y-100330000D03*
X172165000Y-95250000D03*
X169465000Y-95250000D03*
X181770000Y-102870000D03*
X179070000Y-102870000D03*
X169465000Y-102870000D03*
X172165000Y-102870000D03*
X169465000Y-97790000D03*
X172165000Y-97790000D03*
X156210000Y-118110000D03*
X158910000Y-118110000D03*
X241855000Y-121920000D03*
X244555000Y-121920000D03*
D14*
X224790000Y-107950000D03*
X217170000Y-125730000D03*
X224790000Y-110490000D03*
X217170000Y-123190000D03*
X224790000Y-113030000D03*
X217170000Y-120650000D03*
X224790000Y-115570000D03*
X217170000Y-118110000D03*
X224790000Y-118110000D03*
X217170000Y-115570000D03*
X224790000Y-120650000D03*
X217170000Y-113030000D03*
X224790000Y-123190000D03*
X217170000Y-110490000D03*
X224790000Y-125730000D03*
D13*
X217170000Y-107950000D03*
X177800000Y-107950000D03*
D14*
X185420000Y-125730000D03*
X177800000Y-110490000D03*
X185420000Y-123190000D03*
X177800000Y-113030000D03*
X185420000Y-120650000D03*
X177800000Y-115570000D03*
X185420000Y-118110000D03*
X177800000Y-118110000D03*
X185420000Y-115570000D03*
X177800000Y-120650000D03*
X185420000Y-113030000D03*
X177800000Y-123190000D03*
X185420000Y-110490000D03*
X177800000Y-125730000D03*
X185420000Y-107950000D03*
D13*
X229870000Y-97790000D03*
D14*
X237490000Y-125730000D03*
X229870000Y-100330000D03*
X237490000Y-123190000D03*
X229870000Y-102870000D03*
X237490000Y-120650000D03*
X229870000Y-105410000D03*
X237490000Y-118110000D03*
X229870000Y-107950000D03*
X237490000Y-115570000D03*
X229870000Y-110490000D03*
X237490000Y-113030000D03*
X229870000Y-113030000D03*
X237490000Y-110490000D03*
X229870000Y-115570000D03*
X237490000Y-107950000D03*
X229870000Y-118110000D03*
X237490000Y-105410000D03*
X229870000Y-120650000D03*
X237490000Y-102870000D03*
X229870000Y-123190000D03*
X237490000Y-100330000D03*
X229870000Y-125730000D03*
X237490000Y-97790000D03*
D13*
X165100000Y-107950000D03*
D14*
X172720000Y-125730000D03*
X165100000Y-110490000D03*
X172720000Y-123190000D03*
X165100000Y-113030000D03*
X172720000Y-120650000D03*
X165100000Y-115570000D03*
X172720000Y-118110000D03*
X165100000Y-118110000D03*
X172720000Y-115570000D03*
X165100000Y-120650000D03*
X172720000Y-113030000D03*
X165100000Y-123190000D03*
X172720000Y-110490000D03*
X165100000Y-125730000D03*
X172720000Y-107950000D03*
D27*
X88900000Y-127000000D03*
X88900000Y-129500000D03*
X98806000Y-123210000D03*
X98806000Y-125710000D03*
D17*
X92550000Y-111760000D03*
X95250000Y-111760000D03*
D15*
X98806000Y-130890000D03*
X98806000Y-128190000D03*
D17*
X90805000Y-124460000D03*
X88105000Y-124460000D03*
X93345000Y-124460000D03*
X96045000Y-124460000D03*
D28*
X91440000Y-128905000D03*
X93980000Y-128905000D03*
X96520000Y-128905000D03*
D14*
X161290000Y-115570000D03*
X133350000Y-107950000D03*
X158750000Y-115570000D03*
X135890000Y-107950000D03*
X156210000Y-115570000D03*
X138430000Y-107950000D03*
X153670000Y-115570000D03*
X140970000Y-107950000D03*
X151130000Y-115570000D03*
X143510000Y-107950000D03*
X148590000Y-115570000D03*
X146050000Y-107950000D03*
X146050000Y-115570000D03*
X148590000Y-107950000D03*
X143510000Y-115570000D03*
X151130000Y-107950000D03*
X140970000Y-115570000D03*
X153670000Y-107950000D03*
X138430000Y-115570000D03*
X156210000Y-107950000D03*
X135890000Y-115570000D03*
X158750000Y-107950000D03*
X133350000Y-115570000D03*
D13*
X161290000Y-107950000D03*
D29*
X241955000Y-98425000D03*
X244455000Y-98425000D03*
D14*
X142240000Y-66040000D03*
X127000000Y-99060000D03*
X142240000Y-68580000D03*
X127000000Y-96520000D03*
X142240000Y-71120000D03*
X127000000Y-93980000D03*
X142240000Y-73660000D03*
X127000000Y-91440000D03*
X142240000Y-76200000D03*
X127000000Y-88900000D03*
X142240000Y-78740000D03*
X127000000Y-86360000D03*
X142240000Y-81280000D03*
X127000000Y-83820000D03*
X142240000Y-83820000D03*
X127000000Y-81280000D03*
X142240000Y-86360000D03*
X127000000Y-78740000D03*
X142240000Y-88900000D03*
X127000000Y-76200000D03*
X142240000Y-91440000D03*
X127000000Y-73660000D03*
X142240000Y-93980000D03*
X127000000Y-71120000D03*
X142240000Y-96520000D03*
X127000000Y-68580000D03*
X142240000Y-99060000D03*
D13*
X127000000Y-66040000D03*
D17*
X152560000Y-118110000D03*
X149860000Y-118110000D03*
D14*
X161290000Y-71120000D03*
X146050000Y-99060000D03*
X161290000Y-73660000D03*
X146050000Y-96520000D03*
X161290000Y-76200000D03*
X146050000Y-93980000D03*
X161290000Y-78740000D03*
X146050000Y-91440000D03*
X161290000Y-81280000D03*
X146050000Y-88900000D03*
X161290000Y-83820000D03*
X146050000Y-86360000D03*
X161290000Y-86360000D03*
X146050000Y-83820000D03*
X161290000Y-88900000D03*
X146050000Y-81280000D03*
X161290000Y-91440000D03*
X146050000Y-78740000D03*
X161290000Y-93980000D03*
X146050000Y-76200000D03*
X161290000Y-96520000D03*
X146050000Y-73660000D03*
X161290000Y-99060000D03*
D13*
X146050000Y-71120000D03*
D19*
X100330000Y-88980000D03*
X100330000Y-93980000D03*
X142240000Y-62738000D03*
X137240000Y-62738000D03*
X161290000Y-67564000D03*
X156290000Y-67564000D03*
X130048000Y-107950000D03*
X130048000Y-112950000D03*
X99695000Y-71715000D03*
D13*
X99695000Y-69215000D03*
D19*
X91440000Y-71715000D03*
D13*
X91440000Y-69215000D03*
D19*
X218520000Y-130810000D03*
X223520000Y-130810000D03*
X199390000Y-130810000D03*
X194390000Y-130810000D03*
X161290000Y-62150000D03*
X161290000Y-57150000D03*
X231220000Y-130810000D03*
X236220000Y-130810000D03*
D13*
X243205000Y-74930000D03*
D19*
X243205000Y-77430000D03*
X237490000Y-60198000D03*
X242490000Y-60198000D03*
X229870000Y-60198000D03*
X224870000Y-60198000D03*
D13*
X175260000Y-60960000D03*
D14*
X175260000Y-68580000D03*
X245110000Y-88900000D03*
D13*
X245110000Y-81280000D03*
D30*
X95250000Y-88900000D03*
X95250000Y-91440000D03*
D31*
X95250000Y-93980000D03*
D13*
X177800000Y-60960000D03*
D14*
X185420000Y-78740000D03*
X177800000Y-63500000D03*
X185420000Y-76200000D03*
X177800000Y-66040000D03*
X185420000Y-73660000D03*
X177800000Y-68580000D03*
X185420000Y-71120000D03*
X177800000Y-71120000D03*
X185420000Y-68580000D03*
X177800000Y-73660000D03*
X185420000Y-66040000D03*
X177800000Y-76200000D03*
X185420000Y-63500000D03*
X177800000Y-78740000D03*
X185420000Y-60960000D03*
X172720000Y-60960000D03*
X165100000Y-78740000D03*
X172720000Y-63500000D03*
X165100000Y-76200000D03*
X172720000Y-66040000D03*
X165100000Y-73660000D03*
X172720000Y-68580000D03*
X165100000Y-71120000D03*
X172720000Y-71120000D03*
X165100000Y-68580000D03*
X172720000Y-73660000D03*
X165100000Y-66040000D03*
X172720000Y-76200000D03*
X165100000Y-63500000D03*
X172720000Y-78740000D03*
D13*
X165100000Y-60960000D03*
X229870000Y-63500000D03*
D14*
X237490000Y-91440000D03*
X229870000Y-66040000D03*
X237490000Y-88900000D03*
X229870000Y-68580000D03*
X237490000Y-86360000D03*
X229870000Y-71120000D03*
X237490000Y-83820000D03*
X229870000Y-73660000D03*
X237490000Y-81280000D03*
X229870000Y-76200000D03*
X237490000Y-78740000D03*
X229870000Y-78740000D03*
X237490000Y-76200000D03*
X229870000Y-81280000D03*
X237490000Y-73660000D03*
X229870000Y-83820000D03*
X237490000Y-71120000D03*
X229870000Y-86360000D03*
X237490000Y-68580000D03*
X229870000Y-88900000D03*
X237490000Y-66040000D03*
X229870000Y-91440000D03*
X237490000Y-63500000D03*
D27*
X127000000Y-102870000D03*
X127000000Y-105370000D03*
D29*
X241955000Y-114300000D03*
X244455000Y-114300000D03*
D20*
X88900000Y-49530000D03*
X179070000Y-49530000D03*
X244475000Y-49530000D03*
D17*
X113505000Y-60325000D03*
X116205000Y-60325000D03*
X181690000Y-85090000D03*
X178990000Y-85090000D03*
X178990000Y-87630000D03*
X181690000Y-87630000D03*
X179070000Y-90170000D03*
X181770000Y-90170000D03*
X181690000Y-92710000D03*
X178990000Y-92710000D03*
X169385000Y-92710000D03*
X172085000Y-92710000D03*
X172165000Y-90170000D03*
X169465000Y-90170000D03*
X169465000Y-87630000D03*
X172165000Y-87630000D03*
X172085000Y-85090000D03*
X169385000Y-85090000D03*
X207645000Y-104140000D03*
X210345000Y-104140000D03*
X210345000Y-101600000D03*
X207645000Y-101600000D03*
X207645000Y-80010000D03*
X210345000Y-80010000D03*
X210345000Y-77470000D03*
X207645000Y-77470000D03*
X207645000Y-74930000D03*
X210345000Y-74930000D03*
X210345000Y-72390000D03*
X207645000Y-72390000D03*
X207645000Y-69850000D03*
X210345000Y-69850000D03*
X210345000Y-67310000D03*
X207645000Y-67310000D03*
X207645000Y-64770000D03*
X210345000Y-64770000D03*
X207645000Y-62230000D03*
X210345000Y-62230000D03*
X207645000Y-90170000D03*
X210345000Y-90170000D03*
X210345000Y-87630000D03*
X207645000Y-87630000D03*
X244635000Y-93980000D03*
X241935000Y-93980000D03*
X244635000Y-95885000D03*
X241935000Y-95885000D03*
X244635000Y-92075000D03*
X241935000Y-92075000D03*
X244555000Y-112395000D03*
X241855000Y-112395000D03*
M02*
