M48
; DRILL file {KiCad (5.1.5)-3} date 18/05/2020 16:50:57
; FORMAT={-:-/ absolute / inch / decimal}
; #@! TF.CreationDate,2020-05-18T16:50:57-03:00
; #@! TF.GenerationSoftware,Kicad,Pcbnew,(5.1.5)-3
FMAT,2
INCH
T1C0.0130
T2C0.0315
T3C0.0390
T4C0.0394
T5C0.0472
T6C0.0512
T7C0.0591
T8C0.1260
%
G90
G05
T1
X4.275Y-3.0
X4.275Y-4.15
X4.325Y-2.5
X4.35Y-3.3
X4.375Y-2.6
X4.375Y-3.8
X4.4Y-3.1
X4.4Y-3.45
X4.4Y-4.0
X4.425Y-2.7
X4.425Y-3.2
X4.425Y-4.1
X4.475Y-3.225
X4.475Y-4.0
X4.5Y-2.9
X4.55Y-2.95
X4.575Y-2.525
X4.65Y-1.95
X4.825Y-2.75
X4.875Y-2.55
X4.875Y-3.05
X4.925Y-3.25
X4.95Y-2.2
X5.125Y-2.95
X5.125Y-3.9
X5.125Y-4.7
X5.175Y-2.8
X5.225Y-3.35
X5.225Y-3.65
X5.225Y-4.075
X5.25Y-2.3
X5.25Y-3.3
X5.3Y-2.25
X5.3Y-2.65
X5.3Y-2.975
X5.3Y-4.05
X5.35Y-2.2
X5.45Y-2.325
X5.475Y-2.7
X5.475Y-3.1
X5.5Y-3.15
X5.5Y-3.55
X5.525Y-2.75
X5.8Y-2.55
X5.875Y-3.5
X5.9Y-3.6
X5.925Y-3.7
X5.95Y-2.5
X5.95Y-2.9
X5.95Y-3.8
X5.975Y-3.55
X6.0Y-3.45
X6.025Y-2.85
X6.025Y-3.4
X6.05Y-3.05
X6.05Y-3.15
X6.05Y-4.4
X6.075Y-2.45
X6.125Y-2.475
X6.175Y-3.45
X6.225Y-3.1
X6.25Y-3.2
X6.25Y-3.4
X6.25Y-4.4
X6.275Y-2.75
X6.275Y-3.15
X6.275Y-3.85
X6.425Y-4.9
X6.425Y-5.075
X6.45Y-5.025
X6.575Y-4.4
X6.6Y-3.75
X6.6Y-3.85
X6.6Y-3.95
X6.6Y-4.05
X6.6Y-5.025
X6.625Y-4.8
X6.625Y-5.1
X6.65Y-4.65
X6.675Y-2.575
X6.7Y-2.875
X6.85Y-3.55
X6.85Y-3.65
X6.875Y-4.8
X6.925Y-3.4
X6.925Y-3.5
X6.925Y-3.6
X6.975Y-3.75
X6.975Y-3.85
X6.975Y-3.95
X7.075Y-2.575
X7.1Y-3.275
X7.125Y-3.05
X7.125Y-4.425
X7.15Y-3.225
X7.15Y-4.65
X7.175Y-2.4
X7.175Y-2.675
X7.2Y-4.5
X7.225Y-3.25
X7.325Y-3.65
X7.375Y-3.55
X7.5Y-2.25
X7.55Y-2.25
X7.575Y-4.3
X7.575Y-5.0
X7.6Y-2.25
X7.6Y-2.65
X7.6Y-2.85
X7.625Y-2.75
X7.625Y-2.925
X7.625Y-3.6
X7.675Y-3.65
X7.675Y-3.725
X7.675Y-4.65
X7.7Y-3.4
X7.7Y-3.775
X7.7Y-4.75
X7.725Y-3.55
X7.725Y-4.0
X7.725Y-4.85
X7.75Y-2.55
X7.75Y-4.35
X7.75Y-4.45
X7.75Y-4.6
X7.775Y-3.25
X7.8Y-2.95
X7.8Y-3.85
X7.85Y-4.2
X7.875Y-4.1
X7.9Y-3.2
X7.9Y-3.35
X7.9Y-3.9
X7.925Y-3.55
X7.925Y-3.75
X7.95Y-3.45
X7.95Y-3.7
X8.05Y-2.375
X8.125Y-4.8
X8.225Y-3.325
X8.275Y-4.075
X8.35Y-2.2
X8.35Y-2.45
X8.35Y-2.55
X8.35Y-2.65
X8.4Y-2.2
X8.425Y-3.4
X8.45Y-2.55
X8.45Y-2.85
X8.45Y-3.0
X8.45Y-3.2
X8.5Y-2.35
X8.625Y-2.65
X8.65Y-2.85
X8.675Y-3.2
X8.7Y-4.825
X8.825Y-5.1
X8.925Y-3.1
X8.925Y-4.45
X8.95Y-5.05
X9.0Y-5.075
X9.1Y-2.3
X9.15Y-5.025
X9.225Y-2.85
X9.25Y-2.6
X9.275Y-5.0
X9.475Y-4.625
X9.525Y-3.025
T2
X6.25Y-4.85
X6.25Y-4.9484
X5.4Y-4.825
X5.4Y-5.125
X9.575Y-4.0571
X9.575Y-4.25
X6.9Y-2.4
X6.9Y-2.7
X8.4531Y-5.15
X8.65Y-5.15
X8.2Y-3.725
X8.3969Y-3.725
X7.0Y-4.25
X7.0Y-4.35
X7.0Y-4.45
X7.0Y-4.55
X7.0Y-4.65
X7.0Y-4.75
X7.0Y-4.85
X7.0Y-4.95
X7.3Y-4.25
X7.3Y-4.35
X7.3Y-4.45
X7.3Y-4.55
X7.3Y-4.65
X7.3Y-4.75
X7.3Y-4.85
X7.3Y-4.95
X4.15Y-4.525
X4.15Y-4.825
X4.25Y-4.525
X4.25Y-4.825
X4.35Y-4.525
X4.35Y-4.825
X4.45Y-4.525
X4.45Y-4.825
X4.55Y-4.525
X4.55Y-4.825
X4.65Y-4.525
X4.65Y-4.825
X4.75Y-4.525
X4.75Y-4.825
X4.85Y-4.525
X4.85Y-4.825
X7.45Y-3.85
X7.45Y-3.95
X7.45Y-4.05
X7.45Y-4.15
X7.45Y-4.25
X7.45Y-4.35
X7.45Y-4.45
X7.45Y-4.55
X7.45Y-4.65
X7.45Y-4.75
X7.45Y-4.85
X7.45Y-4.95
X8.05Y-3.85
X8.05Y-3.95
X8.05Y-4.05
X8.05Y-4.15
X8.05Y-4.25
X8.05Y-4.35
X8.05Y-4.45
X8.05Y-4.55
X8.05Y-4.65
X8.05Y-4.75
X8.05Y-4.85
X8.05Y-4.95
X8.9531Y-5.15
X9.15Y-5.15
X5.75Y-2.8
X5.75Y-2.9
X5.75Y-3.0
X5.75Y-3.1
X5.75Y-3.2
X5.75Y-3.3
X5.75Y-3.4
X5.75Y-3.5
X5.75Y-3.6
X5.75Y-3.7
X5.75Y-3.8
X5.75Y-3.9
X6.35Y-2.8
X6.35Y-2.9
X6.35Y-3.0
X6.35Y-3.1
X6.35Y-3.2
X6.35Y-3.3
X6.35Y-3.4
X6.35Y-3.5
X6.35Y-3.6
X6.35Y-3.7
X6.35Y-3.8
X6.35Y-3.9
X8.55Y-4.25
X8.55Y-4.35
X8.55Y-4.45
X8.55Y-4.55
X8.55Y-4.65
X8.55Y-4.75
X8.55Y-4.85
X8.55Y-4.95
X8.85Y-4.25
X8.85Y-4.35
X8.85Y-4.45
X8.85Y-4.55
X8.85Y-4.65
X8.85Y-4.75
X8.85Y-4.85
X8.85Y-4.95
X5.0Y-2.6
X5.0Y-2.7
X5.0Y-2.8
X5.0Y-2.9
X5.0Y-3.0
X5.0Y-3.1
X5.0Y-3.2
X5.0Y-3.3
X5.0Y-3.4
X5.0Y-3.5
X5.0Y-3.6
X5.0Y-3.7
X5.0Y-3.8
X5.0Y-3.9
X5.6Y-2.6
X5.6Y-2.7
X5.6Y-2.8
X5.6Y-2.9
X5.6Y-3.0
X5.6Y-3.1
X5.6Y-3.2
X5.6Y-3.3
X5.6Y-3.4
X5.6Y-3.5
X5.6Y-3.6
X5.6Y-3.7
X5.6Y-3.8
X5.6Y-3.9
X5.65Y-4.825
X5.65Y-5.125
X5.15Y-4.825
X5.15Y-5.125
X8.8531Y-2.37
X9.05Y-2.37
X8.55Y-2.5
X8.55Y-2.6
X8.55Y-2.7
X8.55Y-2.8
X8.55Y-2.9
X8.55Y-3.0
X8.55Y-3.1
X8.55Y-3.2
X8.85Y-2.5
X8.85Y-2.6
X8.85Y-2.7
X8.85Y-2.8
X8.85Y-2.9
X8.85Y-3.0
X8.85Y-3.1
X8.85Y-3.2
X6.125Y-2.35
X6.3219Y-2.35
X3.925Y-2.725
X3.925Y-2.8234
X5.275Y-4.825
X5.275Y-5.125
X8.55Y-3.4
X8.55Y-3.5
X8.55Y-3.6
X8.55Y-3.7
X8.55Y-3.8
X8.55Y-3.9
X8.55Y-4.0
X8.55Y-4.1
X8.85Y-3.4
X8.85Y-3.5
X8.85Y-3.6
X8.85Y-3.7
X8.85Y-3.8
X8.85Y-3.9
X8.85Y-4.0
X8.85Y-4.1
X9.35Y-2.275
X9.5469Y-2.275
X4.15Y-2.5
X4.15Y-2.6
X4.15Y-2.7
X4.15Y-2.8
X4.15Y-2.9
X4.15Y-3.0
X4.15Y-3.1
X4.15Y-3.2
X4.15Y-3.3
X4.15Y-3.4
X4.15Y-3.5
X4.15Y-3.6
X4.15Y-3.7
X4.15Y-3.8
X4.15Y-3.9
X4.15Y-4.0
X4.15Y-4.1
X4.15Y-4.2
X4.15Y-4.3
X4.15Y-4.4
X4.75Y-2.5
X4.75Y-2.6
X4.75Y-2.7
X4.75Y-2.8
X4.75Y-2.9
X4.75Y-3.0
X4.75Y-3.1
X4.75Y-3.2
X4.75Y-3.3
X4.75Y-3.4
X4.75Y-3.5
X4.75Y-3.6
X4.75Y-3.7
X4.75Y-3.8
X4.75Y-3.9
X4.75Y-4.0
X4.75Y-4.1
X4.75Y-4.2
X4.75Y-4.3
X4.75Y-4.4
X6.5531Y-5.15
X6.75Y-5.15
X5.525Y-4.825
X5.525Y-5.125
X5.9Y-4.825
X5.9Y-5.125
X7.0Y-2.4
X7.0Y-2.5
X7.0Y-2.6
X7.0Y-2.7
X7.0Y-2.8
X7.0Y-2.9
X7.0Y-3.0
X7.0Y-3.1
X7.3Y-2.4
X7.3Y-2.5
X7.3Y-2.6
X7.3Y-2.7
X7.3Y-2.8
X7.3Y-2.9
X7.3Y-3.0
X7.3Y-3.1
X3.95Y-4.225
X3.95Y-4.3234
X9.05Y-3.85
X9.05Y-3.95
X9.05Y-4.05
X9.05Y-4.15
X9.05Y-4.25
X9.05Y-4.35
X9.05Y-4.45
X9.05Y-4.55
X9.05Y-4.65
X9.05Y-4.75
X9.05Y-4.85
X9.05Y-4.95
X9.35Y-3.85
X9.35Y-3.95
X9.35Y-4.05
X9.35Y-4.15
X9.35Y-4.25
X9.35Y-4.35
X9.35Y-4.45
X9.35Y-4.55
X9.35Y-4.65
X9.35Y-4.75
X9.35Y-4.85
X9.35Y-4.95
X4.9Y-4.25
X5.0969Y-4.25
X5.25Y-4.25
X5.25Y-4.55
X5.35Y-4.25
X5.35Y-4.55
X5.45Y-4.25
X5.45Y-4.55
X5.55Y-4.25
X5.55Y-4.55
X5.65Y-4.25
X5.65Y-4.55
X5.75Y-4.25
X5.75Y-4.55
X5.85Y-4.25
X5.85Y-4.55
X5.95Y-4.25
X5.95Y-4.55
X6.05Y-4.25
X6.05Y-4.55
X6.15Y-4.25
X6.15Y-4.55
X6.25Y-4.25
X6.25Y-4.55
X6.35Y-4.25
X6.35Y-4.55
X5.775Y-4.825
X5.775Y-5.125
X6.025Y-4.825
X6.025Y-5.125
X9.35Y-3.725
X9.65Y-3.725
X4.025Y-4.525
X4.025Y-4.7219
X9.05Y-2.5
X9.05Y-2.6
X9.05Y-2.7
X9.05Y-2.8
X9.05Y-2.9
X9.05Y-3.0
X9.05Y-3.1
X9.05Y-3.2
X9.05Y-3.3
X9.05Y-3.4
X9.05Y-3.5
X9.05Y-3.6
X9.35Y-2.5
X9.35Y-2.6
X9.35Y-2.7
X9.35Y-2.8
X9.35Y-2.9
X9.35Y-3.0
X9.35Y-3.1
X9.35Y-3.2
X9.35Y-3.3
X9.35Y-3.4
X9.35Y-3.5
X9.35Y-3.6
X3.6Y-2.725
X3.6Y-2.8234
X6.5Y-4.25
X6.5Y-4.35
X6.5Y-4.45
X6.5Y-4.55
X6.5Y-4.65
X6.5Y-4.75
X6.5Y-4.85
X6.5Y-4.95
X6.8Y-4.25
X6.8Y-4.35
X6.8Y-4.45
X6.8Y-4.55
X6.8Y-4.65
X6.8Y-4.75
X6.8Y-4.85
X6.8Y-4.95
X5.4031Y-2.47
X5.6Y-2.47
X6.1531Y-2.66
X6.35Y-2.66
X3.85Y-4.775
X3.85Y-4.875
X7.45Y-2.5
X7.45Y-2.6
X7.45Y-2.7
X7.45Y-2.8
X7.45Y-2.9
X7.45Y-3.0
X7.45Y-3.1
X7.45Y-3.2
X7.45Y-3.3
X7.45Y-3.4
X7.45Y-3.5
X7.45Y-3.6
X8.05Y-2.5
X8.05Y-2.6
X8.05Y-2.7
X8.05Y-2.8
X8.05Y-2.9
X8.05Y-3.0
X8.05Y-3.1
X8.05Y-3.2
X8.05Y-3.3
X8.05Y-3.4
X8.05Y-3.5
X8.05Y-3.6
X6.5Y-2.4
X6.5Y-2.5
X6.5Y-2.6
X6.5Y-2.7
X6.5Y-2.8
X6.5Y-2.9
X6.5Y-3.0
X6.5Y-3.1
X6.8Y-2.4
X6.8Y-2.5
X6.8Y-2.6
X6.8Y-2.7
X6.8Y-2.8
X6.8Y-2.9
X6.8Y-3.0
X6.8Y-3.1
X7.95Y-5.15
X8.1469Y-5.15
X3.95Y-3.3063
X3.95Y-3.5031
T3
X3.55Y-4.4228
X3.55Y-4.6
T4
X9.575Y-3.475
X9.575Y-3.575
X4.15Y-5.025
X4.15Y-5.125
X4.25Y-5.025
X4.25Y-5.125
X4.35Y-5.025
X4.35Y-5.125
X4.45Y-5.025
X4.45Y-5.125
X4.55Y-5.025
X4.55Y-5.125
X4.65Y-5.025
X4.65Y-5.125
X4.75Y-5.025
X4.75Y-5.125
X4.85Y-5.025
X4.85Y-5.125
X3.75Y-3.5
X3.75Y-3.6
X3.75Y-3.7
X7.8Y-2.0
X7.8Y-2.1
X7.9Y-2.0
X7.9Y-2.1
X8.0Y-2.0
X8.0Y-2.1
X8.1Y-2.0
X8.1Y-2.1
X8.2Y-2.0
X8.2Y-2.1
X8.3Y-2.0
X8.3Y-2.1
X8.4Y-2.0
X8.4Y-2.1
X8.5Y-2.0
X8.5Y-2.1
X8.6Y-2.0
X8.6Y-2.1
X8.7Y-2.0
X8.7Y-2.1
X8.8Y-2.0
X8.8Y-2.1
X8.9Y-2.0
X8.9Y-2.1
X9.0Y-2.0
X9.0Y-2.1
X9.1Y-2.0
X9.1Y-2.1
X9.2Y-2.0
X9.2Y-2.1
X3.9Y-2.0
X3.9Y-2.1
X4.0Y-2.0
X4.0Y-2.1
X4.1Y-2.0
X4.1Y-2.1
X4.2Y-2.0
X4.2Y-2.1
X4.3Y-2.0
X4.3Y-2.1
X4.4Y-2.0
X4.4Y-2.1
X4.5Y-2.0
X4.5Y-2.1
X4.6Y-2.0
X4.6Y-2.1
X4.7Y-2.0
X4.7Y-2.1
X4.8Y-2.0
X4.8Y-2.1
X4.9Y-2.0
X4.9Y-2.1
X5.0Y-2.0
X5.0Y-2.1
X5.1Y-2.0
X5.1Y-2.1
X5.2Y-2.0
X5.2Y-2.1
X5.3Y-2.0
X5.3Y-2.1
X5.4Y-2.0
X5.4Y-2.1
X5.5Y-2.0
X5.5Y-2.1
X5.6Y-2.0
X5.6Y-2.1
X5.7Y-2.0
X5.7Y-2.1
X5.8Y-2.0
X5.8Y-2.1
X5.9Y-2.0
X5.9Y-2.1
X6.0Y-2.0
X6.0Y-2.1
X6.1Y-2.0
X6.1Y-2.1
X6.2Y-2.0
X6.2Y-2.1
X6.3Y-2.0
X6.3Y-2.1
T5
X9.6Y-2.5
X9.6Y-2.6
X9.6Y-2.7
X3.575Y-5.075
X3.675Y-5.075
X3.775Y-5.075
T6
X3.648Y-4.3732
X3.648Y-4.6492
T7
X3.6Y-3.1
X3.6Y-4.1
T8
X3.5Y-1.95
X9.625Y-5.125
X9.625Y-1.95
X7.05Y-1.95
T4
G00X3.6388Y-2.3606
M15
G01X3.6388Y-2.4394
M16
G05
G00X3.7175Y-2.585
M15
G01X3.7963Y-2.585
M16
G05
G00X3.875Y-2.3606
M15
G01X3.875Y-2.4394
M16
G05
T0
M30
