M48
; DRILL file {KiCad (5.1.5)-3} date 14/05/2020 18:58:20
; FORMAT={-:-/ absolute / inch / decimal}
; #@! TF.CreationDate,2020-05-14T18:58:20-03:00
; #@! TF.GenerationSoftware,Kicad,Pcbnew,(5.1.5)-3
FMAT,2
INCH
T1C0.0394
T2C0.0433
T3C0.1260
%
G90
G05
T1
X2.825Y-1.925
X2.825Y-2.025
X2.925Y-1.925
X2.925Y-2.025
X3.025Y-1.925
X3.025Y-2.025
X3.125Y-1.925
X3.125Y-2.025
X3.225Y-1.925
X3.225Y-2.025
X3.325Y-1.925
X3.325Y-2.025
X3.425Y-1.925
X3.425Y-2.025
X3.525Y-1.925
X3.525Y-2.025
T2
X3.4Y-2.5
X3.4Y-2.6772
X3.6559Y-2.5
X3.6559Y-2.6772
X6.15Y-2.5
X6.15Y-2.6772
X6.4059Y-2.5
X6.4059Y-2.6772
X5.15Y-4.075
X5.15Y-4.2522
X5.4059Y-4.075
X5.4059Y-4.2522
X3.5Y-4.075
X3.5Y-4.2522
X3.7559Y-4.075
X3.7559Y-4.2522
X2.7Y-3.55
X2.7Y-3.7272
X2.9559Y-3.55
X2.9559Y-3.7272
X7.65Y-3.55
X7.65Y-3.7272
X7.9059Y-3.55
X7.9059Y-3.7272
X6.7Y-2.5
X6.7Y-2.6772
X6.9559Y-2.5
X6.9559Y-2.6772
X3.95Y-2.5
X3.95Y-2.6772
X4.2059Y-2.5
X4.2059Y-2.6772
X7.25Y-2.5
X7.25Y-2.6772
X7.5059Y-2.5
X7.5059Y-2.6772
X6.45Y-3.025
X6.45Y-3.2022
X6.7059Y-3.025
X6.7059Y-3.2022
X3.25Y-3.55
X3.25Y-3.7272
X3.5059Y-3.55
X3.5059Y-3.7272
X3.7Y-3.025
X3.7Y-3.2022
X3.9559Y-3.025
X3.9559Y-3.2022
X4.5Y-2.5
X4.5Y-2.6772
X4.7559Y-2.5
X4.7559Y-2.6772
X3.15Y-3.025
X3.15Y-3.2022
X3.4059Y-3.025
X3.4059Y-3.2022
X3.8Y-3.55
X3.8Y-3.7272
X4.0559Y-3.55
X4.0559Y-3.7272
X5.45Y-3.55
X5.45Y-3.7272
X5.7059Y-3.55
X5.7059Y-3.7272
X2.6Y-3.025
X2.6Y-3.2022
X2.8559Y-3.025
X2.8559Y-3.2022
X5.6Y-2.5
X5.6Y-2.6772
X5.8559Y-2.5
X5.8559Y-2.6772
X4.25Y-3.025
X4.25Y-3.2022
X4.5059Y-3.025
X4.5059Y-3.2022
X7.35Y-4.075
X7.35Y-4.2522
X7.6059Y-4.075
X7.6059Y-4.2522
X7.0Y-3.025
X7.0Y-3.2022
X7.2559Y-3.025
X7.2559Y-3.2022
X6.55Y-3.55
X6.55Y-3.7272
X6.8059Y-3.55
X6.8059Y-3.7272
X5.9Y-3.025
X5.9Y-3.2022
X6.1559Y-3.025
X6.1559Y-3.2022
X4.8Y-3.025
X4.8Y-3.2022
X5.0559Y-3.025
X5.0559Y-3.2022
X6.8Y-4.075
X6.8Y-4.2522
X7.0559Y-4.075
X7.0559Y-4.2522
X4.9Y-3.55
X4.9Y-3.7272
X5.1559Y-3.55
X5.1559Y-3.7272
X7.1Y-3.55
X7.1Y-3.7272
X7.3559Y-3.55
X7.3559Y-3.7272
X2.3Y-2.5
X2.3Y-2.6772
X2.5559Y-2.5
X2.5559Y-2.6772
X5.35Y-3.025
X5.35Y-3.2022
X5.6059Y-3.025
X5.6059Y-3.2022
X4.6Y-4.075
X4.6Y-4.2522
X4.8559Y-4.075
X4.8559Y-4.2522
X4.05Y-4.075
X4.05Y-4.2522
X4.3059Y-4.075
X4.3059Y-4.2522
X7.55Y-3.025
X7.55Y-3.2022
X7.8059Y-3.025
X7.8059Y-3.2022
X2.4Y-4.075
X2.4Y-4.2522
X2.6559Y-4.075
X2.6559Y-4.2522
X2.85Y-2.5
X2.85Y-2.6772
X3.1059Y-2.5
X3.1059Y-2.6772
X5.05Y-2.5
X5.05Y-2.6772
X5.3059Y-2.5
X5.3059Y-2.6772
X6.25Y-4.075
X6.25Y-4.2522
X6.5059Y-4.075
X6.5059Y-4.2522
X5.7Y-4.075
X5.7Y-4.2522
X5.9559Y-4.075
X5.9559Y-4.2522
X2.95Y-4.075
X2.95Y-4.2522
X3.2059Y-4.075
X3.2059Y-4.2522
X6.0Y-3.55
X6.0Y-3.7272
X6.2559Y-3.55
X6.2559Y-3.7272
X4.35Y-3.55
X4.35Y-3.7272
X4.6059Y-3.55
X4.6059Y-3.7272
T3
X8.025Y-4.35
X2.175Y-1.925
X8.025Y-1.925
X2.175Y-4.35
T0
M30
