G04 #@! TF.GenerationSoftware,KiCad,Pcbnew,(5.1.6)-1*
G04 #@! TF.CreationDate,2020-06-11T13:25:02-03:00*
G04 #@! TF.ProjectId,Jupiter-II_keyboard,4a757069-7465-4722-9d49-495f6b657962,rev?*
G04 #@! TF.SameCoordinates,Original*
G04 #@! TF.FileFunction,Legend,Top*
G04 #@! TF.FilePolarity,Positive*
%FSLAX46Y46*%
G04 Gerber Fmt 4.6, Leading zero omitted, Abs format (unit mm)*
G04 Created by KiCad (PCBNEW (5.1.6)-1) date 2020-06-11 13:25:02*
%MOMM*%
%LPD*%
G01*
G04 APERTURE LIST*
%ADD10C,0.150000*%
%ADD11C,0.200000*%
%ADD12C,0.300000*%
%ADD13C,0.100000*%
G04 #@! TA.AperFunction,Profile*
%ADD14C,0.381000*%
G04 #@! TD*
%ADD15C,0.120000*%
%ADD16C,0.400000*%
%ADD17C,0.500000*%
G04 APERTURE END LIST*
D10*
G36*
X78740000Y-59690000D02*
G01*
X76835000Y-59690000D01*
X76835000Y-57785000D01*
X78740000Y-57785000D01*
X78740000Y-59690000D01*
G37*
X78740000Y-59690000D02*
X76835000Y-59690000D01*
X76835000Y-57785000D01*
X78740000Y-57785000D01*
X78740000Y-59690000D01*
D11*
X170706190Y-72219285D02*
X170625238Y-72281190D01*
X170382380Y-72343095D01*
X170220476Y-72343095D01*
X169977619Y-72281190D01*
X169815714Y-72157380D01*
X169734761Y-72033571D01*
X169653809Y-71785952D01*
X169653809Y-71600238D01*
X169734761Y-71352619D01*
X169815714Y-71228809D01*
X169977619Y-71105000D01*
X170220476Y-71043095D01*
X170382380Y-71043095D01*
X170625238Y-71105000D01*
X170706190Y-71166904D01*
X171450000Y-71755000D02*
G75*
G03*
X171450000Y-71755000I-1270000J0D01*
G01*
D12*
X197739047Y-71382142D02*
X197739047Y-71953571D01*
X198500952Y-71382142D02*
X198500952Y-71953571D01*
X184292857Y-72334285D02*
X184292857Y-72477142D01*
X184150000Y-72762857D01*
X184007142Y-72905714D01*
X184150000Y-70620000D02*
X184292857Y-70762857D01*
X184150000Y-70905714D01*
X184007142Y-70762857D01*
X184150000Y-70620000D01*
X184150000Y-70905714D01*
D11*
X155829047Y-72933571D02*
X156305238Y-72933571D01*
X156305238Y-70790714D01*
X155829047Y-70790714D01*
X142620952Y-72933571D02*
X142144761Y-72933571D01*
X142144761Y-70790714D01*
X142620952Y-70790714D01*
X127508095Y-71219285D02*
X129031904Y-71933571D01*
X127508095Y-72647857D01*
X115061904Y-71219285D02*
X113538095Y-71933571D01*
X115061904Y-72647857D01*
X144780000Y-83820000D02*
X144145000Y-84455000D01*
X144780000Y-83820000D02*
X145415000Y-84455000D01*
X144780000Y-86360000D02*
X144780000Y-83820000D01*
X185928095Y-84947142D02*
X187451904Y-84947142D01*
X187451904Y-85518571D02*
X185928095Y-85518571D01*
X171958095Y-85232857D02*
X173481904Y-85232857D01*
X172720000Y-85994761D02*
X172720000Y-84470952D01*
X157988095Y-85232857D02*
X159511904Y-85232857D01*
X130429047Y-86340000D02*
X130524285Y-86340000D01*
X130714761Y-86268571D01*
X130810000Y-86125714D01*
X130810000Y-85411428D01*
X130905238Y-85268571D01*
X131095714Y-85197142D01*
X130905238Y-85125714D01*
X130810000Y-84982857D01*
X130810000Y-84268571D01*
X130714761Y-84125714D01*
X130524285Y-84054285D01*
X130429047Y-84054285D01*
X117220952Y-86340000D02*
X117125714Y-86340000D01*
X116935238Y-86268571D01*
X116840000Y-86125714D01*
X116840000Y-85411428D01*
X116744761Y-85268571D01*
X116554285Y-85197142D01*
X116744761Y-85125714D01*
X116840000Y-84982857D01*
X116840000Y-84268571D01*
X116935238Y-84125714D01*
X117125714Y-84054285D01*
X117220952Y-84054285D01*
X102012857Y-84125714D02*
X103727142Y-86054285D01*
X88900000Y-86268571D02*
X88900000Y-84125714D01*
X74406190Y-85232857D02*
X74501428Y-85137619D01*
X74691904Y-85042380D01*
X75072857Y-85232857D01*
X75263333Y-85137619D01*
X75358571Y-85042380D01*
X185928095Y-58880238D02*
X187451904Y-58880238D01*
X176149047Y-59670000D02*
X176244285Y-59598571D01*
X176434761Y-59384285D01*
X176530000Y-59241428D01*
X176625238Y-59027142D01*
X176720476Y-58670000D01*
X176720476Y-58384285D01*
X176625238Y-58027142D01*
X176530000Y-57812857D01*
X176434761Y-57670000D01*
X176244285Y-57455714D01*
X176149047Y-57384285D01*
X162940952Y-59670000D02*
X162845714Y-59598571D01*
X162655238Y-59384285D01*
X162560000Y-59241428D01*
X162464761Y-59027142D01*
X162369523Y-58670000D01*
X162369523Y-58384285D01*
X162464761Y-58027142D01*
X162560000Y-57812857D01*
X162655238Y-57670000D01*
X162845714Y-57455714D01*
X162940952Y-57384285D01*
D12*
X144922857Y-58047142D02*
X144637142Y-58618571D01*
D11*
X131667142Y-59324761D02*
X131571904Y-59324761D01*
X131381428Y-59229523D01*
X131095714Y-58943809D01*
X130619523Y-58372380D01*
X130429047Y-58086666D01*
X130333809Y-57800952D01*
X130333809Y-57610476D01*
X130429047Y-57420000D01*
X130619523Y-57324761D01*
X130714761Y-57324761D01*
X130905238Y-57420000D01*
X131000476Y-57610476D01*
X131000476Y-57705714D01*
X130905238Y-57896190D01*
X130810000Y-57991428D01*
X130238571Y-58372380D01*
X130143333Y-58467619D01*
X130048095Y-58658095D01*
X130048095Y-58943809D01*
X130143333Y-59134285D01*
X130238571Y-59229523D01*
X130429047Y-59324761D01*
X130714761Y-59324761D01*
X130905238Y-59229523D01*
X131000476Y-59134285D01*
X131286190Y-58753333D01*
X131381428Y-58467619D01*
X131381428Y-58277142D01*
X116078095Y-59189047D02*
X117601904Y-57489047D01*
X116363809Y-57489047D02*
X116554285Y-57570000D01*
X116649523Y-57731904D01*
X116554285Y-57893809D01*
X116363809Y-57974761D01*
X116173333Y-57893809D01*
X116078095Y-57731904D01*
X116173333Y-57570000D01*
X116363809Y-57489047D01*
X117506666Y-59108095D02*
X117601904Y-58946190D01*
X117506666Y-58784285D01*
X117316190Y-58703333D01*
X117125714Y-58784285D01*
X117030476Y-58946190D01*
X117125714Y-59108095D01*
X117316190Y-59189047D01*
X117506666Y-59108095D01*
X102298571Y-59108095D02*
X102584285Y-59189047D01*
X103060476Y-59189047D01*
X103250952Y-59108095D01*
X103346190Y-59027142D01*
X103441428Y-58865238D01*
X103441428Y-58703333D01*
X103346190Y-58541428D01*
X103250952Y-58460476D01*
X103060476Y-58379523D01*
X102679523Y-58298571D01*
X102489047Y-58217619D01*
X102393809Y-58136666D01*
X102298571Y-57974761D01*
X102298571Y-57812857D01*
X102393809Y-57650952D01*
X102489047Y-57570000D01*
X102679523Y-57489047D01*
X103155714Y-57489047D01*
X103441428Y-57570000D01*
X102870000Y-57246190D02*
X102870000Y-59431904D01*
X88280952Y-58098571D02*
X89709523Y-58098571D01*
X88852380Y-57455714D02*
X88280952Y-59384285D01*
X89519047Y-58741428D02*
X88090476Y-58741428D01*
X88947619Y-59384285D02*
X89519047Y-57455714D01*
X75358571Y-58372380D02*
X75263333Y-58277142D01*
X75072857Y-58181904D01*
X74882380Y-58181904D01*
X74691904Y-58277142D01*
X74596666Y-58372380D01*
X74501428Y-58562857D01*
X74501428Y-58753333D01*
X74596666Y-58943809D01*
X74691904Y-59039047D01*
X74882380Y-59134285D01*
X75072857Y-59134285D01*
X75263333Y-59039047D01*
X75358571Y-58943809D01*
X75358571Y-58181904D02*
X75358571Y-58943809D01*
X75453809Y-59039047D01*
X75549047Y-59039047D01*
X75739523Y-58943809D01*
X75834761Y-58753333D01*
X75834761Y-58277142D01*
X75644285Y-57991428D01*
X75358571Y-57800952D01*
X74977619Y-57705714D01*
X74596666Y-57800952D01*
X74310952Y-57991428D01*
X74120476Y-58277142D01*
X74025238Y-58658095D01*
X74120476Y-59039047D01*
X74310952Y-59324761D01*
X74596666Y-59515238D01*
X74977619Y-59610476D01*
X75358571Y-59515238D01*
X75644285Y-59324761D01*
D10*
G36*
X150495000Y-61595000D02*
G01*
X148590000Y-61595000D01*
X148590000Y-59690000D01*
X146685000Y-59690000D01*
X146685000Y-57785000D01*
X150495000Y-57785000D01*
X150495000Y-61595000D01*
G37*
X150495000Y-61595000D02*
X148590000Y-61595000D01*
X148590000Y-59690000D01*
X146685000Y-59690000D01*
X146685000Y-57785000D01*
X150495000Y-57785000D01*
X150495000Y-61595000D01*
G36*
X136525000Y-61595000D02*
G01*
X134620000Y-61595000D01*
X134620000Y-59690000D01*
X136525000Y-59690000D01*
X136525000Y-61595000D01*
G37*
X136525000Y-61595000D02*
X134620000Y-61595000D01*
X134620000Y-59690000D01*
X136525000Y-59690000D01*
X136525000Y-61595000D01*
X192405000Y-57785000D02*
X188595000Y-57785000D01*
X192405000Y-61595000D02*
X192405000Y-57785000D01*
X188595000Y-61595000D02*
X192405000Y-61595000D01*
X188595000Y-57785000D02*
X188595000Y-61595000D01*
D13*
X150495000Y-57785000D02*
X146685000Y-57785000D01*
D10*
X146685000Y-61595000D02*
X148590000Y-61595000D01*
D13*
X150495000Y-61595000D02*
X150495000Y-57785000D01*
D10*
X146685000Y-59690000D02*
X146685000Y-61595000D01*
X136525000Y-59690000D02*
X136525000Y-57785000D01*
X132715000Y-59690000D02*
X132715000Y-61595000D01*
X136525000Y-57785000D02*
X134620000Y-57785000D01*
X132715000Y-61595000D02*
X134620000Y-61595000D01*
G36*
X134620000Y-59690000D02*
G01*
X132715000Y-59690000D01*
X132715000Y-57785000D01*
X134620000Y-57785000D01*
X134620000Y-59690000D01*
G37*
X134620000Y-59690000D02*
X132715000Y-59690000D01*
X132715000Y-57785000D01*
X134620000Y-57785000D01*
X134620000Y-59690000D01*
X120650000Y-57785000D02*
X118745000Y-57785000D01*
D13*
X122555000Y-61595000D02*
X122555000Y-57785000D01*
D10*
X118745000Y-57785000D02*
X118745000Y-61595000D01*
G36*
X122555000Y-61595000D02*
G01*
X120650000Y-61595000D01*
X120650000Y-57785000D01*
X122555000Y-57785000D01*
X122555000Y-61595000D01*
G37*
X122555000Y-61595000D02*
X120650000Y-61595000D01*
X120650000Y-57785000D01*
X122555000Y-57785000D01*
X122555000Y-61595000D01*
X118745000Y-61595000D02*
X120650000Y-61595000D01*
X108585000Y-59690000D02*
X108585000Y-57785000D01*
X104775000Y-57785000D02*
X104775000Y-61595000D01*
X108585000Y-57785000D02*
X104775000Y-57785000D01*
G36*
X108585000Y-61595000D02*
G01*
X106680000Y-61595000D01*
X106680000Y-59690000D01*
X108585000Y-59690000D01*
X108585000Y-61595000D01*
G37*
X108585000Y-61595000D02*
X106680000Y-61595000D01*
X106680000Y-59690000D01*
X108585000Y-59690000D01*
X108585000Y-61595000D01*
X104775000Y-61595000D02*
X106680000Y-61595000D01*
G36*
X94615000Y-59690000D02*
G01*
X90805000Y-59690000D01*
X90805000Y-57785000D01*
X94615000Y-57785000D01*
X94615000Y-59690000D01*
G37*
X94615000Y-59690000D02*
X90805000Y-59690000D01*
X90805000Y-57785000D01*
X94615000Y-57785000D01*
X94615000Y-59690000D01*
X90805000Y-61595000D02*
X94615000Y-61595000D01*
X90805000Y-59690000D02*
X90805000Y-61595000D01*
D13*
X94615000Y-57785000D02*
X90805000Y-57785000D01*
D10*
X94615000Y-61595000D02*
X94615000Y-59690000D01*
X76835000Y-61595000D02*
X80645000Y-61595000D01*
X76835000Y-59690000D02*
X76835000Y-61595000D01*
X80645000Y-57785000D02*
X78740000Y-57785000D01*
X80645000Y-61595000D02*
X80645000Y-57785000D01*
X66675000Y-61595000D02*
X66675000Y-59690000D01*
X62865000Y-61595000D02*
X66675000Y-61595000D01*
X62865000Y-57785000D02*
X62865000Y-61595000D01*
X64770000Y-57785000D02*
X62865000Y-57785000D01*
G36*
X66675000Y-59690000D02*
G01*
X64770000Y-59690000D01*
X64770000Y-57785000D01*
X66675000Y-57785000D01*
X66675000Y-59690000D01*
G37*
X66675000Y-59690000D02*
X64770000Y-59690000D01*
X64770000Y-57785000D01*
X66675000Y-57785000D01*
X66675000Y-59690000D01*
D12*
X144145000Y-53340000D02*
X142875000Y-53340000D01*
X144145000Y-52070000D02*
X144145000Y-53340000D01*
X146685000Y-52070000D02*
X144145000Y-52070000D01*
X146685000Y-53340000D02*
X146685000Y-52070000D01*
X147955000Y-53340000D02*
X146685000Y-53340000D01*
X145415000Y-55880000D02*
X147955000Y-53340000D01*
X142875000Y-53340000D02*
X145415000Y-55880000D01*
X133985000Y-54610000D02*
X131445000Y-52070000D01*
X132715000Y-54610000D02*
X133985000Y-54610000D01*
X132715000Y-55880000D02*
X132715000Y-54610000D01*
X130175000Y-55880000D02*
X132715000Y-55880000D01*
X130175000Y-54610000D02*
X130175000Y-55880000D01*
X128905000Y-54610000D02*
X130175000Y-54610000D01*
X131445000Y-52070000D02*
X128905000Y-54610000D01*
X117475000Y-55880000D02*
X115570000Y-53975000D01*
X117475000Y-54610000D02*
X117475000Y-55880000D01*
X120015000Y-54610000D02*
X117475000Y-54610000D01*
X120015000Y-53340000D02*
X120015000Y-54610000D01*
X117475000Y-53340000D02*
X120015000Y-53340000D01*
X117475000Y-52070000D02*
X117475000Y-53340000D01*
X115570000Y-53975000D02*
X117475000Y-52070000D01*
X156845000Y-55245000D02*
X156845000Y-53975000D01*
X159385000Y-55245000D02*
X156845000Y-55245000D01*
X159385000Y-56515000D02*
X159385000Y-55245000D01*
X161290000Y-54610000D02*
X159385000Y-56515000D01*
X159385000Y-52705000D02*
X161290000Y-54610000D01*
X159385000Y-53975000D02*
X159385000Y-52705000D01*
X156845000Y-53975000D02*
X159385000Y-53975000D01*
D11*
X168707380Y-54545000D02*
X168555000Y-54478333D01*
X168326428Y-54478333D01*
X168097857Y-54545000D01*
X167945476Y-54678333D01*
X167869285Y-54811666D01*
X167793095Y-55078333D01*
X167793095Y-55278333D01*
X167869285Y-55545000D01*
X167945476Y-55678333D01*
X168097857Y-55811666D01*
X168326428Y-55878333D01*
X168478809Y-55878333D01*
X168707380Y-55811666D01*
X168783571Y-55745000D01*
X168783571Y-55278333D01*
X168478809Y-55278333D01*
X170383571Y-55878333D02*
X169850238Y-55211666D01*
X169469285Y-55878333D02*
X169469285Y-54478333D01*
X170078809Y-54478333D01*
X170231190Y-54545000D01*
X170307380Y-54611666D01*
X170383571Y-54745000D01*
X170383571Y-54945000D01*
X170307380Y-55078333D01*
X170231190Y-55145000D01*
X170078809Y-55211666D01*
X169469285Y-55211666D01*
X170993095Y-55478333D02*
X171755000Y-55478333D01*
X170840714Y-55878333D02*
X171374047Y-54478333D01*
X171907380Y-55878333D01*
X172440714Y-55878333D02*
X172440714Y-54478333D01*
X173050238Y-54478333D01*
X173202619Y-54545000D01*
X173278809Y-54611666D01*
X173355000Y-54745000D01*
X173355000Y-54945000D01*
X173278809Y-55078333D01*
X173202619Y-55145000D01*
X173050238Y-55211666D01*
X172440714Y-55211666D01*
X174040714Y-55878333D02*
X174040714Y-54478333D01*
X174040714Y-55145000D02*
X174955000Y-55145000D01*
X174955000Y-55878333D02*
X174955000Y-54478333D01*
X175716904Y-55878333D02*
X175716904Y-54478333D01*
X177393095Y-55745000D02*
X177316904Y-55811666D01*
X177088333Y-55878333D01*
X176935952Y-55878333D01*
X176707380Y-55811666D01*
X176555000Y-55678333D01*
X176478809Y-55545000D01*
X176402619Y-55278333D01*
X176402619Y-55078333D01*
X176478809Y-54811666D01*
X176555000Y-54678333D01*
X176707380Y-54545000D01*
X176935952Y-54478333D01*
X177088333Y-54478333D01*
X177316904Y-54545000D01*
X177393095Y-54611666D01*
X178002619Y-55811666D02*
X178231190Y-55878333D01*
X178612142Y-55878333D01*
X178764523Y-55811666D01*
X178840714Y-55745000D01*
X178916904Y-55611666D01*
X178916904Y-55478333D01*
X178840714Y-55345000D01*
X178764523Y-55278333D01*
X178612142Y-55211666D01*
X178307380Y-55145000D01*
X178155000Y-55078333D01*
X178078809Y-55011666D01*
X178002619Y-54878333D01*
X178002619Y-54745000D01*
X178078809Y-54611666D01*
X178155000Y-54545000D01*
X178307380Y-54478333D01*
X178688333Y-54478333D01*
X178916904Y-54545000D01*
X183477380Y-55878333D02*
X183477380Y-54478333D01*
X183858333Y-54478333D01*
X184086904Y-54545000D01*
X184239285Y-54678333D01*
X184315476Y-54811666D01*
X184391666Y-55078333D01*
X184391666Y-55278333D01*
X184315476Y-55545000D01*
X184239285Y-55678333D01*
X184086904Y-55811666D01*
X183858333Y-55878333D01*
X183477380Y-55878333D01*
X185077380Y-55145000D02*
X185610714Y-55145000D01*
X185839285Y-55878333D02*
X185077380Y-55878333D01*
X185077380Y-54478333D01*
X185839285Y-54478333D01*
X187286904Y-55878333D02*
X186525000Y-55878333D01*
X186525000Y-54478333D01*
X187820238Y-55145000D02*
X188353571Y-55145000D01*
X188582142Y-55878333D02*
X187820238Y-55878333D01*
X187820238Y-54478333D01*
X188582142Y-54478333D01*
X189039285Y-54478333D02*
X189953571Y-54478333D01*
X189496428Y-55878333D02*
X189496428Y-54478333D01*
X190486904Y-55145000D02*
X191020238Y-55145000D01*
X191248809Y-55878333D02*
X190486904Y-55878333D01*
X190486904Y-54478333D01*
X191248809Y-54478333D01*
X98971666Y-54093333D02*
X98971666Y-52693333D01*
X99733571Y-54093333D02*
X99733571Y-52693333D01*
X100647857Y-54093333D01*
X100647857Y-52693333D01*
X101181190Y-52693333D02*
X101714523Y-54093333D01*
X102247857Y-52693333D01*
X102781190Y-53360000D02*
X103314523Y-53360000D01*
X103543095Y-54093333D02*
X102781190Y-54093333D01*
X102781190Y-52693333D01*
X103543095Y-52693333D01*
X105143095Y-54093333D02*
X104609761Y-53426666D01*
X104228809Y-54093333D02*
X104228809Y-52693333D01*
X104838333Y-52693333D01*
X104990714Y-52760000D01*
X105066904Y-52826666D01*
X105143095Y-52960000D01*
X105143095Y-53160000D01*
X105066904Y-53293333D01*
X104990714Y-53360000D01*
X104838333Y-53426666D01*
X104228809Y-53426666D01*
X105752619Y-54026666D02*
X105981190Y-54093333D01*
X106362142Y-54093333D01*
X106514523Y-54026666D01*
X106590714Y-53960000D01*
X106666904Y-53826666D01*
X106666904Y-53693333D01*
X106590714Y-53560000D01*
X106514523Y-53493333D01*
X106362142Y-53426666D01*
X106057380Y-53360000D01*
X105905000Y-53293333D01*
X105828809Y-53226666D01*
X105752619Y-53093333D01*
X105752619Y-52960000D01*
X105828809Y-52826666D01*
X105905000Y-52760000D01*
X106057380Y-52693333D01*
X106438333Y-52693333D01*
X106666904Y-52760000D01*
X107352619Y-53360000D02*
X107885952Y-53360000D01*
X108114523Y-54093333D02*
X107352619Y-54093333D01*
X107352619Y-52693333D01*
X108114523Y-52693333D01*
X100228809Y-54993333D02*
X100762142Y-56393333D01*
X101295476Y-54993333D01*
X101828809Y-56393333D02*
X101828809Y-54993333D01*
X102590714Y-56393333D02*
X102590714Y-54993333D01*
X102971666Y-54993333D01*
X103200238Y-55060000D01*
X103352619Y-55193333D01*
X103428809Y-55326666D01*
X103505000Y-55593333D01*
X103505000Y-55793333D01*
X103428809Y-56060000D01*
X103352619Y-56193333D01*
X103200238Y-56326666D01*
X102971666Y-56393333D01*
X102590714Y-56393333D01*
X104190714Y-55660000D02*
X104724047Y-55660000D01*
X104952619Y-56393333D02*
X104190714Y-56393333D01*
X104190714Y-54993333D01*
X104952619Y-54993333D01*
X105943095Y-54993333D02*
X106247857Y-54993333D01*
X106400238Y-55060000D01*
X106552619Y-55193333D01*
X106628809Y-55460000D01*
X106628809Y-55926666D01*
X106552619Y-56193333D01*
X106400238Y-56326666D01*
X106247857Y-56393333D01*
X105943095Y-56393333D01*
X105790714Y-56326666D01*
X105638333Y-56193333D01*
X105562142Y-55926666D01*
X105562142Y-55460000D01*
X105638333Y-55193333D01*
X105790714Y-55060000D01*
X105943095Y-54993333D01*
X73812619Y-70851000D02*
X73736428Y-70917666D01*
X73507857Y-70984333D01*
X73355476Y-70984333D01*
X73126904Y-70917666D01*
X72974523Y-70784333D01*
X72898333Y-70651000D01*
X72822142Y-70384333D01*
X72822142Y-70184333D01*
X72898333Y-69917666D01*
X72974523Y-69784333D01*
X73126904Y-69651000D01*
X73355476Y-69584333D01*
X73507857Y-69584333D01*
X73736428Y-69651000D01*
X73812619Y-69717666D01*
X74422142Y-70584333D02*
X75184047Y-70584333D01*
X74269761Y-70984333D02*
X74803095Y-69584333D01*
X75336428Y-70984333D01*
X75869761Y-70984333D02*
X75869761Y-69584333D01*
X76479285Y-69584333D01*
X76631666Y-69651000D01*
X76707857Y-69717666D01*
X76784047Y-69851000D01*
X76784047Y-70051000D01*
X76707857Y-70184333D01*
X76631666Y-70251000D01*
X76479285Y-70317666D01*
X75869761Y-70317666D01*
X77393571Y-70917666D02*
X77622142Y-70984333D01*
X78003095Y-70984333D01*
X78155476Y-70917666D01*
X78231666Y-70851000D01*
X78307857Y-70717666D01*
X78307857Y-70584333D01*
X78231666Y-70451000D01*
X78155476Y-70384333D01*
X78003095Y-70317666D01*
X77698333Y-70251000D01*
X77545952Y-70184333D01*
X77469761Y-70117666D01*
X77393571Y-69984333D01*
X77393571Y-69851000D01*
X77469761Y-69717666D01*
X77545952Y-69651000D01*
X77698333Y-69584333D01*
X78079285Y-69584333D01*
X78307857Y-69651000D01*
X73622142Y-73284333D02*
X72860238Y-73284333D01*
X72860238Y-71884333D01*
X74460238Y-71884333D02*
X74765000Y-71884333D01*
X74917380Y-71951000D01*
X75069761Y-72084333D01*
X75145952Y-72351000D01*
X75145952Y-72817666D01*
X75069761Y-73084333D01*
X74917380Y-73217666D01*
X74765000Y-73284333D01*
X74460238Y-73284333D01*
X74307857Y-73217666D01*
X74155476Y-73084333D01*
X74079285Y-72817666D01*
X74079285Y-72351000D01*
X74155476Y-72084333D01*
X74307857Y-71951000D01*
X74460238Y-71884333D01*
X76745952Y-73151000D02*
X76669761Y-73217666D01*
X76441190Y-73284333D01*
X76288809Y-73284333D01*
X76060238Y-73217666D01*
X75907857Y-73084333D01*
X75831666Y-72951000D01*
X75755476Y-72684333D01*
X75755476Y-72484333D01*
X75831666Y-72217666D01*
X75907857Y-72084333D01*
X76060238Y-71951000D01*
X76288809Y-71884333D01*
X76441190Y-71884333D01*
X76669761Y-71951000D01*
X76745952Y-72017666D01*
X77431666Y-73284333D02*
X77431666Y-71884333D01*
X78345952Y-73284333D02*
X77660238Y-72484333D01*
X78345952Y-71884333D02*
X77431666Y-72684333D01*
X57747380Y-70984333D02*
X57747380Y-69584333D01*
X58128333Y-69584333D01*
X58356904Y-69651000D01*
X58509285Y-69784333D01*
X58585476Y-69917666D01*
X58661666Y-70184333D01*
X58661666Y-70384333D01*
X58585476Y-70651000D01*
X58509285Y-70784333D01*
X58356904Y-70917666D01*
X58128333Y-70984333D01*
X57747380Y-70984333D01*
X59347380Y-70251000D02*
X59880714Y-70251000D01*
X60109285Y-70984333D02*
X59347380Y-70984333D01*
X59347380Y-69584333D01*
X60109285Y-69584333D01*
X61556904Y-70984333D02*
X60794999Y-70984333D01*
X60794999Y-69584333D01*
X62090238Y-70251000D02*
X62623571Y-70251000D01*
X62852142Y-70984333D02*
X62090238Y-70984333D01*
X62090238Y-69584333D01*
X62852142Y-69584333D01*
X63309285Y-69584333D02*
X64223571Y-69584333D01*
X63766428Y-70984333D02*
X63766428Y-69584333D01*
X64756904Y-70251000D02*
X65290238Y-70251000D01*
X65518809Y-70984333D02*
X64756904Y-70984333D01*
X64756904Y-69584333D01*
X65518809Y-69584333D01*
X60147380Y-73284333D02*
X59385476Y-73284333D01*
X59385476Y-71884333D01*
X60680714Y-73284333D02*
X60680714Y-71884333D01*
X61442619Y-73284333D02*
X61442619Y-71884333D01*
X62356904Y-73284333D01*
X62356904Y-71884333D01*
X63118809Y-72551000D02*
X63652142Y-72551000D01*
X63880714Y-73284333D02*
X63118809Y-73284333D01*
X63118809Y-71884333D01*
X63880714Y-71884333D01*
X60960000Y-59134285D02*
X61055238Y-59229523D01*
X60960000Y-59324761D01*
X60864761Y-59229523D01*
X60960000Y-59134285D01*
X60960000Y-59324761D01*
X60960000Y-58562857D02*
X60864761Y-57420000D01*
X60960000Y-57324761D01*
X61055238Y-57420000D01*
X60960000Y-58562857D01*
X60960000Y-57324761D01*
X94464285Y-97996428D02*
X95607142Y-97996428D01*
X94464285Y-99329761D02*
X96035714Y-99329761D01*
X94892857Y-99329761D02*
X94892857Y-97615476D01*
X95035714Y-97425000D01*
X95321428Y-97329761D01*
X95750000Y-97329761D01*
X96035714Y-97425000D01*
X109124761Y-99393285D02*
X109220000Y-99488523D01*
X109124761Y-99583761D01*
X109029523Y-99488523D01*
X109124761Y-99393285D01*
X109124761Y-99583761D01*
X108743809Y-97679000D02*
X108934285Y-97583761D01*
X109410476Y-97583761D01*
X109600952Y-97679000D01*
X109696190Y-97869476D01*
X109696190Y-98059952D01*
X109600952Y-98250428D01*
X109505714Y-98345666D01*
X109315238Y-98440904D01*
X109220000Y-98536142D01*
X109124761Y-98726619D01*
X109124761Y-98821857D01*
X124047142Y-97532142D02*
X122332857Y-99460714D01*
D12*
X137160000Y-98052142D02*
X137160000Y-98766428D01*
X136445714Y-98480714D02*
X137160000Y-98766428D01*
X137874285Y-98480714D01*
X136731428Y-99337857D02*
X137160000Y-98766428D01*
X137588571Y-99337857D01*
X151272857Y-98369285D02*
X151272857Y-98512142D01*
X151130000Y-98797857D01*
X150987142Y-98940714D01*
X165100000Y-98226428D02*
X165242857Y-98369285D01*
X165100000Y-98512142D01*
X164957142Y-98369285D01*
X165100000Y-98226428D01*
X165100000Y-98512142D01*
X81280000Y-99496428D02*
X81422857Y-99639285D01*
X81280000Y-99782142D01*
X81137142Y-99639285D01*
X81280000Y-99496428D01*
X81280000Y-99782142D01*
X81280000Y-97925000D02*
X81422857Y-98067857D01*
X81280000Y-98210714D01*
X81137142Y-98067857D01*
X81280000Y-97925000D01*
X81280000Y-98210714D01*
D11*
X186185059Y-110601142D02*
X186458869Y-110696380D01*
X186542202Y-110791619D01*
X186613630Y-110982095D01*
X186577916Y-111267809D01*
X186458869Y-111458285D01*
X186351726Y-111553523D01*
X186149345Y-111648761D01*
X185387440Y-111648761D01*
X185637440Y-109648761D01*
X186304107Y-109648761D01*
X186482678Y-109744000D01*
X186566011Y-109839238D01*
X186637440Y-110029714D01*
X186613630Y-110220190D01*
X186494583Y-110410666D01*
X186387440Y-110505904D01*
X186185059Y-110601142D01*
X185518392Y-110601142D01*
X188530297Y-111648761D02*
X187982678Y-110696380D01*
X187387440Y-111648761D02*
X187637440Y-109648761D01*
X188399345Y-109648761D01*
X188577916Y-109744000D01*
X188661250Y-109839238D01*
X188732678Y-110029714D01*
X188696964Y-110315428D01*
X188577916Y-110505904D01*
X188470773Y-110601142D01*
X188268392Y-110696380D01*
X187506488Y-110696380D01*
X189518392Y-110601142D02*
X190185059Y-110601142D01*
X190339821Y-111648761D02*
X189387440Y-111648761D01*
X189637440Y-109648761D01*
X190589821Y-109648761D01*
X191173154Y-111077333D02*
X192125535Y-111077333D01*
X190911250Y-111648761D02*
X191827916Y-109648761D01*
X192244583Y-111648761D01*
X192911249Y-111648761D02*
X193161249Y-109648761D01*
X194054107Y-111648761D02*
X193339821Y-110505904D01*
X194304107Y-109648761D02*
X193018392Y-110791619D01*
D14*
X208280000Y-50165000D02*
X208280000Y-108585000D01*
X55245000Y-113030000D02*
G75*
G02*
X50800000Y-108585000I0J4445000D01*
G01*
X208280000Y-108585000D02*
G75*
G02*
X203835000Y-113030000I-4445000J0D01*
G01*
X203835000Y-45720000D02*
G75*
G02*
X208280000Y-50165000I0J-4445000D01*
G01*
X50800000Y-50165000D02*
G75*
G02*
X55245000Y-45720000I4445000J0D01*
G01*
X50800000Y-108585000D02*
X50800000Y-50165000D01*
X203835000Y-113030000D02*
X55245000Y-113030000D01*
X55245000Y-45720000D02*
X203835000Y-45720000D01*
D15*
X193440000Y-106505000D02*
X193440000Y-105005000D01*
X192190000Y-102505000D02*
X187690000Y-102505000D01*
X186440000Y-105005000D02*
X186440000Y-106505000D01*
X187690000Y-109005000D02*
X192190000Y-109005000D01*
X165500000Y-106505000D02*
X165500000Y-105005000D01*
X164250000Y-102505000D02*
X159750000Y-102505000D01*
X158500000Y-105005000D02*
X158500000Y-106505000D01*
X159750000Y-109005000D02*
X164250000Y-109005000D01*
X151530000Y-106505000D02*
X151530000Y-105005000D01*
X150280000Y-102505000D02*
X145780000Y-102505000D01*
X144530000Y-105005000D02*
X144530000Y-106505000D01*
X145780000Y-109005000D02*
X150280000Y-109005000D01*
X137560000Y-106505000D02*
X137560000Y-105005000D01*
X136310000Y-102505000D02*
X131810000Y-102505000D01*
X130560000Y-105005000D02*
X130560000Y-106505000D01*
X131810000Y-109005000D02*
X136310000Y-109005000D01*
X123590000Y-106505000D02*
X123590000Y-105005000D01*
X122340000Y-102505000D02*
X117840000Y-102505000D01*
X116590000Y-105005000D02*
X116590000Y-106505000D01*
X117840000Y-109005000D02*
X122340000Y-109005000D01*
X109620000Y-106505000D02*
X109620000Y-105005000D01*
X108370000Y-102505000D02*
X103870000Y-102505000D01*
X102620000Y-105005000D02*
X102620000Y-106505000D01*
X103870000Y-109005000D02*
X108370000Y-109005000D01*
X95650000Y-106505000D02*
X95650000Y-105005000D01*
X94400000Y-102505000D02*
X89900000Y-102505000D01*
X88650000Y-105005000D02*
X88650000Y-106505000D01*
X89900000Y-109005000D02*
X94400000Y-109005000D01*
X81680000Y-106505000D02*
X81680000Y-105005000D01*
X80430000Y-102505000D02*
X75930000Y-102505000D01*
X74680000Y-105005000D02*
X74680000Y-106505000D01*
X75930000Y-109005000D02*
X80430000Y-109005000D01*
X179470000Y-106505000D02*
X179470000Y-105005000D01*
X178220000Y-102505000D02*
X173720000Y-102505000D01*
X172470000Y-105005000D02*
X172470000Y-106505000D01*
X173720000Y-109005000D02*
X178220000Y-109005000D01*
X67710000Y-106505000D02*
X67710000Y-105005000D01*
X66460000Y-102505000D02*
X61960000Y-102505000D01*
X60710000Y-105005000D02*
X60710000Y-106505000D01*
X61960000Y-109005000D02*
X66460000Y-109005000D01*
X201060000Y-93170000D02*
X201060000Y-91670000D01*
X199810000Y-89170000D02*
X195310000Y-89170000D01*
X194060000Y-91670000D02*
X194060000Y-93170000D01*
X195310000Y-95670000D02*
X199810000Y-95670000D01*
X187090000Y-93170000D02*
X187090000Y-91670000D01*
X185840000Y-89170000D02*
X181340000Y-89170000D01*
X180090000Y-91670000D02*
X180090000Y-93170000D01*
X181340000Y-95670000D02*
X185840000Y-95670000D01*
X173120000Y-93170000D02*
X173120000Y-91670000D01*
X171870000Y-89170000D02*
X167370000Y-89170000D01*
X166120000Y-91670000D02*
X166120000Y-93170000D01*
X167370000Y-95670000D02*
X171870000Y-95670000D01*
X159150000Y-93170000D02*
X159150000Y-91670000D01*
X157900000Y-89170000D02*
X153400000Y-89170000D01*
X152150000Y-91670000D02*
X152150000Y-93170000D01*
X153400000Y-95670000D02*
X157900000Y-95670000D01*
X145180000Y-93170000D02*
X145180000Y-91670000D01*
X143930000Y-89170000D02*
X139430000Y-89170000D01*
X138180000Y-91670000D02*
X138180000Y-93170000D01*
X139430000Y-95670000D02*
X143930000Y-95670000D01*
X131210000Y-93170000D02*
X131210000Y-91670000D01*
X129960000Y-89170000D02*
X125460000Y-89170000D01*
X124210000Y-91670000D02*
X124210000Y-93170000D01*
X125460000Y-95670000D02*
X129960000Y-95670000D01*
X117240000Y-93170000D02*
X117240000Y-91670000D01*
X115990000Y-89170000D02*
X111490000Y-89170000D01*
X110240000Y-91670000D02*
X110240000Y-93170000D01*
X111490000Y-95670000D02*
X115990000Y-95670000D01*
X103270000Y-93170000D02*
X103270000Y-91670000D01*
X102020000Y-89170000D02*
X97520000Y-89170000D01*
X96270000Y-91670000D02*
X96270000Y-93170000D01*
X97520000Y-95670000D02*
X102020000Y-95670000D01*
X89300000Y-93170000D02*
X89300000Y-91670000D01*
X88050000Y-89170000D02*
X83550000Y-89170000D01*
X82300000Y-91670000D02*
X82300000Y-93170000D01*
X83550000Y-95670000D02*
X88050000Y-95670000D01*
X75330000Y-93170000D02*
X75330000Y-91670000D01*
X74080000Y-89170000D02*
X69580000Y-89170000D01*
X68330000Y-91670000D02*
X68330000Y-93170000D01*
X69580000Y-95670000D02*
X74080000Y-95670000D01*
X198520000Y-79835000D02*
X198520000Y-78335000D01*
X197270000Y-75835000D02*
X192770000Y-75835000D01*
X191520000Y-78335000D02*
X191520000Y-79835000D01*
X192770000Y-82335000D02*
X197270000Y-82335000D01*
X184550000Y-79835000D02*
X184550000Y-78335000D01*
X183300000Y-75835000D02*
X178800000Y-75835000D01*
X177550000Y-78335000D02*
X177550000Y-79835000D01*
X178800000Y-82335000D02*
X183300000Y-82335000D01*
X170580000Y-79835000D02*
X170580000Y-78335000D01*
X169330000Y-75835000D02*
X164830000Y-75835000D01*
X163580000Y-78335000D02*
X163580000Y-79835000D01*
X164830000Y-82335000D02*
X169330000Y-82335000D01*
X156610000Y-79835000D02*
X156610000Y-78335000D01*
X155360000Y-75835000D02*
X150860000Y-75835000D01*
X149610000Y-78335000D02*
X149610000Y-79835000D01*
X150860000Y-82335000D02*
X155360000Y-82335000D01*
X142640000Y-79835000D02*
X142640000Y-78335000D01*
X141390000Y-75835000D02*
X136890000Y-75835000D01*
X135640000Y-78335000D02*
X135640000Y-79835000D01*
X136890000Y-82335000D02*
X141390000Y-82335000D01*
X128670000Y-79835000D02*
X128670000Y-78335000D01*
X127420000Y-75835000D02*
X122920000Y-75835000D01*
X121670000Y-78335000D02*
X121670000Y-79835000D01*
X122920000Y-82335000D02*
X127420000Y-82335000D01*
X114700000Y-79835000D02*
X114700000Y-78335000D01*
X113450000Y-75835000D02*
X108950000Y-75835000D01*
X107700000Y-78335000D02*
X107700000Y-79835000D01*
X108950000Y-82335000D02*
X113450000Y-82335000D01*
X100730000Y-79835000D02*
X100730000Y-78335000D01*
X99480000Y-75835000D02*
X94980000Y-75835000D01*
X93730000Y-78335000D02*
X93730000Y-79835000D01*
X94980000Y-82335000D02*
X99480000Y-82335000D01*
X86760000Y-79835000D02*
X86760000Y-78335000D01*
X85510000Y-75835000D02*
X81010000Y-75835000D01*
X79760000Y-78335000D02*
X79760000Y-79835000D01*
X81010000Y-82335000D02*
X85510000Y-82335000D01*
X72790000Y-79835000D02*
X72790000Y-78335000D01*
X71540000Y-75835000D02*
X67040000Y-75835000D01*
X65790000Y-78335000D02*
X65790000Y-79835000D01*
X67040000Y-82335000D02*
X71540000Y-82335000D01*
X190900000Y-66500000D02*
X190900000Y-65000000D01*
X189650000Y-62500000D02*
X185150000Y-62500000D01*
X183900000Y-65000000D02*
X183900000Y-66500000D01*
X185150000Y-69000000D02*
X189650000Y-69000000D01*
X176930000Y-66500000D02*
X176930000Y-65000000D01*
X175680000Y-62500000D02*
X171180000Y-62500000D01*
X169930000Y-65000000D02*
X169930000Y-66500000D01*
X171180000Y-69000000D02*
X175680000Y-69000000D01*
X162960000Y-66500000D02*
X162960000Y-65000000D01*
X161710000Y-62500000D02*
X157210000Y-62500000D01*
X155960000Y-65000000D02*
X155960000Y-66500000D01*
X157210000Y-69000000D02*
X161710000Y-69000000D01*
X148990000Y-66500000D02*
X148990000Y-65000000D01*
X147740000Y-62500000D02*
X143240000Y-62500000D01*
X141990000Y-65000000D02*
X141990000Y-66500000D01*
X143240000Y-69000000D02*
X147740000Y-69000000D01*
X135020000Y-66500000D02*
X135020000Y-65000000D01*
X133770000Y-62500000D02*
X129270000Y-62500000D01*
X128020000Y-65000000D02*
X128020000Y-66500000D01*
X129270000Y-69000000D02*
X133770000Y-69000000D01*
X121050000Y-66500000D02*
X121050000Y-65000000D01*
X119800000Y-62500000D02*
X115300000Y-62500000D01*
X114050000Y-65000000D02*
X114050000Y-66500000D01*
X115300000Y-69000000D02*
X119800000Y-69000000D01*
X107080000Y-66500000D02*
X107080000Y-65000000D01*
X105830000Y-62500000D02*
X101330000Y-62500000D01*
X100080000Y-65000000D02*
X100080000Y-66500000D01*
X101330000Y-69000000D02*
X105830000Y-69000000D01*
X93110000Y-66500000D02*
X93110000Y-65000000D01*
X91860000Y-62500000D02*
X87360000Y-62500000D01*
X86110000Y-65000000D02*
X86110000Y-66500000D01*
X87360000Y-69000000D02*
X91860000Y-69000000D01*
X79140000Y-66500000D02*
X79140000Y-65000000D01*
X77890000Y-62500000D02*
X73390000Y-62500000D01*
X72140000Y-65000000D02*
X72140000Y-66500000D01*
X73390000Y-69000000D02*
X77890000Y-69000000D01*
X65170000Y-66500000D02*
X65170000Y-65000000D01*
X63920000Y-62500000D02*
X59420000Y-62500000D01*
X58170000Y-65000000D02*
X58170000Y-66500000D01*
X59420000Y-69000000D02*
X63920000Y-69000000D01*
X72255000Y-57385000D02*
X71755000Y-56385000D01*
X71255000Y-57385000D02*
X72255000Y-57385000D01*
X71755000Y-56385000D02*
X71255000Y-57385000D01*
X82695000Y-54685000D02*
X82695000Y-55995000D01*
X82695000Y-54685000D02*
X82695000Y-54685000D01*
X93445000Y-54685000D02*
X82695000Y-54685000D01*
X93445000Y-48185000D02*
X93445000Y-54685000D01*
X67845000Y-48185000D02*
X93445000Y-48185000D01*
X67845000Y-54685000D02*
X67845000Y-48185000D01*
X78595000Y-54685000D02*
X67845000Y-54685000D01*
X78595000Y-55995000D02*
X78595000Y-54685000D01*
X94745000Y-55995000D02*
X66545000Y-55995000D01*
X94745000Y-46875000D02*
X94745000Y-55995000D01*
X66545000Y-46875000D02*
X94745000Y-46875000D01*
X66545000Y-55995000D02*
X66545000Y-46875000D01*
X98163748Y-49605000D02*
X98686252Y-49605000D01*
X98163748Y-48185000D02*
X98686252Y-48185000D01*
X132000000Y-47760000D02*
X127940000Y-47760000D01*
X132000000Y-50030000D02*
X132000000Y-47760000D01*
X127940000Y-50030000D02*
X132000000Y-50030000D01*
D10*
X188130476Y-103909761D02*
X188273333Y-103957380D01*
X188511428Y-103957380D01*
X188606666Y-103909761D01*
X188654285Y-103862142D01*
X188701904Y-103766904D01*
X188701904Y-103671666D01*
X188654285Y-103576428D01*
X188606666Y-103528809D01*
X188511428Y-103481190D01*
X188320952Y-103433571D01*
X188225714Y-103385952D01*
X188178095Y-103338333D01*
X188130476Y-103243095D01*
X188130476Y-103147857D01*
X188178095Y-103052619D01*
X188225714Y-103005000D01*
X188320952Y-102957380D01*
X188559047Y-102957380D01*
X188701904Y-103005000D01*
X189035238Y-102957380D02*
X189273333Y-103957380D01*
X189463809Y-103243095D01*
X189654285Y-103957380D01*
X189892380Y-102957380D01*
X190701904Y-103290714D02*
X190701904Y-103957380D01*
X190463809Y-102909761D02*
X190225714Y-103624047D01*
X190844761Y-103624047D01*
X191416190Y-102957380D02*
X191511428Y-102957380D01*
X191606666Y-103005000D01*
X191654285Y-103052619D01*
X191701904Y-103147857D01*
X191749523Y-103338333D01*
X191749523Y-103576428D01*
X191701904Y-103766904D01*
X191654285Y-103862142D01*
X191606666Y-103909761D01*
X191511428Y-103957380D01*
X191416190Y-103957380D01*
X191320952Y-103909761D01*
X191273333Y-103862142D01*
X191225714Y-103766904D01*
X191178095Y-103576428D01*
X191178095Y-103338333D01*
X191225714Y-103147857D01*
X191273333Y-103052619D01*
X191320952Y-103005000D01*
X191416190Y-102957380D01*
D16*
X184473333Y-101544285D02*
X184830476Y-101687142D01*
X185425714Y-101687142D01*
X185663809Y-101544285D01*
X185782857Y-101401428D01*
X185901904Y-101115714D01*
X185901904Y-100830000D01*
X185782857Y-100544285D01*
X185663809Y-100401428D01*
X185425714Y-100258571D01*
X184949523Y-100115714D01*
X184711428Y-99972857D01*
X184592380Y-99830000D01*
X184473333Y-99544285D01*
X184473333Y-99258571D01*
X184592380Y-98972857D01*
X184711428Y-98830000D01*
X184949523Y-98687142D01*
X185544761Y-98687142D01*
X185901904Y-98830000D01*
X186973333Y-101687142D02*
X186973333Y-98687142D01*
X187925714Y-98687142D01*
X188163809Y-98830000D01*
X188282857Y-98972857D01*
X188401904Y-99258571D01*
X188401904Y-99687142D01*
X188282857Y-99972857D01*
X188163809Y-100115714D01*
X187925714Y-100258571D01*
X186973333Y-100258571D01*
X189354285Y-100830000D02*
X190544761Y-100830000D01*
X189116190Y-101687142D02*
X189949523Y-98687142D01*
X190782857Y-101687142D01*
X193044761Y-101401428D02*
X192925714Y-101544285D01*
X192568571Y-101687142D01*
X192330476Y-101687142D01*
X191973333Y-101544285D01*
X191735238Y-101258571D01*
X191616190Y-100972857D01*
X191497142Y-100401428D01*
X191497142Y-99972857D01*
X191616190Y-99401428D01*
X191735238Y-99115714D01*
X191973333Y-98830000D01*
X192330476Y-98687142D01*
X192568571Y-98687142D01*
X192925714Y-98830000D01*
X193044761Y-98972857D01*
X194116190Y-100115714D02*
X194949523Y-100115714D01*
X195306666Y-101687142D02*
X194116190Y-101687142D01*
X194116190Y-98687142D01*
X195306666Y-98687142D01*
D10*
X160190476Y-103909761D02*
X160333333Y-103957380D01*
X160571428Y-103957380D01*
X160666666Y-103909761D01*
X160714285Y-103862142D01*
X160761904Y-103766904D01*
X160761904Y-103671666D01*
X160714285Y-103576428D01*
X160666666Y-103528809D01*
X160571428Y-103481190D01*
X160380952Y-103433571D01*
X160285714Y-103385952D01*
X160238095Y-103338333D01*
X160190476Y-103243095D01*
X160190476Y-103147857D01*
X160238095Y-103052619D01*
X160285714Y-103005000D01*
X160380952Y-102957380D01*
X160619047Y-102957380D01*
X160761904Y-103005000D01*
X161095238Y-102957380D02*
X161333333Y-103957380D01*
X161523809Y-103243095D01*
X161714285Y-103957380D01*
X161952380Y-102957380D01*
X162238095Y-102957380D02*
X162857142Y-102957380D01*
X162523809Y-103338333D01*
X162666666Y-103338333D01*
X162761904Y-103385952D01*
X162809523Y-103433571D01*
X162857142Y-103528809D01*
X162857142Y-103766904D01*
X162809523Y-103862142D01*
X162761904Y-103909761D01*
X162666666Y-103957380D01*
X162380952Y-103957380D01*
X162285714Y-103909761D01*
X162238095Y-103862142D01*
X163333333Y-103957380D02*
X163523809Y-103957380D01*
X163619047Y-103909761D01*
X163666666Y-103862142D01*
X163761904Y-103719285D01*
X163809523Y-103528809D01*
X163809523Y-103147857D01*
X163761904Y-103052619D01*
X163714285Y-103005000D01*
X163619047Y-102957380D01*
X163428571Y-102957380D01*
X163333333Y-103005000D01*
X163285714Y-103052619D01*
X163238095Y-103147857D01*
X163238095Y-103385952D01*
X163285714Y-103481190D01*
X163333333Y-103528809D01*
X163428571Y-103576428D01*
X163619047Y-103576428D01*
X163714285Y-103528809D01*
X163761904Y-103481190D01*
X163809523Y-103385952D01*
D17*
X160950000Y-101687142D02*
X160950000Y-98687142D01*
X161950000Y-100830000D01*
X162950000Y-98687142D01*
X162950000Y-101687142D01*
D10*
X146220476Y-103909761D02*
X146363333Y-103957380D01*
X146601428Y-103957380D01*
X146696666Y-103909761D01*
X146744285Y-103862142D01*
X146791904Y-103766904D01*
X146791904Y-103671666D01*
X146744285Y-103576428D01*
X146696666Y-103528809D01*
X146601428Y-103481190D01*
X146410952Y-103433571D01*
X146315714Y-103385952D01*
X146268095Y-103338333D01*
X146220476Y-103243095D01*
X146220476Y-103147857D01*
X146268095Y-103052619D01*
X146315714Y-103005000D01*
X146410952Y-102957380D01*
X146649047Y-102957380D01*
X146791904Y-103005000D01*
X147125238Y-102957380D02*
X147363333Y-103957380D01*
X147553809Y-103243095D01*
X147744285Y-103957380D01*
X147982380Y-102957380D01*
X148268095Y-102957380D02*
X148887142Y-102957380D01*
X148553809Y-103338333D01*
X148696666Y-103338333D01*
X148791904Y-103385952D01*
X148839523Y-103433571D01*
X148887142Y-103528809D01*
X148887142Y-103766904D01*
X148839523Y-103862142D01*
X148791904Y-103909761D01*
X148696666Y-103957380D01*
X148410952Y-103957380D01*
X148315714Y-103909761D01*
X148268095Y-103862142D01*
X149458571Y-103385952D02*
X149363333Y-103338333D01*
X149315714Y-103290714D01*
X149268095Y-103195476D01*
X149268095Y-103147857D01*
X149315714Y-103052619D01*
X149363333Y-103005000D01*
X149458571Y-102957380D01*
X149649047Y-102957380D01*
X149744285Y-103005000D01*
X149791904Y-103052619D01*
X149839523Y-103147857D01*
X149839523Y-103195476D01*
X149791904Y-103290714D01*
X149744285Y-103338333D01*
X149649047Y-103385952D01*
X149458571Y-103385952D01*
X149363333Y-103433571D01*
X149315714Y-103481190D01*
X149268095Y-103576428D01*
X149268095Y-103766904D01*
X149315714Y-103862142D01*
X149363333Y-103909761D01*
X149458571Y-103957380D01*
X149649047Y-103957380D01*
X149744285Y-103909761D01*
X149791904Y-103862142D01*
X149839523Y-103766904D01*
X149839523Y-103576428D01*
X149791904Y-103481190D01*
X149744285Y-103433571D01*
X149649047Y-103385952D01*
D17*
X147097857Y-101687142D02*
X147097857Y-98687142D01*
X148812142Y-101687142D01*
X148812142Y-98687142D01*
D10*
X132250476Y-103909761D02*
X132393333Y-103957380D01*
X132631428Y-103957380D01*
X132726666Y-103909761D01*
X132774285Y-103862142D01*
X132821904Y-103766904D01*
X132821904Y-103671666D01*
X132774285Y-103576428D01*
X132726666Y-103528809D01*
X132631428Y-103481190D01*
X132440952Y-103433571D01*
X132345714Y-103385952D01*
X132298095Y-103338333D01*
X132250476Y-103243095D01*
X132250476Y-103147857D01*
X132298095Y-103052619D01*
X132345714Y-103005000D01*
X132440952Y-102957380D01*
X132679047Y-102957380D01*
X132821904Y-103005000D01*
X133155238Y-102957380D02*
X133393333Y-103957380D01*
X133583809Y-103243095D01*
X133774285Y-103957380D01*
X134012380Y-102957380D01*
X134298095Y-102957380D02*
X134917142Y-102957380D01*
X134583809Y-103338333D01*
X134726666Y-103338333D01*
X134821904Y-103385952D01*
X134869523Y-103433571D01*
X134917142Y-103528809D01*
X134917142Y-103766904D01*
X134869523Y-103862142D01*
X134821904Y-103909761D01*
X134726666Y-103957380D01*
X134440952Y-103957380D01*
X134345714Y-103909761D01*
X134298095Y-103862142D01*
X135250476Y-102957380D02*
X135917142Y-102957380D01*
X135488571Y-103957380D01*
D17*
X134199285Y-100115714D02*
X134627857Y-100258571D01*
X134770714Y-100401428D01*
X134913571Y-100687142D01*
X134913571Y-101115714D01*
X134770714Y-101401428D01*
X134627857Y-101544285D01*
X134342142Y-101687142D01*
X133199285Y-101687142D01*
X133199285Y-98687142D01*
X134199285Y-98687142D01*
X134485000Y-98830000D01*
X134627857Y-98972857D01*
X134770714Y-99258571D01*
X134770714Y-99544285D01*
X134627857Y-99830000D01*
X134485000Y-99972857D01*
X134199285Y-100115714D01*
X133199285Y-100115714D01*
D10*
X118280476Y-103909761D02*
X118423333Y-103957380D01*
X118661428Y-103957380D01*
X118756666Y-103909761D01*
X118804285Y-103862142D01*
X118851904Y-103766904D01*
X118851904Y-103671666D01*
X118804285Y-103576428D01*
X118756666Y-103528809D01*
X118661428Y-103481190D01*
X118470952Y-103433571D01*
X118375714Y-103385952D01*
X118328095Y-103338333D01*
X118280476Y-103243095D01*
X118280476Y-103147857D01*
X118328095Y-103052619D01*
X118375714Y-103005000D01*
X118470952Y-102957380D01*
X118709047Y-102957380D01*
X118851904Y-103005000D01*
X119185238Y-102957380D02*
X119423333Y-103957380D01*
X119613809Y-103243095D01*
X119804285Y-103957380D01*
X120042380Y-102957380D01*
X120328095Y-102957380D02*
X120947142Y-102957380D01*
X120613809Y-103338333D01*
X120756666Y-103338333D01*
X120851904Y-103385952D01*
X120899523Y-103433571D01*
X120947142Y-103528809D01*
X120947142Y-103766904D01*
X120899523Y-103862142D01*
X120851904Y-103909761D01*
X120756666Y-103957380D01*
X120470952Y-103957380D01*
X120375714Y-103909761D01*
X120328095Y-103862142D01*
X121804285Y-102957380D02*
X121613809Y-102957380D01*
X121518571Y-103005000D01*
X121470952Y-103052619D01*
X121375714Y-103195476D01*
X121328095Y-103385952D01*
X121328095Y-103766904D01*
X121375714Y-103862142D01*
X121423333Y-103909761D01*
X121518571Y-103957380D01*
X121709047Y-103957380D01*
X121804285Y-103909761D01*
X121851904Y-103862142D01*
X121899523Y-103766904D01*
X121899523Y-103528809D01*
X121851904Y-103433571D01*
X121804285Y-103385952D01*
X121709047Y-103338333D01*
X121518571Y-103338333D01*
X121423333Y-103385952D01*
X121375714Y-103433571D01*
X121328095Y-103528809D01*
D17*
X119040000Y-98687142D02*
X120040000Y-101687142D01*
X121040000Y-98687142D01*
D10*
X104310476Y-103909761D02*
X104453333Y-103957380D01*
X104691428Y-103957380D01*
X104786666Y-103909761D01*
X104834285Y-103862142D01*
X104881904Y-103766904D01*
X104881904Y-103671666D01*
X104834285Y-103576428D01*
X104786666Y-103528809D01*
X104691428Y-103481190D01*
X104500952Y-103433571D01*
X104405714Y-103385952D01*
X104358095Y-103338333D01*
X104310476Y-103243095D01*
X104310476Y-103147857D01*
X104358095Y-103052619D01*
X104405714Y-103005000D01*
X104500952Y-102957380D01*
X104739047Y-102957380D01*
X104881904Y-103005000D01*
X105215238Y-102957380D02*
X105453333Y-103957380D01*
X105643809Y-103243095D01*
X105834285Y-103957380D01*
X106072380Y-102957380D01*
X106358095Y-102957380D02*
X106977142Y-102957380D01*
X106643809Y-103338333D01*
X106786666Y-103338333D01*
X106881904Y-103385952D01*
X106929523Y-103433571D01*
X106977142Y-103528809D01*
X106977142Y-103766904D01*
X106929523Y-103862142D01*
X106881904Y-103909761D01*
X106786666Y-103957380D01*
X106500952Y-103957380D01*
X106405714Y-103909761D01*
X106358095Y-103862142D01*
X107881904Y-102957380D02*
X107405714Y-102957380D01*
X107358095Y-103433571D01*
X107405714Y-103385952D01*
X107500952Y-103338333D01*
X107739047Y-103338333D01*
X107834285Y-103385952D01*
X107881904Y-103433571D01*
X107929523Y-103528809D01*
X107929523Y-103766904D01*
X107881904Y-103862142D01*
X107834285Y-103909761D01*
X107739047Y-103957380D01*
X107500952Y-103957380D01*
X107405714Y-103909761D01*
X107358095Y-103862142D01*
D17*
X106973571Y-101401428D02*
X106830714Y-101544285D01*
X106402142Y-101687142D01*
X106116428Y-101687142D01*
X105687857Y-101544285D01*
X105402142Y-101258571D01*
X105259285Y-100972857D01*
X105116428Y-100401428D01*
X105116428Y-99972857D01*
X105259285Y-99401428D01*
X105402142Y-99115714D01*
X105687857Y-98830000D01*
X106116428Y-98687142D01*
X106402142Y-98687142D01*
X106830714Y-98830000D01*
X106973571Y-98972857D01*
D10*
X90340476Y-103909761D02*
X90483333Y-103957380D01*
X90721428Y-103957380D01*
X90816666Y-103909761D01*
X90864285Y-103862142D01*
X90911904Y-103766904D01*
X90911904Y-103671666D01*
X90864285Y-103576428D01*
X90816666Y-103528809D01*
X90721428Y-103481190D01*
X90530952Y-103433571D01*
X90435714Y-103385952D01*
X90388095Y-103338333D01*
X90340476Y-103243095D01*
X90340476Y-103147857D01*
X90388095Y-103052619D01*
X90435714Y-103005000D01*
X90530952Y-102957380D01*
X90769047Y-102957380D01*
X90911904Y-103005000D01*
X91245238Y-102957380D02*
X91483333Y-103957380D01*
X91673809Y-103243095D01*
X91864285Y-103957380D01*
X92102380Y-102957380D01*
X92388095Y-102957380D02*
X93007142Y-102957380D01*
X92673809Y-103338333D01*
X92816666Y-103338333D01*
X92911904Y-103385952D01*
X92959523Y-103433571D01*
X93007142Y-103528809D01*
X93007142Y-103766904D01*
X92959523Y-103862142D01*
X92911904Y-103909761D01*
X92816666Y-103957380D01*
X92530952Y-103957380D01*
X92435714Y-103909761D01*
X92388095Y-103862142D01*
X93864285Y-103290714D02*
X93864285Y-103957380D01*
X93626190Y-102909761D02*
X93388095Y-103624047D01*
X94007142Y-103624047D01*
D17*
X91075000Y-98687142D02*
X93075000Y-101687142D01*
X93075000Y-98687142D02*
X91075000Y-101687142D01*
D10*
X76370476Y-103909761D02*
X76513333Y-103957380D01*
X76751428Y-103957380D01*
X76846666Y-103909761D01*
X76894285Y-103862142D01*
X76941904Y-103766904D01*
X76941904Y-103671666D01*
X76894285Y-103576428D01*
X76846666Y-103528809D01*
X76751428Y-103481190D01*
X76560952Y-103433571D01*
X76465714Y-103385952D01*
X76418095Y-103338333D01*
X76370476Y-103243095D01*
X76370476Y-103147857D01*
X76418095Y-103052619D01*
X76465714Y-103005000D01*
X76560952Y-102957380D01*
X76799047Y-102957380D01*
X76941904Y-103005000D01*
X77275238Y-102957380D02*
X77513333Y-103957380D01*
X77703809Y-103243095D01*
X77894285Y-103957380D01*
X78132380Y-102957380D01*
X78418095Y-102957380D02*
X79037142Y-102957380D01*
X78703809Y-103338333D01*
X78846666Y-103338333D01*
X78941904Y-103385952D01*
X78989523Y-103433571D01*
X79037142Y-103528809D01*
X79037142Y-103766904D01*
X78989523Y-103862142D01*
X78941904Y-103909761D01*
X78846666Y-103957380D01*
X78560952Y-103957380D01*
X78465714Y-103909761D01*
X78418095Y-103862142D01*
X79370476Y-102957380D02*
X79989523Y-102957380D01*
X79656190Y-103338333D01*
X79799047Y-103338333D01*
X79894285Y-103385952D01*
X79941904Y-103433571D01*
X79989523Y-103528809D01*
X79989523Y-103766904D01*
X79941904Y-103862142D01*
X79894285Y-103909761D01*
X79799047Y-103957380D01*
X79513333Y-103957380D01*
X79418095Y-103909761D01*
X79370476Y-103862142D01*
D17*
X77105000Y-98687142D02*
X79105000Y-98687142D01*
X77105000Y-101687142D01*
X79105000Y-101687142D01*
D10*
X174160476Y-103909761D02*
X174303333Y-103957380D01*
X174541428Y-103957380D01*
X174636666Y-103909761D01*
X174684285Y-103862142D01*
X174731904Y-103766904D01*
X174731904Y-103671666D01*
X174684285Y-103576428D01*
X174636666Y-103528809D01*
X174541428Y-103481190D01*
X174350952Y-103433571D01*
X174255714Y-103385952D01*
X174208095Y-103338333D01*
X174160476Y-103243095D01*
X174160476Y-103147857D01*
X174208095Y-103052619D01*
X174255714Y-103005000D01*
X174350952Y-102957380D01*
X174589047Y-102957380D01*
X174731904Y-103005000D01*
X175065238Y-102957380D02*
X175303333Y-103957380D01*
X175493809Y-103243095D01*
X175684285Y-103957380D01*
X175922380Y-102957380D01*
X176208095Y-102957380D02*
X176827142Y-102957380D01*
X176493809Y-103338333D01*
X176636666Y-103338333D01*
X176731904Y-103385952D01*
X176779523Y-103433571D01*
X176827142Y-103528809D01*
X176827142Y-103766904D01*
X176779523Y-103862142D01*
X176731904Y-103909761D01*
X176636666Y-103957380D01*
X176350952Y-103957380D01*
X176255714Y-103909761D01*
X176208095Y-103862142D01*
X177208095Y-103052619D02*
X177255714Y-103005000D01*
X177350952Y-102957380D01*
X177589047Y-102957380D01*
X177684285Y-103005000D01*
X177731904Y-103052619D01*
X177779523Y-103147857D01*
X177779523Y-103243095D01*
X177731904Y-103385952D01*
X177160476Y-103957380D01*
X177779523Y-103957380D01*
D16*
X170593428Y-101671285D02*
X170879142Y-101814142D01*
X171355333Y-101814142D01*
X171545809Y-101671285D01*
X171641047Y-101528428D01*
X171736285Y-101242714D01*
X171736285Y-100957000D01*
X171641047Y-100671285D01*
X171545809Y-100528428D01*
X171355333Y-100385571D01*
X170974380Y-100242714D01*
X170783904Y-100099857D01*
X170688666Y-99957000D01*
X170593428Y-99671285D01*
X170593428Y-99385571D01*
X170688666Y-99099857D01*
X170783904Y-98957000D01*
X170974380Y-98814142D01*
X171450571Y-98814142D01*
X171736285Y-98957000D01*
X172974380Y-100385571D02*
X172974380Y-101814142D01*
X172307714Y-98814142D02*
X172974380Y-100385571D01*
X173641047Y-98814142D01*
X174307714Y-101814142D02*
X174307714Y-98814142D01*
X174974380Y-100957000D01*
X175641047Y-98814142D01*
X175641047Y-101814142D01*
X177260095Y-100242714D02*
X177545809Y-100385571D01*
X177641047Y-100528428D01*
X177736285Y-100814142D01*
X177736285Y-101242714D01*
X177641047Y-101528428D01*
X177545809Y-101671285D01*
X177355333Y-101814142D01*
X176593428Y-101814142D01*
X176593428Y-98814142D01*
X177260095Y-98814142D01*
X177450571Y-98957000D01*
X177545809Y-99099857D01*
X177641047Y-99385571D01*
X177641047Y-99671285D01*
X177545809Y-99957000D01*
X177450571Y-100099857D01*
X177260095Y-100242714D01*
X176593428Y-100242714D01*
X178974380Y-98814142D02*
X179355333Y-98814142D01*
X179545809Y-98957000D01*
X179736285Y-99242714D01*
X179831523Y-99814142D01*
X179831523Y-100814142D01*
X179736285Y-101385571D01*
X179545809Y-101671285D01*
X179355333Y-101814142D01*
X178974380Y-101814142D01*
X178783904Y-101671285D01*
X178593428Y-101385571D01*
X178498190Y-100814142D01*
X178498190Y-99814142D01*
X178593428Y-99242714D01*
X178783904Y-98957000D01*
X178974380Y-98814142D01*
X181641047Y-101814142D02*
X180688666Y-101814142D01*
X180688666Y-98814142D01*
D10*
X62400476Y-103909761D02*
X62543333Y-103957380D01*
X62781428Y-103957380D01*
X62876666Y-103909761D01*
X62924285Y-103862142D01*
X62971904Y-103766904D01*
X62971904Y-103671666D01*
X62924285Y-103576428D01*
X62876666Y-103528809D01*
X62781428Y-103481190D01*
X62590952Y-103433571D01*
X62495714Y-103385952D01*
X62448095Y-103338333D01*
X62400476Y-103243095D01*
X62400476Y-103147857D01*
X62448095Y-103052619D01*
X62495714Y-103005000D01*
X62590952Y-102957380D01*
X62829047Y-102957380D01*
X62971904Y-103005000D01*
X63305238Y-102957380D02*
X63543333Y-103957380D01*
X63733809Y-103243095D01*
X63924285Y-103957380D01*
X64162380Y-102957380D01*
X64448095Y-102957380D02*
X65067142Y-102957380D01*
X64733809Y-103338333D01*
X64876666Y-103338333D01*
X64971904Y-103385952D01*
X65019523Y-103433571D01*
X65067142Y-103528809D01*
X65067142Y-103766904D01*
X65019523Y-103862142D01*
X64971904Y-103909761D01*
X64876666Y-103957380D01*
X64590952Y-103957380D01*
X64495714Y-103909761D01*
X64448095Y-103862142D01*
X66019523Y-103957380D02*
X65448095Y-103957380D01*
X65733809Y-103957380D02*
X65733809Y-102957380D01*
X65638571Y-103100238D01*
X65543333Y-103195476D01*
X65448095Y-103243095D01*
D16*
X59492142Y-101544285D02*
X59849285Y-101687142D01*
X60444523Y-101687142D01*
X60682619Y-101544285D01*
X60801666Y-101401428D01*
X60920714Y-101115714D01*
X60920714Y-100830000D01*
X60801666Y-100544285D01*
X60682619Y-100401428D01*
X60444523Y-100258571D01*
X59968333Y-100115714D01*
X59730238Y-99972857D01*
X59611190Y-99830000D01*
X59492142Y-99544285D01*
X59492142Y-99258571D01*
X59611190Y-98972857D01*
X59730238Y-98830000D01*
X59968333Y-98687142D01*
X60563571Y-98687142D01*
X60920714Y-98830000D01*
X61992142Y-101687142D02*
X61992142Y-98687142D01*
X61992142Y-100115714D02*
X63420714Y-100115714D01*
X63420714Y-101687142D02*
X63420714Y-98687142D01*
X64611190Y-101687142D02*
X64611190Y-98687142D01*
X66635000Y-100115714D02*
X65801666Y-100115714D01*
X65801666Y-101687142D02*
X65801666Y-98687142D01*
X66992142Y-98687142D01*
X67587380Y-98687142D02*
X69015952Y-98687142D01*
X68301666Y-101687142D02*
X68301666Y-98687142D01*
D10*
X195750476Y-90574761D02*
X195893333Y-90622380D01*
X196131428Y-90622380D01*
X196226666Y-90574761D01*
X196274285Y-90527142D01*
X196321904Y-90431904D01*
X196321904Y-90336666D01*
X196274285Y-90241428D01*
X196226666Y-90193809D01*
X196131428Y-90146190D01*
X195940952Y-90098571D01*
X195845714Y-90050952D01*
X195798095Y-90003333D01*
X195750476Y-89908095D01*
X195750476Y-89812857D01*
X195798095Y-89717619D01*
X195845714Y-89670000D01*
X195940952Y-89622380D01*
X196179047Y-89622380D01*
X196321904Y-89670000D01*
X196655238Y-89622380D02*
X196893333Y-90622380D01*
X197083809Y-89908095D01*
X197274285Y-90622380D01*
X197512380Y-89622380D01*
X197798095Y-89622380D02*
X198417142Y-89622380D01*
X198083809Y-90003333D01*
X198226666Y-90003333D01*
X198321904Y-90050952D01*
X198369523Y-90098571D01*
X198417142Y-90193809D01*
X198417142Y-90431904D01*
X198369523Y-90527142D01*
X198321904Y-90574761D01*
X198226666Y-90622380D01*
X197940952Y-90622380D01*
X197845714Y-90574761D01*
X197798095Y-90527142D01*
X199036190Y-89622380D02*
X199131428Y-89622380D01*
X199226666Y-89670000D01*
X199274285Y-89717619D01*
X199321904Y-89812857D01*
X199369523Y-90003333D01*
X199369523Y-90241428D01*
X199321904Y-90431904D01*
X199274285Y-90527142D01*
X199226666Y-90574761D01*
X199131428Y-90622380D01*
X199036190Y-90622380D01*
X198940952Y-90574761D01*
X198893333Y-90527142D01*
X198845714Y-90431904D01*
X198798095Y-90241428D01*
X198798095Y-90003333D01*
X198845714Y-89812857D01*
X198893333Y-89717619D01*
X198940952Y-89670000D01*
X199036190Y-89622380D01*
D16*
X192306428Y-86780714D02*
X193139761Y-86780714D01*
X193496904Y-88352142D02*
X192306428Y-88352142D01*
X192306428Y-85352142D01*
X193496904Y-85352142D01*
X194568333Y-88352142D02*
X194568333Y-85352142D01*
X195996904Y-88352142D01*
X195996904Y-85352142D01*
X196830238Y-85352142D02*
X198258809Y-85352142D01*
X197544523Y-88352142D02*
X197544523Y-85352142D01*
X199092142Y-86780714D02*
X199925476Y-86780714D01*
X200282619Y-88352142D02*
X199092142Y-88352142D01*
X199092142Y-85352142D01*
X200282619Y-85352142D01*
X202782619Y-88352142D02*
X201949285Y-86923571D01*
X201354047Y-88352142D02*
X201354047Y-85352142D01*
X202306428Y-85352142D01*
X202544523Y-85495000D01*
X202663571Y-85637857D01*
X202782619Y-85923571D01*
X202782619Y-86352142D01*
X202663571Y-86637857D01*
X202544523Y-86780714D01*
X202306428Y-86923571D01*
X201354047Y-86923571D01*
D10*
X181780476Y-90574761D02*
X181923333Y-90622380D01*
X182161428Y-90622380D01*
X182256666Y-90574761D01*
X182304285Y-90527142D01*
X182351904Y-90431904D01*
X182351904Y-90336666D01*
X182304285Y-90241428D01*
X182256666Y-90193809D01*
X182161428Y-90146190D01*
X181970952Y-90098571D01*
X181875714Y-90050952D01*
X181828095Y-90003333D01*
X181780476Y-89908095D01*
X181780476Y-89812857D01*
X181828095Y-89717619D01*
X181875714Y-89670000D01*
X181970952Y-89622380D01*
X182209047Y-89622380D01*
X182351904Y-89670000D01*
X182685238Y-89622380D02*
X182923333Y-90622380D01*
X183113809Y-89908095D01*
X183304285Y-90622380D01*
X183542380Y-89622380D01*
X183875714Y-89717619D02*
X183923333Y-89670000D01*
X184018571Y-89622380D01*
X184256666Y-89622380D01*
X184351904Y-89670000D01*
X184399523Y-89717619D01*
X184447142Y-89812857D01*
X184447142Y-89908095D01*
X184399523Y-90050952D01*
X183828095Y-90622380D01*
X184447142Y-90622380D01*
X184923333Y-90622380D02*
X185113809Y-90622380D01*
X185209047Y-90574761D01*
X185256666Y-90527142D01*
X185351904Y-90384285D01*
X185399523Y-90193809D01*
X185399523Y-89812857D01*
X185351904Y-89717619D01*
X185304285Y-89670000D01*
X185209047Y-89622380D01*
X185018571Y-89622380D01*
X184923333Y-89670000D01*
X184875714Y-89717619D01*
X184828095Y-89812857D01*
X184828095Y-90050952D01*
X184875714Y-90146190D01*
X184923333Y-90193809D01*
X185018571Y-90241428D01*
X185209047Y-90241428D01*
X185304285Y-90193809D01*
X185351904Y-90146190D01*
X185399523Y-90050952D01*
D17*
X184443571Y-88352142D02*
X183015000Y-88352142D01*
X183015000Y-85352142D01*
D10*
X167735476Y-90574761D02*
X167878333Y-90622380D01*
X168116428Y-90622380D01*
X168211666Y-90574761D01*
X168259285Y-90527142D01*
X168306904Y-90431904D01*
X168306904Y-90336666D01*
X168259285Y-90241428D01*
X168211666Y-90193809D01*
X168116428Y-90146190D01*
X167925952Y-90098571D01*
X167830714Y-90050952D01*
X167783095Y-90003333D01*
X167735476Y-89908095D01*
X167735476Y-89812857D01*
X167783095Y-89717619D01*
X167830714Y-89670000D01*
X167925952Y-89622380D01*
X168164047Y-89622380D01*
X168306904Y-89670000D01*
X168640238Y-89622380D02*
X168878333Y-90622380D01*
X169068809Y-89908095D01*
X169259285Y-90622380D01*
X169497380Y-89622380D01*
X169830714Y-89717619D02*
X169878333Y-89670000D01*
X169973571Y-89622380D01*
X170211666Y-89622380D01*
X170306904Y-89670000D01*
X170354523Y-89717619D01*
X170402142Y-89812857D01*
X170402142Y-89908095D01*
X170354523Y-90050952D01*
X169783095Y-90622380D01*
X170402142Y-90622380D01*
X170973571Y-90050952D02*
X170878333Y-90003333D01*
X170830714Y-89955714D01*
X170783095Y-89860476D01*
X170783095Y-89812857D01*
X170830714Y-89717619D01*
X170878333Y-89670000D01*
X170973571Y-89622380D01*
X171164047Y-89622380D01*
X171259285Y-89670000D01*
X171306904Y-89717619D01*
X171354523Y-89812857D01*
X171354523Y-89860476D01*
X171306904Y-89955714D01*
X171259285Y-90003333D01*
X171164047Y-90050952D01*
X170973571Y-90050952D01*
X170878333Y-90098571D01*
X170830714Y-90146190D01*
X170783095Y-90241428D01*
X170783095Y-90431904D01*
X170830714Y-90527142D01*
X170878333Y-90574761D01*
X170973571Y-90622380D01*
X171164047Y-90622380D01*
X171259285Y-90574761D01*
X171306904Y-90527142D01*
X171354523Y-90431904D01*
X171354523Y-90241428D01*
X171306904Y-90146190D01*
X171259285Y-90098571D01*
X171164047Y-90050952D01*
D17*
X168759285Y-88352142D02*
X168759285Y-85352142D01*
X170473571Y-88352142D02*
X169187857Y-86637857D01*
X170473571Y-85352142D02*
X168759285Y-87066428D01*
D10*
X153840476Y-90574761D02*
X153983333Y-90622380D01*
X154221428Y-90622380D01*
X154316666Y-90574761D01*
X154364285Y-90527142D01*
X154411904Y-90431904D01*
X154411904Y-90336666D01*
X154364285Y-90241428D01*
X154316666Y-90193809D01*
X154221428Y-90146190D01*
X154030952Y-90098571D01*
X153935714Y-90050952D01*
X153888095Y-90003333D01*
X153840476Y-89908095D01*
X153840476Y-89812857D01*
X153888095Y-89717619D01*
X153935714Y-89670000D01*
X154030952Y-89622380D01*
X154269047Y-89622380D01*
X154411904Y-89670000D01*
X154745238Y-89622380D02*
X154983333Y-90622380D01*
X155173809Y-89908095D01*
X155364285Y-90622380D01*
X155602380Y-89622380D01*
X155935714Y-89717619D02*
X155983333Y-89670000D01*
X156078571Y-89622380D01*
X156316666Y-89622380D01*
X156411904Y-89670000D01*
X156459523Y-89717619D01*
X156507142Y-89812857D01*
X156507142Y-89908095D01*
X156459523Y-90050952D01*
X155888095Y-90622380D01*
X156507142Y-90622380D01*
X156840476Y-89622380D02*
X157507142Y-89622380D01*
X157078571Y-90622380D01*
D17*
X156003571Y-85352142D02*
X156003571Y-87495000D01*
X155860714Y-87923571D01*
X155575000Y-88209285D01*
X155146428Y-88352142D01*
X154860714Y-88352142D01*
D10*
X139795476Y-90574761D02*
X139938333Y-90622380D01*
X140176428Y-90622380D01*
X140271666Y-90574761D01*
X140319285Y-90527142D01*
X140366904Y-90431904D01*
X140366904Y-90336666D01*
X140319285Y-90241428D01*
X140271666Y-90193809D01*
X140176428Y-90146190D01*
X139985952Y-90098571D01*
X139890714Y-90050952D01*
X139843095Y-90003333D01*
X139795476Y-89908095D01*
X139795476Y-89812857D01*
X139843095Y-89717619D01*
X139890714Y-89670000D01*
X139985952Y-89622380D01*
X140224047Y-89622380D01*
X140366904Y-89670000D01*
X140700238Y-89622380D02*
X140938333Y-90622380D01*
X141128809Y-89908095D01*
X141319285Y-90622380D01*
X141557380Y-89622380D01*
X141890714Y-89717619D02*
X141938333Y-89670000D01*
X142033571Y-89622380D01*
X142271666Y-89622380D01*
X142366904Y-89670000D01*
X142414523Y-89717619D01*
X142462142Y-89812857D01*
X142462142Y-89908095D01*
X142414523Y-90050952D01*
X141843095Y-90622380D01*
X142462142Y-90622380D01*
X143319285Y-89622380D02*
X143128809Y-89622380D01*
X143033571Y-89670000D01*
X142985952Y-89717619D01*
X142890714Y-89860476D01*
X142843095Y-90050952D01*
X142843095Y-90431904D01*
X142890714Y-90527142D01*
X142938333Y-90574761D01*
X143033571Y-90622380D01*
X143224047Y-90622380D01*
X143319285Y-90574761D01*
X143366904Y-90527142D01*
X143414523Y-90431904D01*
X143414523Y-90193809D01*
X143366904Y-90098571D01*
X143319285Y-90050952D01*
X143224047Y-90003333D01*
X143033571Y-90003333D01*
X142938333Y-90050952D01*
X142890714Y-90098571D01*
X142843095Y-90193809D01*
D17*
X140747857Y-88352142D02*
X140747857Y-85352142D01*
X140747857Y-86780714D02*
X142462142Y-86780714D01*
X142462142Y-88352142D02*
X142462142Y-85352142D01*
D10*
X125900476Y-90574761D02*
X126043333Y-90622380D01*
X126281428Y-90622380D01*
X126376666Y-90574761D01*
X126424285Y-90527142D01*
X126471904Y-90431904D01*
X126471904Y-90336666D01*
X126424285Y-90241428D01*
X126376666Y-90193809D01*
X126281428Y-90146190D01*
X126090952Y-90098571D01*
X125995714Y-90050952D01*
X125948095Y-90003333D01*
X125900476Y-89908095D01*
X125900476Y-89812857D01*
X125948095Y-89717619D01*
X125995714Y-89670000D01*
X126090952Y-89622380D01*
X126329047Y-89622380D01*
X126471904Y-89670000D01*
X126805238Y-89622380D02*
X127043333Y-90622380D01*
X127233809Y-89908095D01*
X127424285Y-90622380D01*
X127662380Y-89622380D01*
X127995714Y-89717619D02*
X128043333Y-89670000D01*
X128138571Y-89622380D01*
X128376666Y-89622380D01*
X128471904Y-89670000D01*
X128519523Y-89717619D01*
X128567142Y-89812857D01*
X128567142Y-89908095D01*
X128519523Y-90050952D01*
X127948095Y-90622380D01*
X128567142Y-90622380D01*
X129471904Y-89622380D02*
X128995714Y-89622380D01*
X128948095Y-90098571D01*
X128995714Y-90050952D01*
X129090952Y-90003333D01*
X129329047Y-90003333D01*
X129424285Y-90050952D01*
X129471904Y-90098571D01*
X129519523Y-90193809D01*
X129519523Y-90431904D01*
X129471904Y-90527142D01*
X129424285Y-90574761D01*
X129329047Y-90622380D01*
X129090952Y-90622380D01*
X128995714Y-90574761D01*
X128948095Y-90527142D01*
D17*
X128420714Y-85495000D02*
X128135000Y-85352142D01*
X127706428Y-85352142D01*
X127277857Y-85495000D01*
X126992142Y-85780714D01*
X126849285Y-86066428D01*
X126706428Y-86637857D01*
X126706428Y-87066428D01*
X126849285Y-87637857D01*
X126992142Y-87923571D01*
X127277857Y-88209285D01*
X127706428Y-88352142D01*
X127992142Y-88352142D01*
X128420714Y-88209285D01*
X128563571Y-88066428D01*
X128563571Y-87066428D01*
X127992142Y-87066428D01*
D10*
X111855476Y-90574761D02*
X111998333Y-90622380D01*
X112236428Y-90622380D01*
X112331666Y-90574761D01*
X112379285Y-90527142D01*
X112426904Y-90431904D01*
X112426904Y-90336666D01*
X112379285Y-90241428D01*
X112331666Y-90193809D01*
X112236428Y-90146190D01*
X112045952Y-90098571D01*
X111950714Y-90050952D01*
X111903095Y-90003333D01*
X111855476Y-89908095D01*
X111855476Y-89812857D01*
X111903095Y-89717619D01*
X111950714Y-89670000D01*
X112045952Y-89622380D01*
X112284047Y-89622380D01*
X112426904Y-89670000D01*
X112760238Y-89622380D02*
X112998333Y-90622380D01*
X113188809Y-89908095D01*
X113379285Y-90622380D01*
X113617380Y-89622380D01*
X113950714Y-89717619D02*
X113998333Y-89670000D01*
X114093571Y-89622380D01*
X114331666Y-89622380D01*
X114426904Y-89670000D01*
X114474523Y-89717619D01*
X114522142Y-89812857D01*
X114522142Y-89908095D01*
X114474523Y-90050952D01*
X113903095Y-90622380D01*
X114522142Y-90622380D01*
X115379285Y-89955714D02*
X115379285Y-90622380D01*
X115141190Y-89574761D02*
X114903095Y-90289047D01*
X115522142Y-90289047D01*
D17*
X114118571Y-86780714D02*
X113118571Y-86780714D01*
X113118571Y-88352142D02*
X113118571Y-85352142D01*
X114547142Y-85352142D01*
D10*
X97960476Y-90574761D02*
X98103333Y-90622380D01*
X98341428Y-90622380D01*
X98436666Y-90574761D01*
X98484285Y-90527142D01*
X98531904Y-90431904D01*
X98531904Y-90336666D01*
X98484285Y-90241428D01*
X98436666Y-90193809D01*
X98341428Y-90146190D01*
X98150952Y-90098571D01*
X98055714Y-90050952D01*
X98008095Y-90003333D01*
X97960476Y-89908095D01*
X97960476Y-89812857D01*
X98008095Y-89717619D01*
X98055714Y-89670000D01*
X98150952Y-89622380D01*
X98389047Y-89622380D01*
X98531904Y-89670000D01*
X98865238Y-89622380D02*
X99103333Y-90622380D01*
X99293809Y-89908095D01*
X99484285Y-90622380D01*
X99722380Y-89622380D01*
X100055714Y-89717619D02*
X100103333Y-89670000D01*
X100198571Y-89622380D01*
X100436666Y-89622380D01*
X100531904Y-89670000D01*
X100579523Y-89717619D01*
X100627142Y-89812857D01*
X100627142Y-89908095D01*
X100579523Y-90050952D01*
X100008095Y-90622380D01*
X100627142Y-90622380D01*
X100960476Y-89622380D02*
X101579523Y-89622380D01*
X101246190Y-90003333D01*
X101389047Y-90003333D01*
X101484285Y-90050952D01*
X101531904Y-90098571D01*
X101579523Y-90193809D01*
X101579523Y-90431904D01*
X101531904Y-90527142D01*
X101484285Y-90574761D01*
X101389047Y-90622380D01*
X101103333Y-90622380D01*
X101008095Y-90574761D01*
X100960476Y-90527142D01*
D17*
X98909285Y-88352142D02*
X98909285Y-85352142D01*
X99623571Y-85352142D01*
X100052142Y-85495000D01*
X100337857Y-85780714D01*
X100480714Y-86066428D01*
X100623571Y-86637857D01*
X100623571Y-87066428D01*
X100480714Y-87637857D01*
X100337857Y-87923571D01*
X100052142Y-88209285D01*
X99623571Y-88352142D01*
X98909285Y-88352142D01*
D10*
X83915476Y-90574761D02*
X84058333Y-90622380D01*
X84296428Y-90622380D01*
X84391666Y-90574761D01*
X84439285Y-90527142D01*
X84486904Y-90431904D01*
X84486904Y-90336666D01*
X84439285Y-90241428D01*
X84391666Y-90193809D01*
X84296428Y-90146190D01*
X84105952Y-90098571D01*
X84010714Y-90050952D01*
X83963095Y-90003333D01*
X83915476Y-89908095D01*
X83915476Y-89812857D01*
X83963095Y-89717619D01*
X84010714Y-89670000D01*
X84105952Y-89622380D01*
X84344047Y-89622380D01*
X84486904Y-89670000D01*
X84820238Y-89622380D02*
X85058333Y-90622380D01*
X85248809Y-89908095D01*
X85439285Y-90622380D01*
X85677380Y-89622380D01*
X86010714Y-89717619D02*
X86058333Y-89670000D01*
X86153571Y-89622380D01*
X86391666Y-89622380D01*
X86486904Y-89670000D01*
X86534523Y-89717619D01*
X86582142Y-89812857D01*
X86582142Y-89908095D01*
X86534523Y-90050952D01*
X85963095Y-90622380D01*
X86582142Y-90622380D01*
X86963095Y-89717619D02*
X87010714Y-89670000D01*
X87105952Y-89622380D01*
X87344047Y-89622380D01*
X87439285Y-89670000D01*
X87486904Y-89717619D01*
X87534523Y-89812857D01*
X87534523Y-89908095D01*
X87486904Y-90050952D01*
X86915476Y-90622380D01*
X87534523Y-90622380D01*
D17*
X84867857Y-88209285D02*
X85296428Y-88352142D01*
X86010714Y-88352142D01*
X86296428Y-88209285D01*
X86439285Y-88066428D01*
X86582142Y-87780714D01*
X86582142Y-87495000D01*
X86439285Y-87209285D01*
X86296428Y-87066428D01*
X86010714Y-86923571D01*
X85439285Y-86780714D01*
X85153571Y-86637857D01*
X85010714Y-86495000D01*
X84867857Y-86209285D01*
X84867857Y-85923571D01*
X85010714Y-85637857D01*
X85153571Y-85495000D01*
X85439285Y-85352142D01*
X86153571Y-85352142D01*
X86582142Y-85495000D01*
D10*
X70020476Y-90574761D02*
X70163333Y-90622380D01*
X70401428Y-90622380D01*
X70496666Y-90574761D01*
X70544285Y-90527142D01*
X70591904Y-90431904D01*
X70591904Y-90336666D01*
X70544285Y-90241428D01*
X70496666Y-90193809D01*
X70401428Y-90146190D01*
X70210952Y-90098571D01*
X70115714Y-90050952D01*
X70068095Y-90003333D01*
X70020476Y-89908095D01*
X70020476Y-89812857D01*
X70068095Y-89717619D01*
X70115714Y-89670000D01*
X70210952Y-89622380D01*
X70449047Y-89622380D01*
X70591904Y-89670000D01*
X70925238Y-89622380D02*
X71163333Y-90622380D01*
X71353809Y-89908095D01*
X71544285Y-90622380D01*
X71782380Y-89622380D01*
X72115714Y-89717619D02*
X72163333Y-89670000D01*
X72258571Y-89622380D01*
X72496666Y-89622380D01*
X72591904Y-89670000D01*
X72639523Y-89717619D01*
X72687142Y-89812857D01*
X72687142Y-89908095D01*
X72639523Y-90050952D01*
X72068095Y-90622380D01*
X72687142Y-90622380D01*
X73639523Y-90622380D02*
X73068095Y-90622380D01*
X73353809Y-90622380D02*
X73353809Y-89622380D01*
X73258571Y-89765238D01*
X73163333Y-89860476D01*
X73068095Y-89908095D01*
D17*
X71065714Y-87495000D02*
X72494285Y-87495000D01*
X70780000Y-88352142D02*
X71780000Y-85352142D01*
X72780000Y-88352142D01*
D10*
X193210476Y-77239761D02*
X193353333Y-77287380D01*
X193591428Y-77287380D01*
X193686666Y-77239761D01*
X193734285Y-77192142D01*
X193781904Y-77096904D01*
X193781904Y-77001666D01*
X193734285Y-76906428D01*
X193686666Y-76858809D01*
X193591428Y-76811190D01*
X193400952Y-76763571D01*
X193305714Y-76715952D01*
X193258095Y-76668333D01*
X193210476Y-76573095D01*
X193210476Y-76477857D01*
X193258095Y-76382619D01*
X193305714Y-76335000D01*
X193400952Y-76287380D01*
X193639047Y-76287380D01*
X193781904Y-76335000D01*
X194115238Y-76287380D02*
X194353333Y-77287380D01*
X194543809Y-76573095D01*
X194734285Y-77287380D01*
X194972380Y-76287380D01*
X195305714Y-76382619D02*
X195353333Y-76335000D01*
X195448571Y-76287380D01*
X195686666Y-76287380D01*
X195781904Y-76335000D01*
X195829523Y-76382619D01*
X195877142Y-76477857D01*
X195877142Y-76573095D01*
X195829523Y-76715952D01*
X195258095Y-77287380D01*
X195877142Y-77287380D01*
X196496190Y-76287380D02*
X196591428Y-76287380D01*
X196686666Y-76335000D01*
X196734285Y-76382619D01*
X196781904Y-76477857D01*
X196829523Y-76668333D01*
X196829523Y-76906428D01*
X196781904Y-77096904D01*
X196734285Y-77192142D01*
X196686666Y-77239761D01*
X196591428Y-77287380D01*
X196496190Y-77287380D01*
X196400952Y-77239761D01*
X196353333Y-77192142D01*
X196305714Y-77096904D01*
X196258095Y-76906428D01*
X196258095Y-76668333D01*
X196305714Y-76477857D01*
X196353333Y-76382619D01*
X196400952Y-76335000D01*
X196496190Y-76287380D01*
D17*
X194159285Y-75017142D02*
X194159285Y-72017142D01*
X195302142Y-72017142D01*
X195587857Y-72160000D01*
X195730714Y-72302857D01*
X195873571Y-72588571D01*
X195873571Y-73017142D01*
X195730714Y-73302857D01*
X195587857Y-73445714D01*
X195302142Y-73588571D01*
X194159285Y-73588571D01*
D10*
X179240476Y-77239761D02*
X179383333Y-77287380D01*
X179621428Y-77287380D01*
X179716666Y-77239761D01*
X179764285Y-77192142D01*
X179811904Y-77096904D01*
X179811904Y-77001666D01*
X179764285Y-76906428D01*
X179716666Y-76858809D01*
X179621428Y-76811190D01*
X179430952Y-76763571D01*
X179335714Y-76715952D01*
X179288095Y-76668333D01*
X179240476Y-76573095D01*
X179240476Y-76477857D01*
X179288095Y-76382619D01*
X179335714Y-76335000D01*
X179430952Y-76287380D01*
X179669047Y-76287380D01*
X179811904Y-76335000D01*
X180145238Y-76287380D02*
X180383333Y-77287380D01*
X180573809Y-76573095D01*
X180764285Y-77287380D01*
X181002380Y-76287380D01*
X181907142Y-77287380D02*
X181335714Y-77287380D01*
X181621428Y-77287380D02*
X181621428Y-76287380D01*
X181526190Y-76430238D01*
X181430952Y-76525476D01*
X181335714Y-76573095D01*
X182383333Y-77287380D02*
X182573809Y-77287380D01*
X182669047Y-77239761D01*
X182716666Y-77192142D01*
X182811904Y-77049285D01*
X182859523Y-76858809D01*
X182859523Y-76477857D01*
X182811904Y-76382619D01*
X182764285Y-76335000D01*
X182669047Y-76287380D01*
X182478571Y-76287380D01*
X182383333Y-76335000D01*
X182335714Y-76382619D01*
X182288095Y-76477857D01*
X182288095Y-76715952D01*
X182335714Y-76811190D01*
X182383333Y-76858809D01*
X182478571Y-76906428D01*
X182669047Y-76906428D01*
X182764285Y-76858809D01*
X182811904Y-76811190D01*
X182859523Y-76715952D01*
D17*
X180689285Y-72017142D02*
X181260714Y-72017142D01*
X181546428Y-72160000D01*
X181832142Y-72445714D01*
X181975000Y-73017142D01*
X181975000Y-74017142D01*
X181832142Y-74588571D01*
X181546428Y-74874285D01*
X181260714Y-75017142D01*
X180689285Y-75017142D01*
X180403571Y-74874285D01*
X180117857Y-74588571D01*
X179975000Y-74017142D01*
X179975000Y-73017142D01*
X180117857Y-72445714D01*
X180403571Y-72160000D01*
X180689285Y-72017142D01*
D10*
X165195476Y-77239761D02*
X165338333Y-77287380D01*
X165576428Y-77287380D01*
X165671666Y-77239761D01*
X165719285Y-77192142D01*
X165766904Y-77096904D01*
X165766904Y-77001666D01*
X165719285Y-76906428D01*
X165671666Y-76858809D01*
X165576428Y-76811190D01*
X165385952Y-76763571D01*
X165290714Y-76715952D01*
X165243095Y-76668333D01*
X165195476Y-76573095D01*
X165195476Y-76477857D01*
X165243095Y-76382619D01*
X165290714Y-76335000D01*
X165385952Y-76287380D01*
X165624047Y-76287380D01*
X165766904Y-76335000D01*
X166100238Y-76287380D02*
X166338333Y-77287380D01*
X166528809Y-76573095D01*
X166719285Y-77287380D01*
X166957380Y-76287380D01*
X167862142Y-77287380D02*
X167290714Y-77287380D01*
X167576428Y-77287380D02*
X167576428Y-76287380D01*
X167481190Y-76430238D01*
X167385952Y-76525476D01*
X167290714Y-76573095D01*
X168433571Y-76715952D02*
X168338333Y-76668333D01*
X168290714Y-76620714D01*
X168243095Y-76525476D01*
X168243095Y-76477857D01*
X168290714Y-76382619D01*
X168338333Y-76335000D01*
X168433571Y-76287380D01*
X168624047Y-76287380D01*
X168719285Y-76335000D01*
X168766904Y-76382619D01*
X168814523Y-76477857D01*
X168814523Y-76525476D01*
X168766904Y-76620714D01*
X168719285Y-76668333D01*
X168624047Y-76715952D01*
X168433571Y-76715952D01*
X168338333Y-76763571D01*
X168290714Y-76811190D01*
X168243095Y-76906428D01*
X168243095Y-77096904D01*
X168290714Y-77192142D01*
X168338333Y-77239761D01*
X168433571Y-77287380D01*
X168624047Y-77287380D01*
X168719285Y-77239761D01*
X168766904Y-77192142D01*
X168814523Y-77096904D01*
X168814523Y-76906428D01*
X168766904Y-76811190D01*
X168719285Y-76763571D01*
X168624047Y-76715952D01*
D17*
X167005000Y-75017142D02*
X167005000Y-72017142D01*
D10*
X151300476Y-77239761D02*
X151443333Y-77287380D01*
X151681428Y-77287380D01*
X151776666Y-77239761D01*
X151824285Y-77192142D01*
X151871904Y-77096904D01*
X151871904Y-77001666D01*
X151824285Y-76906428D01*
X151776666Y-76858809D01*
X151681428Y-76811190D01*
X151490952Y-76763571D01*
X151395714Y-76715952D01*
X151348095Y-76668333D01*
X151300476Y-76573095D01*
X151300476Y-76477857D01*
X151348095Y-76382619D01*
X151395714Y-76335000D01*
X151490952Y-76287380D01*
X151729047Y-76287380D01*
X151871904Y-76335000D01*
X152205238Y-76287380D02*
X152443333Y-77287380D01*
X152633809Y-76573095D01*
X152824285Y-77287380D01*
X153062380Y-76287380D01*
X153967142Y-77287380D02*
X153395714Y-77287380D01*
X153681428Y-77287380D02*
X153681428Y-76287380D01*
X153586190Y-76430238D01*
X153490952Y-76525476D01*
X153395714Y-76573095D01*
X154300476Y-76287380D02*
X154967142Y-76287380D01*
X154538571Y-77287380D01*
D17*
X152177857Y-72017142D02*
X152177857Y-74445714D01*
X152320714Y-74731428D01*
X152463571Y-74874285D01*
X152749285Y-75017142D01*
X153320714Y-75017142D01*
X153606428Y-74874285D01*
X153749285Y-74731428D01*
X153892142Y-74445714D01*
X153892142Y-72017142D01*
D10*
X137330476Y-77239761D02*
X137473333Y-77287380D01*
X137711428Y-77287380D01*
X137806666Y-77239761D01*
X137854285Y-77192142D01*
X137901904Y-77096904D01*
X137901904Y-77001666D01*
X137854285Y-76906428D01*
X137806666Y-76858809D01*
X137711428Y-76811190D01*
X137520952Y-76763571D01*
X137425714Y-76715952D01*
X137378095Y-76668333D01*
X137330476Y-76573095D01*
X137330476Y-76477857D01*
X137378095Y-76382619D01*
X137425714Y-76335000D01*
X137520952Y-76287380D01*
X137759047Y-76287380D01*
X137901904Y-76335000D01*
X138235238Y-76287380D02*
X138473333Y-77287380D01*
X138663809Y-76573095D01*
X138854285Y-77287380D01*
X139092380Y-76287380D01*
X139997142Y-77287380D02*
X139425714Y-77287380D01*
X139711428Y-77287380D02*
X139711428Y-76287380D01*
X139616190Y-76430238D01*
X139520952Y-76525476D01*
X139425714Y-76573095D01*
X140854285Y-76287380D02*
X140663809Y-76287380D01*
X140568571Y-76335000D01*
X140520952Y-76382619D01*
X140425714Y-76525476D01*
X140378095Y-76715952D01*
X140378095Y-77096904D01*
X140425714Y-77192142D01*
X140473333Y-77239761D01*
X140568571Y-77287380D01*
X140759047Y-77287380D01*
X140854285Y-77239761D01*
X140901904Y-77192142D01*
X140949523Y-77096904D01*
X140949523Y-76858809D01*
X140901904Y-76763571D01*
X140854285Y-76715952D01*
X140759047Y-76668333D01*
X140568571Y-76668333D01*
X140473333Y-76715952D01*
X140425714Y-76763571D01*
X140378095Y-76858809D01*
D17*
X139065000Y-73588571D02*
X139065000Y-75017142D01*
X138065000Y-72017142D02*
X139065000Y-73588571D01*
X140065000Y-72017142D01*
D10*
X123360476Y-77239761D02*
X123503333Y-77287380D01*
X123741428Y-77287380D01*
X123836666Y-77239761D01*
X123884285Y-77192142D01*
X123931904Y-77096904D01*
X123931904Y-77001666D01*
X123884285Y-76906428D01*
X123836666Y-76858809D01*
X123741428Y-76811190D01*
X123550952Y-76763571D01*
X123455714Y-76715952D01*
X123408095Y-76668333D01*
X123360476Y-76573095D01*
X123360476Y-76477857D01*
X123408095Y-76382619D01*
X123455714Y-76335000D01*
X123550952Y-76287380D01*
X123789047Y-76287380D01*
X123931904Y-76335000D01*
X124265238Y-76287380D02*
X124503333Y-77287380D01*
X124693809Y-76573095D01*
X124884285Y-77287380D01*
X125122380Y-76287380D01*
X126027142Y-77287380D02*
X125455714Y-77287380D01*
X125741428Y-77287380D02*
X125741428Y-76287380D01*
X125646190Y-76430238D01*
X125550952Y-76525476D01*
X125455714Y-76573095D01*
X126931904Y-76287380D02*
X126455714Y-76287380D01*
X126408095Y-76763571D01*
X126455714Y-76715952D01*
X126550952Y-76668333D01*
X126789047Y-76668333D01*
X126884285Y-76715952D01*
X126931904Y-76763571D01*
X126979523Y-76858809D01*
X126979523Y-77096904D01*
X126931904Y-77192142D01*
X126884285Y-77239761D01*
X126789047Y-77287380D01*
X126550952Y-77287380D01*
X126455714Y-77239761D01*
X126408095Y-77192142D01*
D17*
X124237857Y-72017142D02*
X125952142Y-72017142D01*
X125095000Y-75017142D02*
X125095000Y-72017142D01*
D10*
X109315476Y-77239761D02*
X109458333Y-77287380D01*
X109696428Y-77287380D01*
X109791666Y-77239761D01*
X109839285Y-77192142D01*
X109886904Y-77096904D01*
X109886904Y-77001666D01*
X109839285Y-76906428D01*
X109791666Y-76858809D01*
X109696428Y-76811190D01*
X109505952Y-76763571D01*
X109410714Y-76715952D01*
X109363095Y-76668333D01*
X109315476Y-76573095D01*
X109315476Y-76477857D01*
X109363095Y-76382619D01*
X109410714Y-76335000D01*
X109505952Y-76287380D01*
X109744047Y-76287380D01*
X109886904Y-76335000D01*
X110220238Y-76287380D02*
X110458333Y-77287380D01*
X110648809Y-76573095D01*
X110839285Y-77287380D01*
X111077380Y-76287380D01*
X111982142Y-77287380D02*
X111410714Y-77287380D01*
X111696428Y-77287380D02*
X111696428Y-76287380D01*
X111601190Y-76430238D01*
X111505952Y-76525476D01*
X111410714Y-76573095D01*
X112839285Y-76620714D02*
X112839285Y-77287380D01*
X112601190Y-76239761D02*
X112363095Y-76954047D01*
X112982142Y-76954047D01*
D17*
X112053571Y-75017142D02*
X111053571Y-73588571D01*
X110339285Y-75017142D02*
X110339285Y-72017142D01*
X111482142Y-72017142D01*
X111767857Y-72160000D01*
X111910714Y-72302857D01*
X112053571Y-72588571D01*
X112053571Y-73017142D01*
X111910714Y-73302857D01*
X111767857Y-73445714D01*
X111482142Y-73588571D01*
X110339285Y-73588571D01*
D10*
X95420476Y-77239761D02*
X95563333Y-77287380D01*
X95801428Y-77287380D01*
X95896666Y-77239761D01*
X95944285Y-77192142D01*
X95991904Y-77096904D01*
X95991904Y-77001666D01*
X95944285Y-76906428D01*
X95896666Y-76858809D01*
X95801428Y-76811190D01*
X95610952Y-76763571D01*
X95515714Y-76715952D01*
X95468095Y-76668333D01*
X95420476Y-76573095D01*
X95420476Y-76477857D01*
X95468095Y-76382619D01*
X95515714Y-76335000D01*
X95610952Y-76287380D01*
X95849047Y-76287380D01*
X95991904Y-76335000D01*
X96325238Y-76287380D02*
X96563333Y-77287380D01*
X96753809Y-76573095D01*
X96944285Y-77287380D01*
X97182380Y-76287380D01*
X98087142Y-77287380D02*
X97515714Y-77287380D01*
X97801428Y-77287380D02*
X97801428Y-76287380D01*
X97706190Y-76430238D01*
X97610952Y-76525476D01*
X97515714Y-76573095D01*
X98420476Y-76287380D02*
X99039523Y-76287380D01*
X98706190Y-76668333D01*
X98849047Y-76668333D01*
X98944285Y-76715952D01*
X98991904Y-76763571D01*
X99039523Y-76858809D01*
X99039523Y-77096904D01*
X98991904Y-77192142D01*
X98944285Y-77239761D01*
X98849047Y-77287380D01*
X98563333Y-77287380D01*
X98468095Y-77239761D01*
X98420476Y-77192142D01*
D17*
X96512142Y-73445714D02*
X97512142Y-73445714D01*
X97940714Y-75017142D02*
X96512142Y-75017142D01*
X96512142Y-72017142D01*
X97940714Y-72017142D01*
D10*
X81450476Y-77239761D02*
X81593333Y-77287380D01*
X81831428Y-77287380D01*
X81926666Y-77239761D01*
X81974285Y-77192142D01*
X82021904Y-77096904D01*
X82021904Y-77001666D01*
X81974285Y-76906428D01*
X81926666Y-76858809D01*
X81831428Y-76811190D01*
X81640952Y-76763571D01*
X81545714Y-76715952D01*
X81498095Y-76668333D01*
X81450476Y-76573095D01*
X81450476Y-76477857D01*
X81498095Y-76382619D01*
X81545714Y-76335000D01*
X81640952Y-76287380D01*
X81879047Y-76287380D01*
X82021904Y-76335000D01*
X82355238Y-76287380D02*
X82593333Y-77287380D01*
X82783809Y-76573095D01*
X82974285Y-77287380D01*
X83212380Y-76287380D01*
X84117142Y-77287380D02*
X83545714Y-77287380D01*
X83831428Y-77287380D02*
X83831428Y-76287380D01*
X83736190Y-76430238D01*
X83640952Y-76525476D01*
X83545714Y-76573095D01*
X84498095Y-76382619D02*
X84545714Y-76335000D01*
X84640952Y-76287380D01*
X84879047Y-76287380D01*
X84974285Y-76335000D01*
X85021904Y-76382619D01*
X85069523Y-76477857D01*
X85069523Y-76573095D01*
X85021904Y-76715952D01*
X84450476Y-77287380D01*
X85069523Y-77287380D01*
D17*
X81899285Y-72017142D02*
X82613571Y-75017142D01*
X83185000Y-72874285D01*
X83756428Y-75017142D01*
X84470714Y-72017142D01*
D10*
X67480476Y-77239761D02*
X67623333Y-77287380D01*
X67861428Y-77287380D01*
X67956666Y-77239761D01*
X68004285Y-77192142D01*
X68051904Y-77096904D01*
X68051904Y-77001666D01*
X68004285Y-76906428D01*
X67956666Y-76858809D01*
X67861428Y-76811190D01*
X67670952Y-76763571D01*
X67575714Y-76715952D01*
X67528095Y-76668333D01*
X67480476Y-76573095D01*
X67480476Y-76477857D01*
X67528095Y-76382619D01*
X67575714Y-76335000D01*
X67670952Y-76287380D01*
X67909047Y-76287380D01*
X68051904Y-76335000D01*
X68385238Y-76287380D02*
X68623333Y-77287380D01*
X68813809Y-76573095D01*
X69004285Y-77287380D01*
X69242380Y-76287380D01*
X70147142Y-77287380D02*
X69575714Y-77287380D01*
X69861428Y-77287380D02*
X69861428Y-76287380D01*
X69766190Y-76430238D01*
X69670952Y-76525476D01*
X69575714Y-76573095D01*
X71099523Y-77287380D02*
X70528095Y-77287380D01*
X70813809Y-77287380D02*
X70813809Y-76287380D01*
X70718571Y-76430238D01*
X70623333Y-76525476D01*
X70528095Y-76573095D01*
D17*
X70357857Y-75302857D02*
X70072142Y-75160000D01*
X69786428Y-74874285D01*
X69357857Y-74445714D01*
X69072142Y-74302857D01*
X68786428Y-74302857D01*
X68929285Y-75017142D02*
X68643571Y-74874285D01*
X68357857Y-74588571D01*
X68215000Y-74017142D01*
X68215000Y-73017142D01*
X68357857Y-72445714D01*
X68643571Y-72160000D01*
X68929285Y-72017142D01*
X69500714Y-72017142D01*
X69786428Y-72160000D01*
X70072142Y-72445714D01*
X70215000Y-73017142D01*
X70215000Y-74017142D01*
X70072142Y-74588571D01*
X69786428Y-74874285D01*
X69500714Y-75017142D01*
X68929285Y-75017142D01*
D10*
X185515476Y-63904761D02*
X185658333Y-63952380D01*
X185896428Y-63952380D01*
X185991666Y-63904761D01*
X186039285Y-63857142D01*
X186086904Y-63761904D01*
X186086904Y-63666666D01*
X186039285Y-63571428D01*
X185991666Y-63523809D01*
X185896428Y-63476190D01*
X185705952Y-63428571D01*
X185610714Y-63380952D01*
X185563095Y-63333333D01*
X185515476Y-63238095D01*
X185515476Y-63142857D01*
X185563095Y-63047619D01*
X185610714Y-63000000D01*
X185705952Y-62952380D01*
X185944047Y-62952380D01*
X186086904Y-63000000D01*
X186420238Y-62952380D02*
X186658333Y-63952380D01*
X186848809Y-63238095D01*
X187039285Y-63952380D01*
X187277380Y-62952380D01*
X188182142Y-63952380D02*
X187610714Y-63952380D01*
X187896428Y-63952380D02*
X187896428Y-62952380D01*
X187801190Y-63095238D01*
X187705952Y-63190476D01*
X187610714Y-63238095D01*
X188801190Y-62952380D02*
X188896428Y-62952380D01*
X188991666Y-63000000D01*
X189039285Y-63047619D01*
X189086904Y-63142857D01*
X189134523Y-63333333D01*
X189134523Y-63571428D01*
X189086904Y-63761904D01*
X189039285Y-63857142D01*
X188991666Y-63904761D01*
X188896428Y-63952380D01*
X188801190Y-63952380D01*
X188705952Y-63904761D01*
X188658333Y-63857142D01*
X188610714Y-63761904D01*
X188563095Y-63571428D01*
X188563095Y-63333333D01*
X188610714Y-63142857D01*
X188658333Y-63047619D01*
X188705952Y-63000000D01*
X188801190Y-62952380D01*
D17*
X184007142Y-58682142D02*
X184292857Y-58682142D01*
X184578571Y-58825000D01*
X184721428Y-58967857D01*
X184864285Y-59253571D01*
X185007142Y-59825000D01*
X185007142Y-60539285D01*
X184864285Y-61110714D01*
X184721428Y-61396428D01*
X184578571Y-61539285D01*
X184292857Y-61682142D01*
X184007142Y-61682142D01*
X183721428Y-61539285D01*
X183578571Y-61396428D01*
X183435714Y-61110714D01*
X183292857Y-60539285D01*
X183292857Y-59825000D01*
X183435714Y-59253571D01*
X183578571Y-58967857D01*
X183721428Y-58825000D01*
X184007142Y-58682142D01*
D10*
X172021666Y-63904761D02*
X172164523Y-63952380D01*
X172402619Y-63952380D01*
X172497857Y-63904761D01*
X172545476Y-63857142D01*
X172593095Y-63761904D01*
X172593095Y-63666666D01*
X172545476Y-63571428D01*
X172497857Y-63523809D01*
X172402619Y-63476190D01*
X172212142Y-63428571D01*
X172116904Y-63380952D01*
X172069285Y-63333333D01*
X172021666Y-63238095D01*
X172021666Y-63142857D01*
X172069285Y-63047619D01*
X172116904Y-63000000D01*
X172212142Y-62952380D01*
X172450238Y-62952380D01*
X172593095Y-63000000D01*
X172926428Y-62952380D02*
X173164523Y-63952380D01*
X173355000Y-63238095D01*
X173545476Y-63952380D01*
X173783571Y-62952380D01*
X174212142Y-63952380D02*
X174402619Y-63952380D01*
X174497857Y-63904761D01*
X174545476Y-63857142D01*
X174640714Y-63714285D01*
X174688333Y-63523809D01*
X174688333Y-63142857D01*
X174640714Y-63047619D01*
X174593095Y-63000000D01*
X174497857Y-62952380D01*
X174307380Y-62952380D01*
X174212142Y-63000000D01*
X174164523Y-63047619D01*
X174116904Y-63142857D01*
X174116904Y-63380952D01*
X174164523Y-63476190D01*
X174212142Y-63523809D01*
X174307380Y-63571428D01*
X174497857Y-63571428D01*
X174593095Y-63523809D01*
X174640714Y-63476190D01*
X174688333Y-63380952D01*
D17*
X172783571Y-61682142D02*
X173355000Y-61682142D01*
X173640714Y-61539285D01*
X173783571Y-61396428D01*
X174069285Y-60967857D01*
X174212142Y-60396428D01*
X174212142Y-59253571D01*
X174069285Y-58967857D01*
X173926428Y-58825000D01*
X173640714Y-58682142D01*
X173069285Y-58682142D01*
X172783571Y-58825000D01*
X172640714Y-58967857D01*
X172497857Y-59253571D01*
X172497857Y-59967857D01*
X172640714Y-60253571D01*
X172783571Y-60396428D01*
X173069285Y-60539285D01*
X173640714Y-60539285D01*
X173926428Y-60396428D01*
X174069285Y-60253571D01*
X174212142Y-59967857D01*
D10*
X158126666Y-63904761D02*
X158269523Y-63952380D01*
X158507619Y-63952380D01*
X158602857Y-63904761D01*
X158650476Y-63857142D01*
X158698095Y-63761904D01*
X158698095Y-63666666D01*
X158650476Y-63571428D01*
X158602857Y-63523809D01*
X158507619Y-63476190D01*
X158317142Y-63428571D01*
X158221904Y-63380952D01*
X158174285Y-63333333D01*
X158126666Y-63238095D01*
X158126666Y-63142857D01*
X158174285Y-63047619D01*
X158221904Y-63000000D01*
X158317142Y-62952380D01*
X158555238Y-62952380D01*
X158698095Y-63000000D01*
X159031428Y-62952380D02*
X159269523Y-63952380D01*
X159460000Y-63238095D01*
X159650476Y-63952380D01*
X159888571Y-62952380D01*
X160412380Y-63380952D02*
X160317142Y-63333333D01*
X160269523Y-63285714D01*
X160221904Y-63190476D01*
X160221904Y-63142857D01*
X160269523Y-63047619D01*
X160317142Y-63000000D01*
X160412380Y-62952380D01*
X160602857Y-62952380D01*
X160698095Y-63000000D01*
X160745714Y-63047619D01*
X160793333Y-63142857D01*
X160793333Y-63190476D01*
X160745714Y-63285714D01*
X160698095Y-63333333D01*
X160602857Y-63380952D01*
X160412380Y-63380952D01*
X160317142Y-63428571D01*
X160269523Y-63476190D01*
X160221904Y-63571428D01*
X160221904Y-63761904D01*
X160269523Y-63857142D01*
X160317142Y-63904761D01*
X160412380Y-63952380D01*
X160602857Y-63952380D01*
X160698095Y-63904761D01*
X160745714Y-63857142D01*
X160793333Y-63761904D01*
X160793333Y-63571428D01*
X160745714Y-63476190D01*
X160698095Y-63428571D01*
X160602857Y-63380952D01*
D17*
X159099285Y-59967857D02*
X158813571Y-59825000D01*
X158670714Y-59682142D01*
X158527857Y-59396428D01*
X158527857Y-59253571D01*
X158670714Y-58967857D01*
X158813571Y-58825000D01*
X159099285Y-58682142D01*
X159670714Y-58682142D01*
X159956428Y-58825000D01*
X160099285Y-58967857D01*
X160242142Y-59253571D01*
X160242142Y-59396428D01*
X160099285Y-59682142D01*
X159956428Y-59825000D01*
X159670714Y-59967857D01*
X159099285Y-59967857D01*
X158813571Y-60110714D01*
X158670714Y-60253571D01*
X158527857Y-60539285D01*
X158527857Y-61110714D01*
X158670714Y-61396428D01*
X158813571Y-61539285D01*
X159099285Y-61682142D01*
X159670714Y-61682142D01*
X159956428Y-61539285D01*
X160099285Y-61396428D01*
X160242142Y-61110714D01*
X160242142Y-60539285D01*
X160099285Y-60253571D01*
X159956428Y-60110714D01*
X159670714Y-59967857D01*
D10*
X144081666Y-63904761D02*
X144224523Y-63952380D01*
X144462619Y-63952380D01*
X144557857Y-63904761D01*
X144605476Y-63857142D01*
X144653095Y-63761904D01*
X144653095Y-63666666D01*
X144605476Y-63571428D01*
X144557857Y-63523809D01*
X144462619Y-63476190D01*
X144272142Y-63428571D01*
X144176904Y-63380952D01*
X144129285Y-63333333D01*
X144081666Y-63238095D01*
X144081666Y-63142857D01*
X144129285Y-63047619D01*
X144176904Y-63000000D01*
X144272142Y-62952380D01*
X144510238Y-62952380D01*
X144653095Y-63000000D01*
X144986428Y-62952380D02*
X145224523Y-63952380D01*
X145415000Y-63238095D01*
X145605476Y-63952380D01*
X145843571Y-62952380D01*
X146129285Y-62952380D02*
X146795952Y-62952380D01*
X146367380Y-63952380D01*
D17*
X141240000Y-58682142D02*
X143240000Y-58682142D01*
X141954285Y-61682142D01*
D10*
X130186666Y-63904761D02*
X130329523Y-63952380D01*
X130567619Y-63952380D01*
X130662857Y-63904761D01*
X130710476Y-63857142D01*
X130758095Y-63761904D01*
X130758095Y-63666666D01*
X130710476Y-63571428D01*
X130662857Y-63523809D01*
X130567619Y-63476190D01*
X130377142Y-63428571D01*
X130281904Y-63380952D01*
X130234285Y-63333333D01*
X130186666Y-63238095D01*
X130186666Y-63142857D01*
X130234285Y-63047619D01*
X130281904Y-63000000D01*
X130377142Y-62952380D01*
X130615238Y-62952380D01*
X130758095Y-63000000D01*
X131091428Y-62952380D02*
X131329523Y-63952380D01*
X131520000Y-63238095D01*
X131710476Y-63952380D01*
X131948571Y-62952380D01*
X132758095Y-62952380D02*
X132567619Y-62952380D01*
X132472380Y-63000000D01*
X132424761Y-63047619D01*
X132329523Y-63190476D01*
X132281904Y-63380952D01*
X132281904Y-63761904D01*
X132329523Y-63857142D01*
X132377142Y-63904761D01*
X132472380Y-63952380D01*
X132662857Y-63952380D01*
X132758095Y-63904761D01*
X132805714Y-63857142D01*
X132853333Y-63761904D01*
X132853333Y-63523809D01*
X132805714Y-63428571D01*
X132758095Y-63380952D01*
X132662857Y-63333333D01*
X132472380Y-63333333D01*
X132377142Y-63380952D01*
X132329523Y-63428571D01*
X132281904Y-63523809D01*
D17*
X128841428Y-58682142D02*
X128270000Y-58682142D01*
X127984285Y-58825000D01*
X127841428Y-58967857D01*
X127555714Y-59396428D01*
X127412857Y-59967857D01*
X127412857Y-61110714D01*
X127555714Y-61396428D01*
X127698571Y-61539285D01*
X127984285Y-61682142D01*
X128555714Y-61682142D01*
X128841428Y-61539285D01*
X128984285Y-61396428D01*
X129127142Y-61110714D01*
X129127142Y-60396428D01*
X128984285Y-60110714D01*
X128841428Y-59967857D01*
X128555714Y-59825000D01*
X127984285Y-59825000D01*
X127698571Y-59967857D01*
X127555714Y-60110714D01*
X127412857Y-60396428D01*
D10*
X116216666Y-63904761D02*
X116359523Y-63952380D01*
X116597619Y-63952380D01*
X116692857Y-63904761D01*
X116740476Y-63857142D01*
X116788095Y-63761904D01*
X116788095Y-63666666D01*
X116740476Y-63571428D01*
X116692857Y-63523809D01*
X116597619Y-63476190D01*
X116407142Y-63428571D01*
X116311904Y-63380952D01*
X116264285Y-63333333D01*
X116216666Y-63238095D01*
X116216666Y-63142857D01*
X116264285Y-63047619D01*
X116311904Y-63000000D01*
X116407142Y-62952380D01*
X116645238Y-62952380D01*
X116788095Y-63000000D01*
X117121428Y-62952380D02*
X117359523Y-63952380D01*
X117550000Y-63238095D01*
X117740476Y-63952380D01*
X117978571Y-62952380D01*
X118835714Y-62952380D02*
X118359523Y-62952380D01*
X118311904Y-63428571D01*
X118359523Y-63380952D01*
X118454761Y-63333333D01*
X118692857Y-63333333D01*
X118788095Y-63380952D01*
X118835714Y-63428571D01*
X118883333Y-63523809D01*
X118883333Y-63761904D01*
X118835714Y-63857142D01*
X118788095Y-63904761D01*
X118692857Y-63952380D01*
X118454761Y-63952380D01*
X118359523Y-63904761D01*
X118311904Y-63857142D01*
D17*
X115014285Y-58682142D02*
X113585714Y-58682142D01*
X113442857Y-60110714D01*
X113585714Y-59967857D01*
X113871428Y-59825000D01*
X114585714Y-59825000D01*
X114871428Y-59967857D01*
X115014285Y-60110714D01*
X115157142Y-60396428D01*
X115157142Y-61110714D01*
X115014285Y-61396428D01*
X114871428Y-61539285D01*
X114585714Y-61682142D01*
X113871428Y-61682142D01*
X113585714Y-61539285D01*
X113442857Y-61396428D01*
D10*
X102246666Y-63904761D02*
X102389523Y-63952380D01*
X102627619Y-63952380D01*
X102722857Y-63904761D01*
X102770476Y-63857142D01*
X102818095Y-63761904D01*
X102818095Y-63666666D01*
X102770476Y-63571428D01*
X102722857Y-63523809D01*
X102627619Y-63476190D01*
X102437142Y-63428571D01*
X102341904Y-63380952D01*
X102294285Y-63333333D01*
X102246666Y-63238095D01*
X102246666Y-63142857D01*
X102294285Y-63047619D01*
X102341904Y-63000000D01*
X102437142Y-62952380D01*
X102675238Y-62952380D01*
X102818095Y-63000000D01*
X103151428Y-62952380D02*
X103389523Y-63952380D01*
X103580000Y-63238095D01*
X103770476Y-63952380D01*
X104008571Y-62952380D01*
X104818095Y-63285714D02*
X104818095Y-63952380D01*
X104580000Y-62904761D02*
X104341904Y-63619047D01*
X104960952Y-63619047D01*
D17*
X100901428Y-59682142D02*
X100901428Y-61682142D01*
X100187142Y-58539285D02*
X99472857Y-60682142D01*
X101330000Y-60682142D01*
D10*
X88276666Y-63904761D02*
X88419523Y-63952380D01*
X88657619Y-63952380D01*
X88752857Y-63904761D01*
X88800476Y-63857142D01*
X88848095Y-63761904D01*
X88848095Y-63666666D01*
X88800476Y-63571428D01*
X88752857Y-63523809D01*
X88657619Y-63476190D01*
X88467142Y-63428571D01*
X88371904Y-63380952D01*
X88324285Y-63333333D01*
X88276666Y-63238095D01*
X88276666Y-63142857D01*
X88324285Y-63047619D01*
X88371904Y-63000000D01*
X88467142Y-62952380D01*
X88705238Y-62952380D01*
X88848095Y-63000000D01*
X89181428Y-62952380D02*
X89419523Y-63952380D01*
X89610000Y-63238095D01*
X89800476Y-63952380D01*
X90038571Y-62952380D01*
X90324285Y-62952380D02*
X90943333Y-62952380D01*
X90610000Y-63333333D01*
X90752857Y-63333333D01*
X90848095Y-63380952D01*
X90895714Y-63428571D01*
X90943333Y-63523809D01*
X90943333Y-63761904D01*
X90895714Y-63857142D01*
X90848095Y-63904761D01*
X90752857Y-63952380D01*
X90467142Y-63952380D01*
X90371904Y-63904761D01*
X90324285Y-63857142D01*
D17*
X85360000Y-58682142D02*
X87217142Y-58682142D01*
X86217142Y-59825000D01*
X86645714Y-59825000D01*
X86931428Y-59967857D01*
X87074285Y-60110714D01*
X87217142Y-60396428D01*
X87217142Y-61110714D01*
X87074285Y-61396428D01*
X86931428Y-61539285D01*
X86645714Y-61682142D01*
X85788571Y-61682142D01*
X85502857Y-61539285D01*
X85360000Y-61396428D01*
D10*
X74231666Y-63904761D02*
X74374523Y-63952380D01*
X74612619Y-63952380D01*
X74707857Y-63904761D01*
X74755476Y-63857142D01*
X74803095Y-63761904D01*
X74803095Y-63666666D01*
X74755476Y-63571428D01*
X74707857Y-63523809D01*
X74612619Y-63476190D01*
X74422142Y-63428571D01*
X74326904Y-63380952D01*
X74279285Y-63333333D01*
X74231666Y-63238095D01*
X74231666Y-63142857D01*
X74279285Y-63047619D01*
X74326904Y-63000000D01*
X74422142Y-62952380D01*
X74660238Y-62952380D01*
X74803095Y-63000000D01*
X75136428Y-62952380D02*
X75374523Y-63952380D01*
X75565000Y-63238095D01*
X75755476Y-63952380D01*
X75993571Y-62952380D01*
X76326904Y-63047619D02*
X76374523Y-63000000D01*
X76469761Y-62952380D01*
X76707857Y-62952380D01*
X76803095Y-63000000D01*
X76850714Y-63047619D01*
X76898333Y-63142857D01*
X76898333Y-63238095D01*
X76850714Y-63380952D01*
X76279285Y-63952380D01*
X76898333Y-63952380D01*
D17*
X71532857Y-58967857D02*
X71675714Y-58825000D01*
X71961428Y-58682142D01*
X72675714Y-58682142D01*
X72961428Y-58825000D01*
X73104285Y-58967857D01*
X73247142Y-59253571D01*
X73247142Y-59539285D01*
X73104285Y-59967857D01*
X71390000Y-61682142D01*
X73247142Y-61682142D01*
D10*
X60336666Y-63904761D02*
X60479523Y-63952380D01*
X60717619Y-63952380D01*
X60812857Y-63904761D01*
X60860476Y-63857142D01*
X60908095Y-63761904D01*
X60908095Y-63666666D01*
X60860476Y-63571428D01*
X60812857Y-63523809D01*
X60717619Y-63476190D01*
X60527142Y-63428571D01*
X60431904Y-63380952D01*
X60384285Y-63333333D01*
X60336666Y-63238095D01*
X60336666Y-63142857D01*
X60384285Y-63047619D01*
X60431904Y-63000000D01*
X60527142Y-62952380D01*
X60765238Y-62952380D01*
X60908095Y-63000000D01*
X61241428Y-62952380D02*
X61479523Y-63952380D01*
X61670000Y-63238095D01*
X61860476Y-63952380D01*
X62098571Y-62952380D01*
X63003333Y-63952380D02*
X62431904Y-63952380D01*
X62717619Y-63952380D02*
X62717619Y-62952380D01*
X62622380Y-63095238D01*
X62527142Y-63190476D01*
X62431904Y-63238095D01*
D17*
X59277142Y-61682142D02*
X57562857Y-61682142D01*
X58420000Y-61682142D02*
X58420000Y-58682142D01*
X58134285Y-59110714D01*
X57848571Y-59396428D01*
X57562857Y-59539285D01*
D10*
X65071666Y-47077380D02*
X65071666Y-47791666D01*
X65024047Y-47934523D01*
X64928809Y-48029761D01*
X64785952Y-48077380D01*
X64690714Y-48077380D01*
X66071666Y-48077380D02*
X65500238Y-48077380D01*
X65785952Y-48077380D02*
X65785952Y-47077380D01*
X65690714Y-47220238D01*
X65595476Y-47315476D01*
X65500238Y-47363095D01*
X98258333Y-47696380D02*
X97925000Y-47220190D01*
X97686904Y-47696380D02*
X97686904Y-46696380D01*
X98067857Y-46696380D01*
X98163095Y-46744000D01*
X98210714Y-46791619D01*
X98258333Y-46886857D01*
X98258333Y-47029714D01*
X98210714Y-47124952D01*
X98163095Y-47172571D01*
X98067857Y-47220190D01*
X97686904Y-47220190D01*
X99210714Y-47696380D02*
X98639285Y-47696380D01*
X98925000Y-47696380D02*
X98925000Y-46696380D01*
X98829761Y-46839238D01*
X98734523Y-46934476D01*
X98639285Y-46982095D01*
X128801904Y-47442380D02*
X128801904Y-46442380D01*
X129040000Y-46442380D01*
X129182857Y-46490000D01*
X129278095Y-46585238D01*
X129325714Y-46680476D01*
X129373333Y-46870952D01*
X129373333Y-47013809D01*
X129325714Y-47204285D01*
X129278095Y-47299523D01*
X129182857Y-47394761D01*
X129040000Y-47442380D01*
X128801904Y-47442380D01*
X130325714Y-47442380D02*
X129754285Y-47442380D01*
X130040000Y-47442380D02*
X130040000Y-46442380D01*
X129944761Y-46585238D01*
X129849523Y-46680476D01*
X129754285Y-46728095D01*
M02*
