G04 #@! TF.GenerationSoftware,KiCad,Pcbnew,(5.1.5)-3*
G04 #@! TF.CreationDate,2020-05-16T22:41:55-03:00*
G04 #@! TF.ProjectId,Jupiter-II_keyboard,4a757069-7465-4722-9d49-495f6b657962,rev?*
G04 #@! TF.SameCoordinates,Original*
G04 #@! TF.FileFunction,Legend,Top*
G04 #@! TF.FilePolarity,Positive*
%FSLAX46Y46*%
G04 Gerber Fmt 4.6, Leading zero omitted, Abs format (unit mm)*
G04 Created by KiCad (PCBNEW (5.1.5)-3) date 2020-05-16 22:41:55*
%MOMM*%
%LPD*%
G04 APERTURE LIST*
%ADD10C,0.200000*%
%ADD11C,0.300000*%
%ADD12C,0.100000*%
%ADD13C,0.381000*%
%ADD14C,0.120000*%
%ADD15C,0.150000*%
%ADD16C,0.500000*%
G04 APERTURE END LIST*
D10*
X170706190Y-71584285D02*
X170625238Y-71646190D01*
X170382380Y-71708095D01*
X170220476Y-71708095D01*
X169977619Y-71646190D01*
X169815714Y-71522380D01*
X169734761Y-71398571D01*
X169653809Y-71150952D01*
X169653809Y-70965238D01*
X169734761Y-70717619D01*
X169815714Y-70593809D01*
X169977619Y-70470000D01*
X170220476Y-70408095D01*
X170382380Y-70408095D01*
X170625238Y-70470000D01*
X170706190Y-70531904D01*
X171450000Y-71120000D02*
G75*
G03X171450000Y-71120000I-1270000J0D01*
G01*
D11*
X197739047Y-70747142D02*
X197739047Y-71318571D01*
X198500952Y-70747142D02*
X198500952Y-71318571D01*
X184292857Y-71699285D02*
X184292857Y-71842142D01*
X184150000Y-72127857D01*
X184007142Y-72270714D01*
X184150000Y-69985000D02*
X184292857Y-70127857D01*
X184150000Y-70270714D01*
X184007142Y-70127857D01*
X184150000Y-69985000D01*
X184150000Y-70270714D01*
D10*
X155829047Y-72298571D02*
X156305238Y-72298571D01*
X156305238Y-70155714D01*
X155829047Y-70155714D01*
X142620952Y-72298571D02*
X142144761Y-72298571D01*
X142144761Y-70155714D01*
X142620952Y-70155714D01*
X127508095Y-70584285D02*
X129031904Y-71298571D01*
X127508095Y-72012857D01*
X115061904Y-70584285D02*
X113538095Y-71298571D01*
X115061904Y-72012857D01*
X144780000Y-83185000D02*
X144145000Y-83820000D01*
X144780000Y-83185000D02*
X145415000Y-83820000D01*
X144780000Y-85725000D02*
X144780000Y-83185000D01*
X185928095Y-84312142D02*
X187451904Y-84312142D01*
X187451904Y-84883571D02*
X185928095Y-84883571D01*
X171958095Y-84597857D02*
X173481904Y-84597857D01*
X172720000Y-85359761D02*
X172720000Y-83835952D01*
X157988095Y-84597857D02*
X159511904Y-84597857D01*
X130429047Y-85705000D02*
X130524285Y-85705000D01*
X130714761Y-85633571D01*
X130810000Y-85490714D01*
X130810000Y-84776428D01*
X130905238Y-84633571D01*
X131095714Y-84562142D01*
X130905238Y-84490714D01*
X130810000Y-84347857D01*
X130810000Y-83633571D01*
X130714761Y-83490714D01*
X130524285Y-83419285D01*
X130429047Y-83419285D01*
X117220952Y-85705000D02*
X117125714Y-85705000D01*
X116935238Y-85633571D01*
X116840000Y-85490714D01*
X116840000Y-84776428D01*
X116744761Y-84633571D01*
X116554285Y-84562142D01*
X116744761Y-84490714D01*
X116840000Y-84347857D01*
X116840000Y-83633571D01*
X116935238Y-83490714D01*
X117125714Y-83419285D01*
X117220952Y-83419285D01*
X102012857Y-83490714D02*
X103727142Y-85419285D01*
X88900000Y-85633571D02*
X88900000Y-83490714D01*
X74406190Y-84597857D02*
X74501428Y-84502619D01*
X74691904Y-84407380D01*
X75072857Y-84597857D01*
X75263333Y-84502619D01*
X75358571Y-84407380D01*
X185928095Y-58245238D02*
X187451904Y-58245238D01*
X176149047Y-59035000D02*
X176244285Y-58963571D01*
X176434761Y-58749285D01*
X176530000Y-58606428D01*
X176625238Y-58392142D01*
X176720476Y-58035000D01*
X176720476Y-57749285D01*
X176625238Y-57392142D01*
X176530000Y-57177857D01*
X176434761Y-57035000D01*
X176244285Y-56820714D01*
X176149047Y-56749285D01*
X162940952Y-59035000D02*
X162845714Y-58963571D01*
X162655238Y-58749285D01*
X162560000Y-58606428D01*
X162464761Y-58392142D01*
X162369523Y-58035000D01*
X162369523Y-57749285D01*
X162464761Y-57392142D01*
X162560000Y-57177857D01*
X162655238Y-57035000D01*
X162845714Y-56820714D01*
X162940952Y-56749285D01*
D11*
X144922857Y-57412142D02*
X144637142Y-57983571D01*
D10*
X131667142Y-58689761D02*
X131571904Y-58689761D01*
X131381428Y-58594523D01*
X131095714Y-58308809D01*
X130619523Y-57737380D01*
X130429047Y-57451666D01*
X130333809Y-57165952D01*
X130333809Y-56975476D01*
X130429047Y-56785000D01*
X130619523Y-56689761D01*
X130714761Y-56689761D01*
X130905238Y-56785000D01*
X131000476Y-56975476D01*
X131000476Y-57070714D01*
X130905238Y-57261190D01*
X130810000Y-57356428D01*
X130238571Y-57737380D01*
X130143333Y-57832619D01*
X130048095Y-58023095D01*
X130048095Y-58308809D01*
X130143333Y-58499285D01*
X130238571Y-58594523D01*
X130429047Y-58689761D01*
X130714761Y-58689761D01*
X130905238Y-58594523D01*
X131000476Y-58499285D01*
X131286190Y-58118333D01*
X131381428Y-57832619D01*
X131381428Y-57642142D01*
X116078095Y-58554047D02*
X117601904Y-56854047D01*
X116363809Y-56854047D02*
X116554285Y-56935000D01*
X116649523Y-57096904D01*
X116554285Y-57258809D01*
X116363809Y-57339761D01*
X116173333Y-57258809D01*
X116078095Y-57096904D01*
X116173333Y-56935000D01*
X116363809Y-56854047D01*
X117506666Y-58473095D02*
X117601904Y-58311190D01*
X117506666Y-58149285D01*
X117316190Y-58068333D01*
X117125714Y-58149285D01*
X117030476Y-58311190D01*
X117125714Y-58473095D01*
X117316190Y-58554047D01*
X117506666Y-58473095D01*
X102298571Y-58473095D02*
X102584285Y-58554047D01*
X103060476Y-58554047D01*
X103250952Y-58473095D01*
X103346190Y-58392142D01*
X103441428Y-58230238D01*
X103441428Y-58068333D01*
X103346190Y-57906428D01*
X103250952Y-57825476D01*
X103060476Y-57744523D01*
X102679523Y-57663571D01*
X102489047Y-57582619D01*
X102393809Y-57501666D01*
X102298571Y-57339761D01*
X102298571Y-57177857D01*
X102393809Y-57015952D01*
X102489047Y-56935000D01*
X102679523Y-56854047D01*
X103155714Y-56854047D01*
X103441428Y-56935000D01*
X102870000Y-56611190D02*
X102870000Y-58796904D01*
X88280952Y-57463571D02*
X89709523Y-57463571D01*
X88852380Y-56820714D02*
X88280952Y-58749285D01*
X89519047Y-58106428D02*
X88090476Y-58106428D01*
X88947619Y-58749285D02*
X89519047Y-56820714D01*
X75358571Y-57737380D02*
X75263333Y-57642142D01*
X75072857Y-57546904D01*
X74882380Y-57546904D01*
X74691904Y-57642142D01*
X74596666Y-57737380D01*
X74501428Y-57927857D01*
X74501428Y-58118333D01*
X74596666Y-58308809D01*
X74691904Y-58404047D01*
X74882380Y-58499285D01*
X75072857Y-58499285D01*
X75263333Y-58404047D01*
X75358571Y-58308809D01*
X75358571Y-57546904D02*
X75358571Y-58308809D01*
X75453809Y-58404047D01*
X75549047Y-58404047D01*
X75739523Y-58308809D01*
X75834761Y-58118333D01*
X75834761Y-57642142D01*
X75644285Y-57356428D01*
X75358571Y-57165952D01*
X74977619Y-57070714D01*
X74596666Y-57165952D01*
X74310952Y-57356428D01*
X74120476Y-57642142D01*
X74025238Y-58023095D01*
X74120476Y-58404047D01*
X74310952Y-58689761D01*
X74596666Y-58880238D01*
X74977619Y-58975476D01*
X75358571Y-58880238D01*
X75644285Y-58689761D01*
D12*
G36*
X150495000Y-61595000D02*
G01*
X148590000Y-61595000D01*
X148590000Y-59690000D01*
X146685000Y-59690000D01*
X146685000Y-57785000D01*
X150495000Y-57785000D01*
X150495000Y-61595000D01*
G37*
X150495000Y-61595000D02*
X148590000Y-61595000D01*
X148590000Y-59690000D01*
X146685000Y-59690000D01*
X146685000Y-57785000D01*
X150495000Y-57785000D01*
X150495000Y-61595000D01*
G36*
X136525000Y-61595000D02*
G01*
X134620000Y-61595000D01*
X134620000Y-59690000D01*
X136525000Y-59690000D01*
X136525000Y-61595000D01*
G37*
X136525000Y-61595000D02*
X134620000Y-61595000D01*
X134620000Y-59690000D01*
X136525000Y-59690000D01*
X136525000Y-61595000D01*
X192405000Y-57785000D02*
X188595000Y-57785000D01*
X192405000Y-61595000D02*
X192405000Y-57785000D01*
X188595000Y-61595000D02*
X192405000Y-61595000D01*
X188595000Y-57785000D02*
X188595000Y-61595000D01*
X150495000Y-57785000D02*
X146685000Y-57785000D01*
X146685000Y-61595000D02*
X150495000Y-61595000D01*
X150495000Y-61595000D02*
X150495000Y-57785000D01*
X146685000Y-57785000D02*
X146685000Y-61595000D01*
X136525000Y-61595000D02*
X136525000Y-57785000D01*
X132715000Y-57785000D02*
X132715000Y-61595000D01*
X136525000Y-57785000D02*
X132715000Y-57785000D01*
X132715000Y-61595000D02*
X136525000Y-61595000D01*
G36*
X134620000Y-59690000D02*
G01*
X132715000Y-59690000D01*
X132715000Y-57785000D01*
X134620000Y-57785000D01*
X134620000Y-59690000D01*
G37*
X134620000Y-59690000D02*
X132715000Y-59690000D01*
X132715000Y-57785000D01*
X134620000Y-57785000D01*
X134620000Y-59690000D01*
X122555000Y-57785000D02*
X118745000Y-57785000D01*
X122555000Y-61595000D02*
X122555000Y-57785000D01*
X118745000Y-57785000D02*
X118745000Y-61595000D01*
G36*
X122555000Y-61595000D02*
G01*
X120650000Y-61595000D01*
X120650000Y-57785000D01*
X122555000Y-57785000D01*
X122555000Y-61595000D01*
G37*
X122555000Y-61595000D02*
X120650000Y-61595000D01*
X120650000Y-57785000D01*
X122555000Y-57785000D01*
X122555000Y-61595000D01*
X118745000Y-61595000D02*
X122555000Y-61595000D01*
X108585000Y-61595000D02*
X108585000Y-57785000D01*
X104775000Y-57785000D02*
X104775000Y-61595000D01*
X108585000Y-57785000D02*
X104775000Y-57785000D01*
G36*
X108585000Y-61595000D02*
G01*
X106680000Y-61595000D01*
X106680000Y-59690000D01*
X108585000Y-59690000D01*
X108585000Y-61595000D01*
G37*
X108585000Y-61595000D02*
X106680000Y-61595000D01*
X106680000Y-59690000D01*
X108585000Y-59690000D01*
X108585000Y-61595000D01*
X104775000Y-61595000D02*
X108585000Y-61595000D01*
G36*
X94615000Y-59690000D02*
G01*
X90805000Y-59690000D01*
X90805000Y-57785000D01*
X94615000Y-57785000D01*
X94615000Y-59690000D01*
G37*
X94615000Y-59690000D02*
X90805000Y-59690000D01*
X90805000Y-57785000D01*
X94615000Y-57785000D01*
X94615000Y-59690000D01*
X90805000Y-61595000D02*
X94615000Y-61595000D01*
X90805000Y-57785000D02*
X90805000Y-61595000D01*
X94615000Y-57785000D02*
X90805000Y-57785000D01*
X94615000Y-61595000D02*
X94615000Y-57785000D01*
X76835000Y-61595000D02*
X80645000Y-61595000D01*
X76835000Y-57785000D02*
X76835000Y-61595000D01*
X80645000Y-57785000D02*
X76835000Y-57785000D01*
X80645000Y-61595000D02*
X80645000Y-57785000D01*
G36*
X78740000Y-59690000D02*
G01*
X76835000Y-59690000D01*
X76835000Y-57785000D01*
X78740000Y-57785000D01*
X78740000Y-59690000D01*
G37*
X78740000Y-59690000D02*
X76835000Y-59690000D01*
X76835000Y-57785000D01*
X78740000Y-57785000D01*
X78740000Y-59690000D01*
X66675000Y-61595000D02*
X66675000Y-57785000D01*
X62865000Y-61595000D02*
X66675000Y-61595000D01*
X62865000Y-57785000D02*
X62865000Y-61595000D01*
X66675000Y-57785000D02*
X62865000Y-57785000D01*
G36*
X66675000Y-59690000D02*
G01*
X64770000Y-59690000D01*
X64770000Y-57785000D01*
X66675000Y-57785000D01*
X66675000Y-59690000D01*
G37*
X66675000Y-59690000D02*
X64770000Y-59690000D01*
X64770000Y-57785000D01*
X66675000Y-57785000D01*
X66675000Y-59690000D01*
D11*
X144145000Y-53340000D02*
X142875000Y-53340000D01*
X144145000Y-52070000D02*
X144145000Y-53340000D01*
X146685000Y-52070000D02*
X144145000Y-52070000D01*
X146685000Y-53340000D02*
X146685000Y-52070000D01*
X147955000Y-53340000D02*
X146685000Y-53340000D01*
X145415000Y-55880000D02*
X147955000Y-53340000D01*
X142875000Y-53340000D02*
X145415000Y-55880000D01*
X133985000Y-54610000D02*
X131445000Y-52070000D01*
X132715000Y-54610000D02*
X133985000Y-54610000D01*
X132715000Y-55880000D02*
X132715000Y-54610000D01*
X130175000Y-55880000D02*
X132715000Y-55880000D01*
X130175000Y-54610000D02*
X130175000Y-55880000D01*
X128905000Y-54610000D02*
X130175000Y-54610000D01*
X131445000Y-52070000D02*
X128905000Y-54610000D01*
X117475000Y-55880000D02*
X115570000Y-53975000D01*
X117475000Y-54610000D02*
X117475000Y-55880000D01*
X120015000Y-54610000D02*
X117475000Y-54610000D01*
X120015000Y-53340000D02*
X120015000Y-54610000D01*
X117475000Y-53340000D02*
X120015000Y-53340000D01*
X117475000Y-52070000D02*
X117475000Y-53340000D01*
X115570000Y-53975000D02*
X117475000Y-52070000D01*
X156845000Y-55245000D02*
X156845000Y-53975000D01*
X159385000Y-55245000D02*
X156845000Y-55245000D01*
X159385000Y-56515000D02*
X159385000Y-55245000D01*
X161290000Y-54610000D02*
X159385000Y-56515000D01*
X159385000Y-52705000D02*
X161290000Y-54610000D01*
X159385000Y-53975000D02*
X159385000Y-52705000D01*
X156845000Y-53975000D02*
X159385000Y-53975000D01*
D10*
X168707380Y-53910000D02*
X168555000Y-53843333D01*
X168326428Y-53843333D01*
X168097857Y-53910000D01*
X167945476Y-54043333D01*
X167869285Y-54176666D01*
X167793095Y-54443333D01*
X167793095Y-54643333D01*
X167869285Y-54910000D01*
X167945476Y-55043333D01*
X168097857Y-55176666D01*
X168326428Y-55243333D01*
X168478809Y-55243333D01*
X168707380Y-55176666D01*
X168783571Y-55110000D01*
X168783571Y-54643333D01*
X168478809Y-54643333D01*
X170383571Y-55243333D02*
X169850238Y-54576666D01*
X169469285Y-55243333D02*
X169469285Y-53843333D01*
X170078809Y-53843333D01*
X170231190Y-53910000D01*
X170307380Y-53976666D01*
X170383571Y-54110000D01*
X170383571Y-54310000D01*
X170307380Y-54443333D01*
X170231190Y-54510000D01*
X170078809Y-54576666D01*
X169469285Y-54576666D01*
X170993095Y-54843333D02*
X171755000Y-54843333D01*
X170840714Y-55243333D02*
X171374047Y-53843333D01*
X171907380Y-55243333D01*
X172440714Y-55243333D02*
X172440714Y-53843333D01*
X173050238Y-53843333D01*
X173202619Y-53910000D01*
X173278809Y-53976666D01*
X173355000Y-54110000D01*
X173355000Y-54310000D01*
X173278809Y-54443333D01*
X173202619Y-54510000D01*
X173050238Y-54576666D01*
X172440714Y-54576666D01*
X174040714Y-55243333D02*
X174040714Y-53843333D01*
X174040714Y-54510000D02*
X174955000Y-54510000D01*
X174955000Y-55243333D02*
X174955000Y-53843333D01*
X175716904Y-55243333D02*
X175716904Y-53843333D01*
X177393095Y-55110000D02*
X177316904Y-55176666D01*
X177088333Y-55243333D01*
X176935952Y-55243333D01*
X176707380Y-55176666D01*
X176555000Y-55043333D01*
X176478809Y-54910000D01*
X176402619Y-54643333D01*
X176402619Y-54443333D01*
X176478809Y-54176666D01*
X176555000Y-54043333D01*
X176707380Y-53910000D01*
X176935952Y-53843333D01*
X177088333Y-53843333D01*
X177316904Y-53910000D01*
X177393095Y-53976666D01*
X178002619Y-55176666D02*
X178231190Y-55243333D01*
X178612142Y-55243333D01*
X178764523Y-55176666D01*
X178840714Y-55110000D01*
X178916904Y-54976666D01*
X178916904Y-54843333D01*
X178840714Y-54710000D01*
X178764523Y-54643333D01*
X178612142Y-54576666D01*
X178307380Y-54510000D01*
X178155000Y-54443333D01*
X178078809Y-54376666D01*
X178002619Y-54243333D01*
X178002619Y-54110000D01*
X178078809Y-53976666D01*
X178155000Y-53910000D01*
X178307380Y-53843333D01*
X178688333Y-53843333D01*
X178916904Y-53910000D01*
X183477380Y-55243333D02*
X183477380Y-53843333D01*
X183858333Y-53843333D01*
X184086904Y-53910000D01*
X184239285Y-54043333D01*
X184315476Y-54176666D01*
X184391666Y-54443333D01*
X184391666Y-54643333D01*
X184315476Y-54910000D01*
X184239285Y-55043333D01*
X184086904Y-55176666D01*
X183858333Y-55243333D01*
X183477380Y-55243333D01*
X185077380Y-54510000D02*
X185610714Y-54510000D01*
X185839285Y-55243333D02*
X185077380Y-55243333D01*
X185077380Y-53843333D01*
X185839285Y-53843333D01*
X187286904Y-55243333D02*
X186525000Y-55243333D01*
X186525000Y-53843333D01*
X187820238Y-54510000D02*
X188353571Y-54510000D01*
X188582142Y-55243333D02*
X187820238Y-55243333D01*
X187820238Y-53843333D01*
X188582142Y-53843333D01*
X189039285Y-53843333D02*
X189953571Y-53843333D01*
X189496428Y-55243333D02*
X189496428Y-53843333D01*
X190486904Y-54510000D02*
X191020238Y-54510000D01*
X191248809Y-55243333D02*
X190486904Y-55243333D01*
X190486904Y-53843333D01*
X191248809Y-53843333D01*
X98971666Y-53458333D02*
X98971666Y-52058333D01*
X99733571Y-53458333D02*
X99733571Y-52058333D01*
X100647857Y-53458333D01*
X100647857Y-52058333D01*
X101181190Y-52058333D02*
X101714523Y-53458333D01*
X102247857Y-52058333D01*
X102781190Y-52725000D02*
X103314523Y-52725000D01*
X103543095Y-53458333D02*
X102781190Y-53458333D01*
X102781190Y-52058333D01*
X103543095Y-52058333D01*
X105143095Y-53458333D02*
X104609761Y-52791666D01*
X104228809Y-53458333D02*
X104228809Y-52058333D01*
X104838333Y-52058333D01*
X104990714Y-52125000D01*
X105066904Y-52191666D01*
X105143095Y-52325000D01*
X105143095Y-52525000D01*
X105066904Y-52658333D01*
X104990714Y-52725000D01*
X104838333Y-52791666D01*
X104228809Y-52791666D01*
X105752619Y-53391666D02*
X105981190Y-53458333D01*
X106362142Y-53458333D01*
X106514523Y-53391666D01*
X106590714Y-53325000D01*
X106666904Y-53191666D01*
X106666904Y-53058333D01*
X106590714Y-52925000D01*
X106514523Y-52858333D01*
X106362142Y-52791666D01*
X106057380Y-52725000D01*
X105905000Y-52658333D01*
X105828809Y-52591666D01*
X105752619Y-52458333D01*
X105752619Y-52325000D01*
X105828809Y-52191666D01*
X105905000Y-52125000D01*
X106057380Y-52058333D01*
X106438333Y-52058333D01*
X106666904Y-52125000D01*
X107352619Y-52725000D02*
X107885952Y-52725000D01*
X108114523Y-53458333D02*
X107352619Y-53458333D01*
X107352619Y-52058333D01*
X108114523Y-52058333D01*
X100228809Y-54358333D02*
X100762142Y-55758333D01*
X101295476Y-54358333D01*
X101828809Y-55758333D02*
X101828809Y-54358333D01*
X102590714Y-55758333D02*
X102590714Y-54358333D01*
X102971666Y-54358333D01*
X103200238Y-54425000D01*
X103352619Y-54558333D01*
X103428809Y-54691666D01*
X103505000Y-54958333D01*
X103505000Y-55158333D01*
X103428809Y-55425000D01*
X103352619Y-55558333D01*
X103200238Y-55691666D01*
X102971666Y-55758333D01*
X102590714Y-55758333D01*
X104190714Y-55025000D02*
X104724047Y-55025000D01*
X104952619Y-55758333D02*
X104190714Y-55758333D01*
X104190714Y-54358333D01*
X104952619Y-54358333D01*
X105943095Y-54358333D02*
X106247857Y-54358333D01*
X106400238Y-54425000D01*
X106552619Y-54558333D01*
X106628809Y-54825000D01*
X106628809Y-55291666D01*
X106552619Y-55558333D01*
X106400238Y-55691666D01*
X106247857Y-55758333D01*
X105943095Y-55758333D01*
X105790714Y-55691666D01*
X105638333Y-55558333D01*
X105562142Y-55291666D01*
X105562142Y-54825000D01*
X105638333Y-54558333D01*
X105790714Y-54425000D01*
X105943095Y-54358333D01*
X69482380Y-56380000D02*
X69406190Y-56446666D01*
X69177619Y-56513333D01*
X69025238Y-56513333D01*
X68796666Y-56446666D01*
X68644285Y-56313333D01*
X68568095Y-56180000D01*
X68491904Y-55913333D01*
X68491904Y-55713333D01*
X68568095Y-55446666D01*
X68644285Y-55313333D01*
X68796666Y-55180000D01*
X69025238Y-55113333D01*
X69177619Y-55113333D01*
X69406190Y-55180000D01*
X69482380Y-55246666D01*
X70091904Y-56113333D02*
X70853809Y-56113333D01*
X69939523Y-56513333D02*
X70472857Y-55113333D01*
X71006190Y-56513333D01*
X71539523Y-56513333D02*
X71539523Y-55113333D01*
X72149047Y-55113333D01*
X72301428Y-55180000D01*
X72377619Y-55246666D01*
X72453809Y-55380000D01*
X72453809Y-55580000D01*
X72377619Y-55713333D01*
X72301428Y-55780000D01*
X72149047Y-55846666D01*
X71539523Y-55846666D01*
X73063333Y-56446666D02*
X73291904Y-56513333D01*
X73672857Y-56513333D01*
X73825238Y-56446666D01*
X73901428Y-56380000D01*
X73977619Y-56246666D01*
X73977619Y-56113333D01*
X73901428Y-55980000D01*
X73825238Y-55913333D01*
X73672857Y-55846666D01*
X73368095Y-55780000D01*
X73215714Y-55713333D01*
X73139523Y-55646666D01*
X73063333Y-55513333D01*
X73063333Y-55380000D01*
X73139523Y-55246666D01*
X73215714Y-55180000D01*
X73368095Y-55113333D01*
X73749047Y-55113333D01*
X73977619Y-55180000D01*
X76644285Y-56513333D02*
X75882380Y-56513333D01*
X75882380Y-55113333D01*
X77482380Y-55113333D02*
X77787142Y-55113333D01*
X77939523Y-55180000D01*
X78091904Y-55313333D01*
X78168095Y-55580000D01*
X78168095Y-56046666D01*
X78091904Y-56313333D01*
X77939523Y-56446666D01*
X77787142Y-56513333D01*
X77482380Y-56513333D01*
X77330000Y-56446666D01*
X77177619Y-56313333D01*
X77101428Y-56046666D01*
X77101428Y-55580000D01*
X77177619Y-55313333D01*
X77330000Y-55180000D01*
X77482380Y-55113333D01*
X79768095Y-56380000D02*
X79691904Y-56446666D01*
X79463333Y-56513333D01*
X79310952Y-56513333D01*
X79082380Y-56446666D01*
X78930000Y-56313333D01*
X78853809Y-56180000D01*
X78777619Y-55913333D01*
X78777619Y-55713333D01*
X78853809Y-55446666D01*
X78930000Y-55313333D01*
X79082380Y-55180000D01*
X79310952Y-55113333D01*
X79463333Y-55113333D01*
X79691904Y-55180000D01*
X79768095Y-55246666D01*
X80453809Y-56513333D02*
X80453809Y-55113333D01*
X81368095Y-56513333D02*
X80682380Y-55713333D01*
X81368095Y-55113333D02*
X80453809Y-55913333D01*
X57747380Y-53458333D02*
X57747380Y-52058333D01*
X58128333Y-52058333D01*
X58356904Y-52125000D01*
X58509285Y-52258333D01*
X58585476Y-52391666D01*
X58661666Y-52658333D01*
X58661666Y-52858333D01*
X58585476Y-53125000D01*
X58509285Y-53258333D01*
X58356904Y-53391666D01*
X58128333Y-53458333D01*
X57747380Y-53458333D01*
X59347380Y-52725000D02*
X59880714Y-52725000D01*
X60109285Y-53458333D02*
X59347380Y-53458333D01*
X59347380Y-52058333D01*
X60109285Y-52058333D01*
X61556904Y-53458333D02*
X60794999Y-53458333D01*
X60794999Y-52058333D01*
X62090238Y-52725000D02*
X62623571Y-52725000D01*
X62852142Y-53458333D02*
X62090238Y-53458333D01*
X62090238Y-52058333D01*
X62852142Y-52058333D01*
X63309285Y-52058333D02*
X64223571Y-52058333D01*
X63766428Y-53458333D02*
X63766428Y-52058333D01*
X64756904Y-52725000D02*
X65290238Y-52725000D01*
X65518809Y-53458333D02*
X64756904Y-53458333D01*
X64756904Y-52058333D01*
X65518809Y-52058333D01*
X60147380Y-55758333D02*
X59385476Y-55758333D01*
X59385476Y-54358333D01*
X60680714Y-55758333D02*
X60680714Y-54358333D01*
X61442619Y-55758333D02*
X61442619Y-54358333D01*
X62356904Y-55758333D01*
X62356904Y-54358333D01*
X63118809Y-55025000D02*
X63652142Y-55025000D01*
X63880714Y-55758333D02*
X63118809Y-55758333D01*
X63118809Y-54358333D01*
X63880714Y-54358333D01*
X60960000Y-58499285D02*
X61055238Y-58594523D01*
X60960000Y-58689761D01*
X60864761Y-58594523D01*
X60960000Y-58499285D01*
X60960000Y-58689761D01*
X60960000Y-57927857D02*
X60864761Y-56785000D01*
X60960000Y-56689761D01*
X61055238Y-56785000D01*
X60960000Y-57927857D01*
X60960000Y-56689761D01*
X94464285Y-97361428D02*
X95607142Y-97361428D01*
X94464285Y-98694761D02*
X96035714Y-98694761D01*
X94892857Y-98694761D02*
X94892857Y-96980476D01*
X95035714Y-96790000D01*
X95321428Y-96694761D01*
X95750000Y-96694761D01*
X96035714Y-96790000D01*
X109124761Y-98758285D02*
X109220000Y-98853523D01*
X109124761Y-98948761D01*
X109029523Y-98853523D01*
X109124761Y-98758285D01*
X109124761Y-98948761D01*
X108743809Y-97044000D02*
X108934285Y-96948761D01*
X109410476Y-96948761D01*
X109600952Y-97044000D01*
X109696190Y-97234476D01*
X109696190Y-97424952D01*
X109600952Y-97615428D01*
X109505714Y-97710666D01*
X109315238Y-97805904D01*
X109220000Y-97901142D01*
X109124761Y-98091619D01*
X109124761Y-98186857D01*
X124047142Y-96897142D02*
X122332857Y-98825714D01*
D11*
X137160000Y-97417142D02*
X137160000Y-98131428D01*
X136445714Y-97845714D02*
X137160000Y-98131428D01*
X137874285Y-97845714D01*
X136731428Y-98702857D02*
X137160000Y-98131428D01*
X137588571Y-98702857D01*
X151272857Y-97734285D02*
X151272857Y-97877142D01*
X151130000Y-98162857D01*
X150987142Y-98305714D01*
X165100000Y-97591428D02*
X165242857Y-97734285D01*
X165100000Y-97877142D01*
X164957142Y-97734285D01*
X165100000Y-97591428D01*
X165100000Y-97877142D01*
X81280000Y-98861428D02*
X81422857Y-99004285D01*
X81280000Y-99147142D01*
X81137142Y-99004285D01*
X81280000Y-98861428D01*
X81280000Y-99147142D01*
X81280000Y-97290000D02*
X81422857Y-97432857D01*
X81280000Y-97575714D01*
X81137142Y-97432857D01*
X81280000Y-97290000D01*
X81280000Y-97575714D01*
D10*
X186185059Y-110982142D02*
X186458869Y-111077380D01*
X186542202Y-111172619D01*
X186613630Y-111363095D01*
X186577916Y-111648809D01*
X186458869Y-111839285D01*
X186351726Y-111934523D01*
X186149345Y-112029761D01*
X185387440Y-112029761D01*
X185637440Y-110029761D01*
X186304107Y-110029761D01*
X186482678Y-110125000D01*
X186566011Y-110220238D01*
X186637440Y-110410714D01*
X186613630Y-110601190D01*
X186494583Y-110791666D01*
X186387440Y-110886904D01*
X186185059Y-110982142D01*
X185518392Y-110982142D01*
X188530297Y-112029761D02*
X187982678Y-111077380D01*
X187387440Y-112029761D02*
X187637440Y-110029761D01*
X188399345Y-110029761D01*
X188577916Y-110125000D01*
X188661250Y-110220238D01*
X188732678Y-110410714D01*
X188696964Y-110696428D01*
X188577916Y-110886904D01*
X188470773Y-110982142D01*
X188268392Y-111077380D01*
X187506488Y-111077380D01*
X189518392Y-110982142D02*
X190185059Y-110982142D01*
X190339821Y-112029761D02*
X189387440Y-112029761D01*
X189637440Y-110029761D01*
X190589821Y-110029761D01*
X191173154Y-111458333D02*
X192125535Y-111458333D01*
X190911250Y-112029761D02*
X191827916Y-110029761D01*
X192244583Y-112029761D01*
X192911249Y-112029761D02*
X193161249Y-110029761D01*
X194054107Y-112029761D02*
X193339821Y-110886904D01*
X194304107Y-110029761D02*
X193018392Y-111172619D01*
D13*
X208280000Y-48895000D02*
X208280000Y-110490000D01*
X55245000Y-114980128D02*
G75*
G02X50800000Y-111125000I0J4490128D01*
G01*
X208280000Y-110490000D02*
G75*
G02X203835000Y-114935000I-4445000J0D01*
G01*
X203835000Y-44450000D02*
G75*
G02X208280000Y-48895000I0J-4445000D01*
G01*
X50800000Y-48895000D02*
G75*
G02X55245000Y-44450000I4445000J0D01*
G01*
X50800000Y-111125000D02*
X50800000Y-48895000D01*
X203835000Y-114935000D02*
X55245000Y-114980128D01*
X55245000Y-44450000D02*
X203835000Y-44450000D01*
D14*
X187690000Y-109005000D02*
X192190000Y-109005000D01*
X186440000Y-105005000D02*
X186440000Y-106505000D01*
X192190000Y-102505000D02*
X187690000Y-102505000D01*
X193440000Y-106505000D02*
X193440000Y-105005000D01*
X159750000Y-109005000D02*
X164250000Y-109005000D01*
X158500000Y-105005000D02*
X158500000Y-106505000D01*
X164250000Y-102505000D02*
X159750000Y-102505000D01*
X165500000Y-106505000D02*
X165500000Y-105005000D01*
X145780000Y-109005000D02*
X150280000Y-109005000D01*
X144530000Y-105005000D02*
X144530000Y-106505000D01*
X150280000Y-102505000D02*
X145780000Y-102505000D01*
X151530000Y-106505000D02*
X151530000Y-105005000D01*
X131810000Y-109005000D02*
X136310000Y-109005000D01*
X130560000Y-105005000D02*
X130560000Y-106505000D01*
X136310000Y-102505000D02*
X131810000Y-102505000D01*
X137560000Y-106505000D02*
X137560000Y-105005000D01*
X117840000Y-109005000D02*
X122340000Y-109005000D01*
X116590000Y-105005000D02*
X116590000Y-106505000D01*
X122340000Y-102505000D02*
X117840000Y-102505000D01*
X123590000Y-106505000D02*
X123590000Y-105005000D01*
X103870000Y-109005000D02*
X108370000Y-109005000D01*
X102620000Y-105005000D02*
X102620000Y-106505000D01*
X108370000Y-102505000D02*
X103870000Y-102505000D01*
X109620000Y-106505000D02*
X109620000Y-105005000D01*
X89900000Y-109005000D02*
X94400000Y-109005000D01*
X88650000Y-105005000D02*
X88650000Y-106505000D01*
X94400000Y-102505000D02*
X89900000Y-102505000D01*
X95650000Y-106505000D02*
X95650000Y-105005000D01*
X75930000Y-109005000D02*
X80430000Y-109005000D01*
X74680000Y-105005000D02*
X74680000Y-106505000D01*
X80430000Y-102505000D02*
X75930000Y-102505000D01*
X81680000Y-106505000D02*
X81680000Y-105005000D01*
X173720000Y-109005000D02*
X178220000Y-109005000D01*
X172470000Y-105005000D02*
X172470000Y-106505000D01*
X178220000Y-102505000D02*
X173720000Y-102505000D01*
X179470000Y-106505000D02*
X179470000Y-105005000D01*
X61960000Y-109005000D02*
X66460000Y-109005000D01*
X60710000Y-105005000D02*
X60710000Y-106505000D01*
X66460000Y-102505000D02*
X61960000Y-102505000D01*
X67710000Y-106505000D02*
X67710000Y-105005000D01*
X195310000Y-95670000D02*
X199810000Y-95670000D01*
X194060000Y-91670000D02*
X194060000Y-93170000D01*
X199810000Y-89170000D02*
X195310000Y-89170000D01*
X201060000Y-93170000D02*
X201060000Y-91670000D01*
X181340000Y-95670000D02*
X185840000Y-95670000D01*
X180090000Y-91670000D02*
X180090000Y-93170000D01*
X185840000Y-89170000D02*
X181340000Y-89170000D01*
X187090000Y-93170000D02*
X187090000Y-91670000D01*
X167370000Y-95670000D02*
X171870000Y-95670000D01*
X166120000Y-91670000D02*
X166120000Y-93170000D01*
X171870000Y-89170000D02*
X167370000Y-89170000D01*
X173120000Y-93170000D02*
X173120000Y-91670000D01*
X153400000Y-95670000D02*
X157900000Y-95670000D01*
X152150000Y-91670000D02*
X152150000Y-93170000D01*
X157900000Y-89170000D02*
X153400000Y-89170000D01*
X159150000Y-93170000D02*
X159150000Y-91670000D01*
X139430000Y-95670000D02*
X143930000Y-95670000D01*
X138180000Y-91670000D02*
X138180000Y-93170000D01*
X143930000Y-89170000D02*
X139430000Y-89170000D01*
X145180000Y-93170000D02*
X145180000Y-91670000D01*
X125460000Y-95670000D02*
X129960000Y-95670000D01*
X124210000Y-91670000D02*
X124210000Y-93170000D01*
X129960000Y-89170000D02*
X125460000Y-89170000D01*
X131210000Y-93170000D02*
X131210000Y-91670000D01*
X111490000Y-95670000D02*
X115990000Y-95670000D01*
X110240000Y-91670000D02*
X110240000Y-93170000D01*
X115990000Y-89170000D02*
X111490000Y-89170000D01*
X117240000Y-93170000D02*
X117240000Y-91670000D01*
X97520000Y-95670000D02*
X102020000Y-95670000D01*
X96270000Y-91670000D02*
X96270000Y-93170000D01*
X102020000Y-89170000D02*
X97520000Y-89170000D01*
X103270000Y-93170000D02*
X103270000Y-91670000D01*
X83550000Y-95670000D02*
X88050000Y-95670000D01*
X82300000Y-91670000D02*
X82300000Y-93170000D01*
X88050000Y-89170000D02*
X83550000Y-89170000D01*
X89300000Y-93170000D02*
X89300000Y-91670000D01*
X69580000Y-95670000D02*
X74080000Y-95670000D01*
X68330000Y-91670000D02*
X68330000Y-93170000D01*
X74080000Y-89170000D02*
X69580000Y-89170000D01*
X75330000Y-93170000D02*
X75330000Y-91670000D01*
X192770000Y-82335000D02*
X197270000Y-82335000D01*
X191520000Y-78335000D02*
X191520000Y-79835000D01*
X197270000Y-75835000D02*
X192770000Y-75835000D01*
X198520000Y-79835000D02*
X198520000Y-78335000D01*
X178800000Y-82335000D02*
X183300000Y-82335000D01*
X177550000Y-78335000D02*
X177550000Y-79835000D01*
X183300000Y-75835000D02*
X178800000Y-75835000D01*
X184550000Y-79835000D02*
X184550000Y-78335000D01*
X164830000Y-82335000D02*
X169330000Y-82335000D01*
X163580000Y-78335000D02*
X163580000Y-79835000D01*
X169330000Y-75835000D02*
X164830000Y-75835000D01*
X170580000Y-79835000D02*
X170580000Y-78335000D01*
X150860000Y-82335000D02*
X155360000Y-82335000D01*
X149610000Y-78335000D02*
X149610000Y-79835000D01*
X155360000Y-75835000D02*
X150860000Y-75835000D01*
X156610000Y-79835000D02*
X156610000Y-78335000D01*
X136890000Y-82335000D02*
X141390000Y-82335000D01*
X135640000Y-78335000D02*
X135640000Y-79835000D01*
X141390000Y-75835000D02*
X136890000Y-75835000D01*
X142640000Y-79835000D02*
X142640000Y-78335000D01*
X122920000Y-82335000D02*
X127420000Y-82335000D01*
X121670000Y-78335000D02*
X121670000Y-79835000D01*
X127420000Y-75835000D02*
X122920000Y-75835000D01*
X128670000Y-79835000D02*
X128670000Y-78335000D01*
X108950000Y-82335000D02*
X113450000Y-82335000D01*
X107700000Y-78335000D02*
X107700000Y-79835000D01*
X113450000Y-75835000D02*
X108950000Y-75835000D01*
X114700000Y-79835000D02*
X114700000Y-78335000D01*
X94980000Y-82335000D02*
X99480000Y-82335000D01*
X93730000Y-78335000D02*
X93730000Y-79835000D01*
X99480000Y-75835000D02*
X94980000Y-75835000D01*
X100730000Y-79835000D02*
X100730000Y-78335000D01*
X81010000Y-82335000D02*
X85510000Y-82335000D01*
X79760000Y-78335000D02*
X79760000Y-79835000D01*
X85510000Y-75835000D02*
X81010000Y-75835000D01*
X86760000Y-79835000D02*
X86760000Y-78335000D01*
X67040000Y-82335000D02*
X71540000Y-82335000D01*
X65790000Y-78335000D02*
X65790000Y-79835000D01*
X71540000Y-75835000D02*
X67040000Y-75835000D01*
X72790000Y-79835000D02*
X72790000Y-78335000D01*
X185150000Y-69000000D02*
X189650000Y-69000000D01*
X183900000Y-65000000D02*
X183900000Y-66500000D01*
X189650000Y-62500000D02*
X185150000Y-62500000D01*
X190900000Y-66500000D02*
X190900000Y-65000000D01*
X171180000Y-69000000D02*
X175680000Y-69000000D01*
X169930000Y-65000000D02*
X169930000Y-66500000D01*
X175680000Y-62500000D02*
X171180000Y-62500000D01*
X176930000Y-66500000D02*
X176930000Y-65000000D01*
X157210000Y-69000000D02*
X161710000Y-69000000D01*
X155960000Y-65000000D02*
X155960000Y-66500000D01*
X161710000Y-62500000D02*
X157210000Y-62500000D01*
X162960000Y-66500000D02*
X162960000Y-65000000D01*
X143240000Y-69000000D02*
X147740000Y-69000000D01*
X141990000Y-65000000D02*
X141990000Y-66500000D01*
X147740000Y-62500000D02*
X143240000Y-62500000D01*
X148990000Y-66500000D02*
X148990000Y-65000000D01*
X129270000Y-69000000D02*
X133770000Y-69000000D01*
X128020000Y-65000000D02*
X128020000Y-66500000D01*
X133770000Y-62500000D02*
X129270000Y-62500000D01*
X135020000Y-66500000D02*
X135020000Y-65000000D01*
X115300000Y-69000000D02*
X119800000Y-69000000D01*
X114050000Y-65000000D02*
X114050000Y-66500000D01*
X119800000Y-62500000D02*
X115300000Y-62500000D01*
X121050000Y-66500000D02*
X121050000Y-65000000D01*
X101330000Y-69000000D02*
X105830000Y-69000000D01*
X100080000Y-65000000D02*
X100080000Y-66500000D01*
X105830000Y-62500000D02*
X101330000Y-62500000D01*
X107080000Y-66500000D02*
X107080000Y-65000000D01*
X87360000Y-69000000D02*
X91860000Y-69000000D01*
X86110000Y-65000000D02*
X86110000Y-66500000D01*
X91860000Y-62500000D02*
X87360000Y-62500000D01*
X93110000Y-66500000D02*
X93110000Y-65000000D01*
X73390000Y-69000000D02*
X77890000Y-69000000D01*
X72140000Y-65000000D02*
X72140000Y-66500000D01*
X77890000Y-62500000D02*
X73390000Y-62500000D01*
X79140000Y-66500000D02*
X79140000Y-65000000D01*
X59420000Y-69000000D02*
X63920000Y-69000000D01*
X58170000Y-65000000D02*
X58170000Y-66500000D01*
X63920000Y-62500000D02*
X59420000Y-62500000D01*
X65170000Y-66500000D02*
X65170000Y-65000000D01*
X132640000Y-48575000D02*
X132640000Y-46675000D01*
X132640000Y-46675000D02*
X127940000Y-46675000D01*
X132640000Y-48575000D02*
X127940000Y-48575000D01*
D15*
X66685000Y-54635000D02*
X66685000Y-45695000D01*
X66685000Y-45695000D02*
X94605000Y-45695000D01*
X94605000Y-45695000D02*
X94605000Y-54635000D01*
X94605000Y-54635000D02*
X66685000Y-54635000D01*
X78420000Y-54635000D02*
X78420000Y-53335000D01*
X78420000Y-53335000D02*
X67885000Y-53335000D01*
X67885000Y-53335000D02*
X67885000Y-46995000D01*
X67885000Y-46995000D02*
X93405000Y-46995000D01*
X93405000Y-46995000D02*
X93405000Y-53335000D01*
X93405000Y-53335000D02*
X82870000Y-53335000D01*
X82870000Y-53335000D02*
X82870000Y-54635000D01*
X80395000Y-45695000D02*
X80395000Y-45495000D01*
X80395000Y-45495000D02*
X80895000Y-45495000D01*
X80895000Y-45495000D02*
X80895000Y-45695000D01*
X80395000Y-45595000D02*
X80895000Y-45595000D01*
X91685000Y-45695000D02*
X91685000Y-45495000D01*
X91685000Y-45495000D02*
X92185000Y-45495000D01*
X92185000Y-45495000D02*
X92185000Y-45695000D01*
X91685000Y-45595000D02*
X92185000Y-45595000D01*
X69105000Y-45695000D02*
X69105000Y-45495000D01*
X69105000Y-45495000D02*
X69605000Y-45495000D01*
X69605000Y-45495000D02*
X69605000Y-45695000D01*
X69105000Y-45595000D02*
X69605000Y-45595000D01*
X69555000Y-52035000D02*
X69555000Y-50835000D01*
X69555000Y-50835000D02*
X70155000Y-51435000D01*
X70155000Y-51435000D02*
X69555000Y-52035000D01*
D14*
X99025000Y-48505000D02*
X97825000Y-48505000D01*
X97825000Y-46745000D02*
X99025000Y-46745000D01*
D15*
X188130476Y-103909761D02*
X188273333Y-103957380D01*
X188511428Y-103957380D01*
X188606666Y-103909761D01*
X188654285Y-103862142D01*
X188701904Y-103766904D01*
X188701904Y-103671666D01*
X188654285Y-103576428D01*
X188606666Y-103528809D01*
X188511428Y-103481190D01*
X188320952Y-103433571D01*
X188225714Y-103385952D01*
X188178095Y-103338333D01*
X188130476Y-103243095D01*
X188130476Y-103147857D01*
X188178095Y-103052619D01*
X188225714Y-103005000D01*
X188320952Y-102957380D01*
X188559047Y-102957380D01*
X188701904Y-103005000D01*
X189035238Y-102957380D02*
X189273333Y-103957380D01*
X189463809Y-103243095D01*
X189654285Y-103957380D01*
X189892380Y-102957380D01*
X190701904Y-103290714D02*
X190701904Y-103957380D01*
X190463809Y-102909761D02*
X190225714Y-103624047D01*
X190844761Y-103624047D01*
X191416190Y-102957380D02*
X191511428Y-102957380D01*
X191606666Y-103005000D01*
X191654285Y-103052619D01*
X191701904Y-103147857D01*
X191749523Y-103338333D01*
X191749523Y-103576428D01*
X191701904Y-103766904D01*
X191654285Y-103862142D01*
X191606666Y-103909761D01*
X191511428Y-103957380D01*
X191416190Y-103957380D01*
X191320952Y-103909761D01*
X191273333Y-103862142D01*
X191225714Y-103766904D01*
X191178095Y-103576428D01*
X191178095Y-103338333D01*
X191225714Y-103147857D01*
X191273333Y-103052619D01*
X191320952Y-103005000D01*
X191416190Y-102957380D01*
D16*
X184473333Y-100909285D02*
X184830476Y-101052142D01*
X185425714Y-101052142D01*
X185663809Y-100909285D01*
X185782857Y-100766428D01*
X185901904Y-100480714D01*
X185901904Y-100195000D01*
X185782857Y-99909285D01*
X185663809Y-99766428D01*
X185425714Y-99623571D01*
X184949523Y-99480714D01*
X184711428Y-99337857D01*
X184592380Y-99195000D01*
X184473333Y-98909285D01*
X184473333Y-98623571D01*
X184592380Y-98337857D01*
X184711428Y-98195000D01*
X184949523Y-98052142D01*
X185544761Y-98052142D01*
X185901904Y-98195000D01*
X186973333Y-101052142D02*
X186973333Y-98052142D01*
X187925714Y-98052142D01*
X188163809Y-98195000D01*
X188282857Y-98337857D01*
X188401904Y-98623571D01*
X188401904Y-99052142D01*
X188282857Y-99337857D01*
X188163809Y-99480714D01*
X187925714Y-99623571D01*
X186973333Y-99623571D01*
X189354285Y-100195000D02*
X190544761Y-100195000D01*
X189116190Y-101052142D02*
X189949523Y-98052142D01*
X190782857Y-101052142D01*
X193044761Y-100766428D02*
X192925714Y-100909285D01*
X192568571Y-101052142D01*
X192330476Y-101052142D01*
X191973333Y-100909285D01*
X191735238Y-100623571D01*
X191616190Y-100337857D01*
X191497142Y-99766428D01*
X191497142Y-99337857D01*
X191616190Y-98766428D01*
X191735238Y-98480714D01*
X191973333Y-98195000D01*
X192330476Y-98052142D01*
X192568571Y-98052142D01*
X192925714Y-98195000D01*
X193044761Y-98337857D01*
X194116190Y-99480714D02*
X194949523Y-99480714D01*
X195306666Y-101052142D02*
X194116190Y-101052142D01*
X194116190Y-98052142D01*
X195306666Y-98052142D01*
D15*
X160190476Y-103909761D02*
X160333333Y-103957380D01*
X160571428Y-103957380D01*
X160666666Y-103909761D01*
X160714285Y-103862142D01*
X160761904Y-103766904D01*
X160761904Y-103671666D01*
X160714285Y-103576428D01*
X160666666Y-103528809D01*
X160571428Y-103481190D01*
X160380952Y-103433571D01*
X160285714Y-103385952D01*
X160238095Y-103338333D01*
X160190476Y-103243095D01*
X160190476Y-103147857D01*
X160238095Y-103052619D01*
X160285714Y-103005000D01*
X160380952Y-102957380D01*
X160619047Y-102957380D01*
X160761904Y-103005000D01*
X161095238Y-102957380D02*
X161333333Y-103957380D01*
X161523809Y-103243095D01*
X161714285Y-103957380D01*
X161952380Y-102957380D01*
X162238095Y-102957380D02*
X162857142Y-102957380D01*
X162523809Y-103338333D01*
X162666666Y-103338333D01*
X162761904Y-103385952D01*
X162809523Y-103433571D01*
X162857142Y-103528809D01*
X162857142Y-103766904D01*
X162809523Y-103862142D01*
X162761904Y-103909761D01*
X162666666Y-103957380D01*
X162380952Y-103957380D01*
X162285714Y-103909761D01*
X162238095Y-103862142D01*
X163333333Y-103957380D02*
X163523809Y-103957380D01*
X163619047Y-103909761D01*
X163666666Y-103862142D01*
X163761904Y-103719285D01*
X163809523Y-103528809D01*
X163809523Y-103147857D01*
X163761904Y-103052619D01*
X163714285Y-103005000D01*
X163619047Y-102957380D01*
X163428571Y-102957380D01*
X163333333Y-103005000D01*
X163285714Y-103052619D01*
X163238095Y-103147857D01*
X163238095Y-103385952D01*
X163285714Y-103481190D01*
X163333333Y-103528809D01*
X163428571Y-103576428D01*
X163619047Y-103576428D01*
X163714285Y-103528809D01*
X163761904Y-103481190D01*
X163809523Y-103385952D01*
D16*
X160950000Y-101052142D02*
X160950000Y-98052142D01*
X161950000Y-100195000D01*
X162950000Y-98052142D01*
X162950000Y-101052142D01*
D15*
X146220476Y-103909761D02*
X146363333Y-103957380D01*
X146601428Y-103957380D01*
X146696666Y-103909761D01*
X146744285Y-103862142D01*
X146791904Y-103766904D01*
X146791904Y-103671666D01*
X146744285Y-103576428D01*
X146696666Y-103528809D01*
X146601428Y-103481190D01*
X146410952Y-103433571D01*
X146315714Y-103385952D01*
X146268095Y-103338333D01*
X146220476Y-103243095D01*
X146220476Y-103147857D01*
X146268095Y-103052619D01*
X146315714Y-103005000D01*
X146410952Y-102957380D01*
X146649047Y-102957380D01*
X146791904Y-103005000D01*
X147125238Y-102957380D02*
X147363333Y-103957380D01*
X147553809Y-103243095D01*
X147744285Y-103957380D01*
X147982380Y-102957380D01*
X148268095Y-102957380D02*
X148887142Y-102957380D01*
X148553809Y-103338333D01*
X148696666Y-103338333D01*
X148791904Y-103385952D01*
X148839523Y-103433571D01*
X148887142Y-103528809D01*
X148887142Y-103766904D01*
X148839523Y-103862142D01*
X148791904Y-103909761D01*
X148696666Y-103957380D01*
X148410952Y-103957380D01*
X148315714Y-103909761D01*
X148268095Y-103862142D01*
X149458571Y-103385952D02*
X149363333Y-103338333D01*
X149315714Y-103290714D01*
X149268095Y-103195476D01*
X149268095Y-103147857D01*
X149315714Y-103052619D01*
X149363333Y-103005000D01*
X149458571Y-102957380D01*
X149649047Y-102957380D01*
X149744285Y-103005000D01*
X149791904Y-103052619D01*
X149839523Y-103147857D01*
X149839523Y-103195476D01*
X149791904Y-103290714D01*
X149744285Y-103338333D01*
X149649047Y-103385952D01*
X149458571Y-103385952D01*
X149363333Y-103433571D01*
X149315714Y-103481190D01*
X149268095Y-103576428D01*
X149268095Y-103766904D01*
X149315714Y-103862142D01*
X149363333Y-103909761D01*
X149458571Y-103957380D01*
X149649047Y-103957380D01*
X149744285Y-103909761D01*
X149791904Y-103862142D01*
X149839523Y-103766904D01*
X149839523Y-103576428D01*
X149791904Y-103481190D01*
X149744285Y-103433571D01*
X149649047Y-103385952D01*
D16*
X147097857Y-101052142D02*
X147097857Y-98052142D01*
X148812142Y-101052142D01*
X148812142Y-98052142D01*
D15*
X132250476Y-103909761D02*
X132393333Y-103957380D01*
X132631428Y-103957380D01*
X132726666Y-103909761D01*
X132774285Y-103862142D01*
X132821904Y-103766904D01*
X132821904Y-103671666D01*
X132774285Y-103576428D01*
X132726666Y-103528809D01*
X132631428Y-103481190D01*
X132440952Y-103433571D01*
X132345714Y-103385952D01*
X132298095Y-103338333D01*
X132250476Y-103243095D01*
X132250476Y-103147857D01*
X132298095Y-103052619D01*
X132345714Y-103005000D01*
X132440952Y-102957380D01*
X132679047Y-102957380D01*
X132821904Y-103005000D01*
X133155238Y-102957380D02*
X133393333Y-103957380D01*
X133583809Y-103243095D01*
X133774285Y-103957380D01*
X134012380Y-102957380D01*
X134298095Y-102957380D02*
X134917142Y-102957380D01*
X134583809Y-103338333D01*
X134726666Y-103338333D01*
X134821904Y-103385952D01*
X134869523Y-103433571D01*
X134917142Y-103528809D01*
X134917142Y-103766904D01*
X134869523Y-103862142D01*
X134821904Y-103909761D01*
X134726666Y-103957380D01*
X134440952Y-103957380D01*
X134345714Y-103909761D01*
X134298095Y-103862142D01*
X135250476Y-102957380D02*
X135917142Y-102957380D01*
X135488571Y-103957380D01*
D16*
X134199285Y-99480714D02*
X134627857Y-99623571D01*
X134770714Y-99766428D01*
X134913571Y-100052142D01*
X134913571Y-100480714D01*
X134770714Y-100766428D01*
X134627857Y-100909285D01*
X134342142Y-101052142D01*
X133199285Y-101052142D01*
X133199285Y-98052142D01*
X134199285Y-98052142D01*
X134485000Y-98195000D01*
X134627857Y-98337857D01*
X134770714Y-98623571D01*
X134770714Y-98909285D01*
X134627857Y-99195000D01*
X134485000Y-99337857D01*
X134199285Y-99480714D01*
X133199285Y-99480714D01*
D15*
X118280476Y-103909761D02*
X118423333Y-103957380D01*
X118661428Y-103957380D01*
X118756666Y-103909761D01*
X118804285Y-103862142D01*
X118851904Y-103766904D01*
X118851904Y-103671666D01*
X118804285Y-103576428D01*
X118756666Y-103528809D01*
X118661428Y-103481190D01*
X118470952Y-103433571D01*
X118375714Y-103385952D01*
X118328095Y-103338333D01*
X118280476Y-103243095D01*
X118280476Y-103147857D01*
X118328095Y-103052619D01*
X118375714Y-103005000D01*
X118470952Y-102957380D01*
X118709047Y-102957380D01*
X118851904Y-103005000D01*
X119185238Y-102957380D02*
X119423333Y-103957380D01*
X119613809Y-103243095D01*
X119804285Y-103957380D01*
X120042380Y-102957380D01*
X120328095Y-102957380D02*
X120947142Y-102957380D01*
X120613809Y-103338333D01*
X120756666Y-103338333D01*
X120851904Y-103385952D01*
X120899523Y-103433571D01*
X120947142Y-103528809D01*
X120947142Y-103766904D01*
X120899523Y-103862142D01*
X120851904Y-103909761D01*
X120756666Y-103957380D01*
X120470952Y-103957380D01*
X120375714Y-103909761D01*
X120328095Y-103862142D01*
X121804285Y-102957380D02*
X121613809Y-102957380D01*
X121518571Y-103005000D01*
X121470952Y-103052619D01*
X121375714Y-103195476D01*
X121328095Y-103385952D01*
X121328095Y-103766904D01*
X121375714Y-103862142D01*
X121423333Y-103909761D01*
X121518571Y-103957380D01*
X121709047Y-103957380D01*
X121804285Y-103909761D01*
X121851904Y-103862142D01*
X121899523Y-103766904D01*
X121899523Y-103528809D01*
X121851904Y-103433571D01*
X121804285Y-103385952D01*
X121709047Y-103338333D01*
X121518571Y-103338333D01*
X121423333Y-103385952D01*
X121375714Y-103433571D01*
X121328095Y-103528809D01*
D16*
X119040000Y-98052142D02*
X120040000Y-101052142D01*
X121040000Y-98052142D01*
D15*
X104310476Y-103909761D02*
X104453333Y-103957380D01*
X104691428Y-103957380D01*
X104786666Y-103909761D01*
X104834285Y-103862142D01*
X104881904Y-103766904D01*
X104881904Y-103671666D01*
X104834285Y-103576428D01*
X104786666Y-103528809D01*
X104691428Y-103481190D01*
X104500952Y-103433571D01*
X104405714Y-103385952D01*
X104358095Y-103338333D01*
X104310476Y-103243095D01*
X104310476Y-103147857D01*
X104358095Y-103052619D01*
X104405714Y-103005000D01*
X104500952Y-102957380D01*
X104739047Y-102957380D01*
X104881904Y-103005000D01*
X105215238Y-102957380D02*
X105453333Y-103957380D01*
X105643809Y-103243095D01*
X105834285Y-103957380D01*
X106072380Y-102957380D01*
X106358095Y-102957380D02*
X106977142Y-102957380D01*
X106643809Y-103338333D01*
X106786666Y-103338333D01*
X106881904Y-103385952D01*
X106929523Y-103433571D01*
X106977142Y-103528809D01*
X106977142Y-103766904D01*
X106929523Y-103862142D01*
X106881904Y-103909761D01*
X106786666Y-103957380D01*
X106500952Y-103957380D01*
X106405714Y-103909761D01*
X106358095Y-103862142D01*
X107881904Y-102957380D02*
X107405714Y-102957380D01*
X107358095Y-103433571D01*
X107405714Y-103385952D01*
X107500952Y-103338333D01*
X107739047Y-103338333D01*
X107834285Y-103385952D01*
X107881904Y-103433571D01*
X107929523Y-103528809D01*
X107929523Y-103766904D01*
X107881904Y-103862142D01*
X107834285Y-103909761D01*
X107739047Y-103957380D01*
X107500952Y-103957380D01*
X107405714Y-103909761D01*
X107358095Y-103862142D01*
D16*
X106973571Y-100766428D02*
X106830714Y-100909285D01*
X106402142Y-101052142D01*
X106116428Y-101052142D01*
X105687857Y-100909285D01*
X105402142Y-100623571D01*
X105259285Y-100337857D01*
X105116428Y-99766428D01*
X105116428Y-99337857D01*
X105259285Y-98766428D01*
X105402142Y-98480714D01*
X105687857Y-98195000D01*
X106116428Y-98052142D01*
X106402142Y-98052142D01*
X106830714Y-98195000D01*
X106973571Y-98337857D01*
D15*
X90340476Y-103909761D02*
X90483333Y-103957380D01*
X90721428Y-103957380D01*
X90816666Y-103909761D01*
X90864285Y-103862142D01*
X90911904Y-103766904D01*
X90911904Y-103671666D01*
X90864285Y-103576428D01*
X90816666Y-103528809D01*
X90721428Y-103481190D01*
X90530952Y-103433571D01*
X90435714Y-103385952D01*
X90388095Y-103338333D01*
X90340476Y-103243095D01*
X90340476Y-103147857D01*
X90388095Y-103052619D01*
X90435714Y-103005000D01*
X90530952Y-102957380D01*
X90769047Y-102957380D01*
X90911904Y-103005000D01*
X91245238Y-102957380D02*
X91483333Y-103957380D01*
X91673809Y-103243095D01*
X91864285Y-103957380D01*
X92102380Y-102957380D01*
X92388095Y-102957380D02*
X93007142Y-102957380D01*
X92673809Y-103338333D01*
X92816666Y-103338333D01*
X92911904Y-103385952D01*
X92959523Y-103433571D01*
X93007142Y-103528809D01*
X93007142Y-103766904D01*
X92959523Y-103862142D01*
X92911904Y-103909761D01*
X92816666Y-103957380D01*
X92530952Y-103957380D01*
X92435714Y-103909761D01*
X92388095Y-103862142D01*
X93864285Y-103290714D02*
X93864285Y-103957380D01*
X93626190Y-102909761D02*
X93388095Y-103624047D01*
X94007142Y-103624047D01*
D16*
X91075000Y-98052142D02*
X93075000Y-101052142D01*
X93075000Y-98052142D02*
X91075000Y-101052142D01*
D15*
X76370476Y-103909761D02*
X76513333Y-103957380D01*
X76751428Y-103957380D01*
X76846666Y-103909761D01*
X76894285Y-103862142D01*
X76941904Y-103766904D01*
X76941904Y-103671666D01*
X76894285Y-103576428D01*
X76846666Y-103528809D01*
X76751428Y-103481190D01*
X76560952Y-103433571D01*
X76465714Y-103385952D01*
X76418095Y-103338333D01*
X76370476Y-103243095D01*
X76370476Y-103147857D01*
X76418095Y-103052619D01*
X76465714Y-103005000D01*
X76560952Y-102957380D01*
X76799047Y-102957380D01*
X76941904Y-103005000D01*
X77275238Y-102957380D02*
X77513333Y-103957380D01*
X77703809Y-103243095D01*
X77894285Y-103957380D01*
X78132380Y-102957380D01*
X78418095Y-102957380D02*
X79037142Y-102957380D01*
X78703809Y-103338333D01*
X78846666Y-103338333D01*
X78941904Y-103385952D01*
X78989523Y-103433571D01*
X79037142Y-103528809D01*
X79037142Y-103766904D01*
X78989523Y-103862142D01*
X78941904Y-103909761D01*
X78846666Y-103957380D01*
X78560952Y-103957380D01*
X78465714Y-103909761D01*
X78418095Y-103862142D01*
X79370476Y-102957380D02*
X79989523Y-102957380D01*
X79656190Y-103338333D01*
X79799047Y-103338333D01*
X79894285Y-103385952D01*
X79941904Y-103433571D01*
X79989523Y-103528809D01*
X79989523Y-103766904D01*
X79941904Y-103862142D01*
X79894285Y-103909761D01*
X79799047Y-103957380D01*
X79513333Y-103957380D01*
X79418095Y-103909761D01*
X79370476Y-103862142D01*
D16*
X77105000Y-98052142D02*
X79105000Y-98052142D01*
X77105000Y-101052142D01*
X79105000Y-101052142D01*
D15*
X174160476Y-103909761D02*
X174303333Y-103957380D01*
X174541428Y-103957380D01*
X174636666Y-103909761D01*
X174684285Y-103862142D01*
X174731904Y-103766904D01*
X174731904Y-103671666D01*
X174684285Y-103576428D01*
X174636666Y-103528809D01*
X174541428Y-103481190D01*
X174350952Y-103433571D01*
X174255714Y-103385952D01*
X174208095Y-103338333D01*
X174160476Y-103243095D01*
X174160476Y-103147857D01*
X174208095Y-103052619D01*
X174255714Y-103005000D01*
X174350952Y-102957380D01*
X174589047Y-102957380D01*
X174731904Y-103005000D01*
X175065238Y-102957380D02*
X175303333Y-103957380D01*
X175493809Y-103243095D01*
X175684285Y-103957380D01*
X175922380Y-102957380D01*
X176208095Y-102957380D02*
X176827142Y-102957380D01*
X176493809Y-103338333D01*
X176636666Y-103338333D01*
X176731904Y-103385952D01*
X176779523Y-103433571D01*
X176827142Y-103528809D01*
X176827142Y-103766904D01*
X176779523Y-103862142D01*
X176731904Y-103909761D01*
X176636666Y-103957380D01*
X176350952Y-103957380D01*
X176255714Y-103909761D01*
X176208095Y-103862142D01*
X177208095Y-103052619D02*
X177255714Y-103005000D01*
X177350952Y-102957380D01*
X177589047Y-102957380D01*
X177684285Y-103005000D01*
X177731904Y-103052619D01*
X177779523Y-103147857D01*
X177779523Y-103243095D01*
X177731904Y-103385952D01*
X177160476Y-103957380D01*
X177779523Y-103957380D01*
D11*
X170593428Y-101036285D02*
X170879142Y-101179142D01*
X171355333Y-101179142D01*
X171545809Y-101036285D01*
X171641047Y-100893428D01*
X171736285Y-100607714D01*
X171736285Y-100322000D01*
X171641047Y-100036285D01*
X171545809Y-99893428D01*
X171355333Y-99750571D01*
X170974380Y-99607714D01*
X170783904Y-99464857D01*
X170688666Y-99322000D01*
X170593428Y-99036285D01*
X170593428Y-98750571D01*
X170688666Y-98464857D01*
X170783904Y-98322000D01*
X170974380Y-98179142D01*
X171450571Y-98179142D01*
X171736285Y-98322000D01*
X172974380Y-99750571D02*
X172974380Y-101179142D01*
X172307714Y-98179142D02*
X172974380Y-99750571D01*
X173641047Y-98179142D01*
X174307714Y-101179142D02*
X174307714Y-98179142D01*
X174974380Y-100322000D01*
X175641047Y-98179142D01*
X175641047Y-101179142D01*
X177260095Y-99607714D02*
X177545809Y-99750571D01*
X177641047Y-99893428D01*
X177736285Y-100179142D01*
X177736285Y-100607714D01*
X177641047Y-100893428D01*
X177545809Y-101036285D01*
X177355333Y-101179142D01*
X176593428Y-101179142D01*
X176593428Y-98179142D01*
X177260095Y-98179142D01*
X177450571Y-98322000D01*
X177545809Y-98464857D01*
X177641047Y-98750571D01*
X177641047Y-99036285D01*
X177545809Y-99322000D01*
X177450571Y-99464857D01*
X177260095Y-99607714D01*
X176593428Y-99607714D01*
X178974380Y-98179142D02*
X179355333Y-98179142D01*
X179545809Y-98322000D01*
X179736285Y-98607714D01*
X179831523Y-99179142D01*
X179831523Y-100179142D01*
X179736285Y-100750571D01*
X179545809Y-101036285D01*
X179355333Y-101179142D01*
X178974380Y-101179142D01*
X178783904Y-101036285D01*
X178593428Y-100750571D01*
X178498190Y-100179142D01*
X178498190Y-99179142D01*
X178593428Y-98607714D01*
X178783904Y-98322000D01*
X178974380Y-98179142D01*
X181641047Y-101179142D02*
X180688666Y-101179142D01*
X180688666Y-98179142D01*
D15*
X62400476Y-103909761D02*
X62543333Y-103957380D01*
X62781428Y-103957380D01*
X62876666Y-103909761D01*
X62924285Y-103862142D01*
X62971904Y-103766904D01*
X62971904Y-103671666D01*
X62924285Y-103576428D01*
X62876666Y-103528809D01*
X62781428Y-103481190D01*
X62590952Y-103433571D01*
X62495714Y-103385952D01*
X62448095Y-103338333D01*
X62400476Y-103243095D01*
X62400476Y-103147857D01*
X62448095Y-103052619D01*
X62495714Y-103005000D01*
X62590952Y-102957380D01*
X62829047Y-102957380D01*
X62971904Y-103005000D01*
X63305238Y-102957380D02*
X63543333Y-103957380D01*
X63733809Y-103243095D01*
X63924285Y-103957380D01*
X64162380Y-102957380D01*
X64448095Y-102957380D02*
X65067142Y-102957380D01*
X64733809Y-103338333D01*
X64876666Y-103338333D01*
X64971904Y-103385952D01*
X65019523Y-103433571D01*
X65067142Y-103528809D01*
X65067142Y-103766904D01*
X65019523Y-103862142D01*
X64971904Y-103909761D01*
X64876666Y-103957380D01*
X64590952Y-103957380D01*
X64495714Y-103909761D01*
X64448095Y-103862142D01*
X66019523Y-103957380D02*
X65448095Y-103957380D01*
X65733809Y-103957380D02*
X65733809Y-102957380D01*
X65638571Y-103100238D01*
X65543333Y-103195476D01*
X65448095Y-103243095D01*
D16*
X59492142Y-100909285D02*
X59849285Y-101052142D01*
X60444523Y-101052142D01*
X60682619Y-100909285D01*
X60801666Y-100766428D01*
X60920714Y-100480714D01*
X60920714Y-100195000D01*
X60801666Y-99909285D01*
X60682619Y-99766428D01*
X60444523Y-99623571D01*
X59968333Y-99480714D01*
X59730238Y-99337857D01*
X59611190Y-99195000D01*
X59492142Y-98909285D01*
X59492142Y-98623571D01*
X59611190Y-98337857D01*
X59730238Y-98195000D01*
X59968333Y-98052142D01*
X60563571Y-98052142D01*
X60920714Y-98195000D01*
X61992142Y-101052142D02*
X61992142Y-98052142D01*
X61992142Y-99480714D02*
X63420714Y-99480714D01*
X63420714Y-101052142D02*
X63420714Y-98052142D01*
X64611190Y-101052142D02*
X64611190Y-98052142D01*
X66635000Y-99480714D02*
X65801666Y-99480714D01*
X65801666Y-101052142D02*
X65801666Y-98052142D01*
X66992142Y-98052142D01*
X67587380Y-98052142D02*
X69015952Y-98052142D01*
X68301666Y-101052142D02*
X68301666Y-98052142D01*
D15*
X195750476Y-90574761D02*
X195893333Y-90622380D01*
X196131428Y-90622380D01*
X196226666Y-90574761D01*
X196274285Y-90527142D01*
X196321904Y-90431904D01*
X196321904Y-90336666D01*
X196274285Y-90241428D01*
X196226666Y-90193809D01*
X196131428Y-90146190D01*
X195940952Y-90098571D01*
X195845714Y-90050952D01*
X195798095Y-90003333D01*
X195750476Y-89908095D01*
X195750476Y-89812857D01*
X195798095Y-89717619D01*
X195845714Y-89670000D01*
X195940952Y-89622380D01*
X196179047Y-89622380D01*
X196321904Y-89670000D01*
X196655238Y-89622380D02*
X196893333Y-90622380D01*
X197083809Y-89908095D01*
X197274285Y-90622380D01*
X197512380Y-89622380D01*
X197798095Y-89622380D02*
X198417142Y-89622380D01*
X198083809Y-90003333D01*
X198226666Y-90003333D01*
X198321904Y-90050952D01*
X198369523Y-90098571D01*
X198417142Y-90193809D01*
X198417142Y-90431904D01*
X198369523Y-90527142D01*
X198321904Y-90574761D01*
X198226666Y-90622380D01*
X197940952Y-90622380D01*
X197845714Y-90574761D01*
X197798095Y-90527142D01*
X199036190Y-89622380D02*
X199131428Y-89622380D01*
X199226666Y-89670000D01*
X199274285Y-89717619D01*
X199321904Y-89812857D01*
X199369523Y-90003333D01*
X199369523Y-90241428D01*
X199321904Y-90431904D01*
X199274285Y-90527142D01*
X199226666Y-90574761D01*
X199131428Y-90622380D01*
X199036190Y-90622380D01*
X198940952Y-90574761D01*
X198893333Y-90527142D01*
X198845714Y-90431904D01*
X198798095Y-90241428D01*
X198798095Y-90003333D01*
X198845714Y-89812857D01*
X198893333Y-89717619D01*
X198940952Y-89670000D01*
X199036190Y-89622380D01*
D16*
X192306428Y-86145714D02*
X193139761Y-86145714D01*
X193496904Y-87717142D02*
X192306428Y-87717142D01*
X192306428Y-84717142D01*
X193496904Y-84717142D01*
X194568333Y-87717142D02*
X194568333Y-84717142D01*
X195996904Y-87717142D01*
X195996904Y-84717142D01*
X196830238Y-84717142D02*
X198258809Y-84717142D01*
X197544523Y-87717142D02*
X197544523Y-84717142D01*
X199092142Y-86145714D02*
X199925476Y-86145714D01*
X200282619Y-87717142D02*
X199092142Y-87717142D01*
X199092142Y-84717142D01*
X200282619Y-84717142D01*
X202782619Y-87717142D02*
X201949285Y-86288571D01*
X201354047Y-87717142D02*
X201354047Y-84717142D01*
X202306428Y-84717142D01*
X202544523Y-84860000D01*
X202663571Y-85002857D01*
X202782619Y-85288571D01*
X202782619Y-85717142D01*
X202663571Y-86002857D01*
X202544523Y-86145714D01*
X202306428Y-86288571D01*
X201354047Y-86288571D01*
D15*
X181780476Y-90574761D02*
X181923333Y-90622380D01*
X182161428Y-90622380D01*
X182256666Y-90574761D01*
X182304285Y-90527142D01*
X182351904Y-90431904D01*
X182351904Y-90336666D01*
X182304285Y-90241428D01*
X182256666Y-90193809D01*
X182161428Y-90146190D01*
X181970952Y-90098571D01*
X181875714Y-90050952D01*
X181828095Y-90003333D01*
X181780476Y-89908095D01*
X181780476Y-89812857D01*
X181828095Y-89717619D01*
X181875714Y-89670000D01*
X181970952Y-89622380D01*
X182209047Y-89622380D01*
X182351904Y-89670000D01*
X182685238Y-89622380D02*
X182923333Y-90622380D01*
X183113809Y-89908095D01*
X183304285Y-90622380D01*
X183542380Y-89622380D01*
X183875714Y-89717619D02*
X183923333Y-89670000D01*
X184018571Y-89622380D01*
X184256666Y-89622380D01*
X184351904Y-89670000D01*
X184399523Y-89717619D01*
X184447142Y-89812857D01*
X184447142Y-89908095D01*
X184399523Y-90050952D01*
X183828095Y-90622380D01*
X184447142Y-90622380D01*
X184923333Y-90622380D02*
X185113809Y-90622380D01*
X185209047Y-90574761D01*
X185256666Y-90527142D01*
X185351904Y-90384285D01*
X185399523Y-90193809D01*
X185399523Y-89812857D01*
X185351904Y-89717619D01*
X185304285Y-89670000D01*
X185209047Y-89622380D01*
X185018571Y-89622380D01*
X184923333Y-89670000D01*
X184875714Y-89717619D01*
X184828095Y-89812857D01*
X184828095Y-90050952D01*
X184875714Y-90146190D01*
X184923333Y-90193809D01*
X185018571Y-90241428D01*
X185209047Y-90241428D01*
X185304285Y-90193809D01*
X185351904Y-90146190D01*
X185399523Y-90050952D01*
D16*
X184443571Y-87717142D02*
X183015000Y-87717142D01*
X183015000Y-84717142D01*
D15*
X167735476Y-90574761D02*
X167878333Y-90622380D01*
X168116428Y-90622380D01*
X168211666Y-90574761D01*
X168259285Y-90527142D01*
X168306904Y-90431904D01*
X168306904Y-90336666D01*
X168259285Y-90241428D01*
X168211666Y-90193809D01*
X168116428Y-90146190D01*
X167925952Y-90098571D01*
X167830714Y-90050952D01*
X167783095Y-90003333D01*
X167735476Y-89908095D01*
X167735476Y-89812857D01*
X167783095Y-89717619D01*
X167830714Y-89670000D01*
X167925952Y-89622380D01*
X168164047Y-89622380D01*
X168306904Y-89670000D01*
X168640238Y-89622380D02*
X168878333Y-90622380D01*
X169068809Y-89908095D01*
X169259285Y-90622380D01*
X169497380Y-89622380D01*
X169830714Y-89717619D02*
X169878333Y-89670000D01*
X169973571Y-89622380D01*
X170211666Y-89622380D01*
X170306904Y-89670000D01*
X170354523Y-89717619D01*
X170402142Y-89812857D01*
X170402142Y-89908095D01*
X170354523Y-90050952D01*
X169783095Y-90622380D01*
X170402142Y-90622380D01*
X170973571Y-90050952D02*
X170878333Y-90003333D01*
X170830714Y-89955714D01*
X170783095Y-89860476D01*
X170783095Y-89812857D01*
X170830714Y-89717619D01*
X170878333Y-89670000D01*
X170973571Y-89622380D01*
X171164047Y-89622380D01*
X171259285Y-89670000D01*
X171306904Y-89717619D01*
X171354523Y-89812857D01*
X171354523Y-89860476D01*
X171306904Y-89955714D01*
X171259285Y-90003333D01*
X171164047Y-90050952D01*
X170973571Y-90050952D01*
X170878333Y-90098571D01*
X170830714Y-90146190D01*
X170783095Y-90241428D01*
X170783095Y-90431904D01*
X170830714Y-90527142D01*
X170878333Y-90574761D01*
X170973571Y-90622380D01*
X171164047Y-90622380D01*
X171259285Y-90574761D01*
X171306904Y-90527142D01*
X171354523Y-90431904D01*
X171354523Y-90241428D01*
X171306904Y-90146190D01*
X171259285Y-90098571D01*
X171164047Y-90050952D01*
D16*
X168759285Y-87717142D02*
X168759285Y-84717142D01*
X170473571Y-87717142D02*
X169187857Y-86002857D01*
X170473571Y-84717142D02*
X168759285Y-86431428D01*
D15*
X153840476Y-90574761D02*
X153983333Y-90622380D01*
X154221428Y-90622380D01*
X154316666Y-90574761D01*
X154364285Y-90527142D01*
X154411904Y-90431904D01*
X154411904Y-90336666D01*
X154364285Y-90241428D01*
X154316666Y-90193809D01*
X154221428Y-90146190D01*
X154030952Y-90098571D01*
X153935714Y-90050952D01*
X153888095Y-90003333D01*
X153840476Y-89908095D01*
X153840476Y-89812857D01*
X153888095Y-89717619D01*
X153935714Y-89670000D01*
X154030952Y-89622380D01*
X154269047Y-89622380D01*
X154411904Y-89670000D01*
X154745238Y-89622380D02*
X154983333Y-90622380D01*
X155173809Y-89908095D01*
X155364285Y-90622380D01*
X155602380Y-89622380D01*
X155935714Y-89717619D02*
X155983333Y-89670000D01*
X156078571Y-89622380D01*
X156316666Y-89622380D01*
X156411904Y-89670000D01*
X156459523Y-89717619D01*
X156507142Y-89812857D01*
X156507142Y-89908095D01*
X156459523Y-90050952D01*
X155888095Y-90622380D01*
X156507142Y-90622380D01*
X156840476Y-89622380D02*
X157507142Y-89622380D01*
X157078571Y-90622380D01*
D16*
X156003571Y-84717142D02*
X156003571Y-86860000D01*
X155860714Y-87288571D01*
X155575000Y-87574285D01*
X155146428Y-87717142D01*
X154860714Y-87717142D01*
D15*
X139795476Y-90574761D02*
X139938333Y-90622380D01*
X140176428Y-90622380D01*
X140271666Y-90574761D01*
X140319285Y-90527142D01*
X140366904Y-90431904D01*
X140366904Y-90336666D01*
X140319285Y-90241428D01*
X140271666Y-90193809D01*
X140176428Y-90146190D01*
X139985952Y-90098571D01*
X139890714Y-90050952D01*
X139843095Y-90003333D01*
X139795476Y-89908095D01*
X139795476Y-89812857D01*
X139843095Y-89717619D01*
X139890714Y-89670000D01*
X139985952Y-89622380D01*
X140224047Y-89622380D01*
X140366904Y-89670000D01*
X140700238Y-89622380D02*
X140938333Y-90622380D01*
X141128809Y-89908095D01*
X141319285Y-90622380D01*
X141557380Y-89622380D01*
X141890714Y-89717619D02*
X141938333Y-89670000D01*
X142033571Y-89622380D01*
X142271666Y-89622380D01*
X142366904Y-89670000D01*
X142414523Y-89717619D01*
X142462142Y-89812857D01*
X142462142Y-89908095D01*
X142414523Y-90050952D01*
X141843095Y-90622380D01*
X142462142Y-90622380D01*
X143319285Y-89622380D02*
X143128809Y-89622380D01*
X143033571Y-89670000D01*
X142985952Y-89717619D01*
X142890714Y-89860476D01*
X142843095Y-90050952D01*
X142843095Y-90431904D01*
X142890714Y-90527142D01*
X142938333Y-90574761D01*
X143033571Y-90622380D01*
X143224047Y-90622380D01*
X143319285Y-90574761D01*
X143366904Y-90527142D01*
X143414523Y-90431904D01*
X143414523Y-90193809D01*
X143366904Y-90098571D01*
X143319285Y-90050952D01*
X143224047Y-90003333D01*
X143033571Y-90003333D01*
X142938333Y-90050952D01*
X142890714Y-90098571D01*
X142843095Y-90193809D01*
D16*
X140747857Y-87717142D02*
X140747857Y-84717142D01*
X140747857Y-86145714D02*
X142462142Y-86145714D01*
X142462142Y-87717142D02*
X142462142Y-84717142D01*
D15*
X125900476Y-90574761D02*
X126043333Y-90622380D01*
X126281428Y-90622380D01*
X126376666Y-90574761D01*
X126424285Y-90527142D01*
X126471904Y-90431904D01*
X126471904Y-90336666D01*
X126424285Y-90241428D01*
X126376666Y-90193809D01*
X126281428Y-90146190D01*
X126090952Y-90098571D01*
X125995714Y-90050952D01*
X125948095Y-90003333D01*
X125900476Y-89908095D01*
X125900476Y-89812857D01*
X125948095Y-89717619D01*
X125995714Y-89670000D01*
X126090952Y-89622380D01*
X126329047Y-89622380D01*
X126471904Y-89670000D01*
X126805238Y-89622380D02*
X127043333Y-90622380D01*
X127233809Y-89908095D01*
X127424285Y-90622380D01*
X127662380Y-89622380D01*
X127995714Y-89717619D02*
X128043333Y-89670000D01*
X128138571Y-89622380D01*
X128376666Y-89622380D01*
X128471904Y-89670000D01*
X128519523Y-89717619D01*
X128567142Y-89812857D01*
X128567142Y-89908095D01*
X128519523Y-90050952D01*
X127948095Y-90622380D01*
X128567142Y-90622380D01*
X129471904Y-89622380D02*
X128995714Y-89622380D01*
X128948095Y-90098571D01*
X128995714Y-90050952D01*
X129090952Y-90003333D01*
X129329047Y-90003333D01*
X129424285Y-90050952D01*
X129471904Y-90098571D01*
X129519523Y-90193809D01*
X129519523Y-90431904D01*
X129471904Y-90527142D01*
X129424285Y-90574761D01*
X129329047Y-90622380D01*
X129090952Y-90622380D01*
X128995714Y-90574761D01*
X128948095Y-90527142D01*
D16*
X128420714Y-84860000D02*
X128135000Y-84717142D01*
X127706428Y-84717142D01*
X127277857Y-84860000D01*
X126992142Y-85145714D01*
X126849285Y-85431428D01*
X126706428Y-86002857D01*
X126706428Y-86431428D01*
X126849285Y-87002857D01*
X126992142Y-87288571D01*
X127277857Y-87574285D01*
X127706428Y-87717142D01*
X127992142Y-87717142D01*
X128420714Y-87574285D01*
X128563571Y-87431428D01*
X128563571Y-86431428D01*
X127992142Y-86431428D01*
D15*
X111855476Y-90574761D02*
X111998333Y-90622380D01*
X112236428Y-90622380D01*
X112331666Y-90574761D01*
X112379285Y-90527142D01*
X112426904Y-90431904D01*
X112426904Y-90336666D01*
X112379285Y-90241428D01*
X112331666Y-90193809D01*
X112236428Y-90146190D01*
X112045952Y-90098571D01*
X111950714Y-90050952D01*
X111903095Y-90003333D01*
X111855476Y-89908095D01*
X111855476Y-89812857D01*
X111903095Y-89717619D01*
X111950714Y-89670000D01*
X112045952Y-89622380D01*
X112284047Y-89622380D01*
X112426904Y-89670000D01*
X112760238Y-89622380D02*
X112998333Y-90622380D01*
X113188809Y-89908095D01*
X113379285Y-90622380D01*
X113617380Y-89622380D01*
X113950714Y-89717619D02*
X113998333Y-89670000D01*
X114093571Y-89622380D01*
X114331666Y-89622380D01*
X114426904Y-89670000D01*
X114474523Y-89717619D01*
X114522142Y-89812857D01*
X114522142Y-89908095D01*
X114474523Y-90050952D01*
X113903095Y-90622380D01*
X114522142Y-90622380D01*
X115379285Y-89955714D02*
X115379285Y-90622380D01*
X115141190Y-89574761D02*
X114903095Y-90289047D01*
X115522142Y-90289047D01*
D16*
X114118571Y-86145714D02*
X113118571Y-86145714D01*
X113118571Y-87717142D02*
X113118571Y-84717142D01*
X114547142Y-84717142D01*
D15*
X97960476Y-90574761D02*
X98103333Y-90622380D01*
X98341428Y-90622380D01*
X98436666Y-90574761D01*
X98484285Y-90527142D01*
X98531904Y-90431904D01*
X98531904Y-90336666D01*
X98484285Y-90241428D01*
X98436666Y-90193809D01*
X98341428Y-90146190D01*
X98150952Y-90098571D01*
X98055714Y-90050952D01*
X98008095Y-90003333D01*
X97960476Y-89908095D01*
X97960476Y-89812857D01*
X98008095Y-89717619D01*
X98055714Y-89670000D01*
X98150952Y-89622380D01*
X98389047Y-89622380D01*
X98531904Y-89670000D01*
X98865238Y-89622380D02*
X99103333Y-90622380D01*
X99293809Y-89908095D01*
X99484285Y-90622380D01*
X99722380Y-89622380D01*
X100055714Y-89717619D02*
X100103333Y-89670000D01*
X100198571Y-89622380D01*
X100436666Y-89622380D01*
X100531904Y-89670000D01*
X100579523Y-89717619D01*
X100627142Y-89812857D01*
X100627142Y-89908095D01*
X100579523Y-90050952D01*
X100008095Y-90622380D01*
X100627142Y-90622380D01*
X100960476Y-89622380D02*
X101579523Y-89622380D01*
X101246190Y-90003333D01*
X101389047Y-90003333D01*
X101484285Y-90050952D01*
X101531904Y-90098571D01*
X101579523Y-90193809D01*
X101579523Y-90431904D01*
X101531904Y-90527142D01*
X101484285Y-90574761D01*
X101389047Y-90622380D01*
X101103333Y-90622380D01*
X101008095Y-90574761D01*
X100960476Y-90527142D01*
D16*
X98909285Y-87717142D02*
X98909285Y-84717142D01*
X99623571Y-84717142D01*
X100052142Y-84860000D01*
X100337857Y-85145714D01*
X100480714Y-85431428D01*
X100623571Y-86002857D01*
X100623571Y-86431428D01*
X100480714Y-87002857D01*
X100337857Y-87288571D01*
X100052142Y-87574285D01*
X99623571Y-87717142D01*
X98909285Y-87717142D01*
D15*
X83915476Y-90574761D02*
X84058333Y-90622380D01*
X84296428Y-90622380D01*
X84391666Y-90574761D01*
X84439285Y-90527142D01*
X84486904Y-90431904D01*
X84486904Y-90336666D01*
X84439285Y-90241428D01*
X84391666Y-90193809D01*
X84296428Y-90146190D01*
X84105952Y-90098571D01*
X84010714Y-90050952D01*
X83963095Y-90003333D01*
X83915476Y-89908095D01*
X83915476Y-89812857D01*
X83963095Y-89717619D01*
X84010714Y-89670000D01*
X84105952Y-89622380D01*
X84344047Y-89622380D01*
X84486904Y-89670000D01*
X84820238Y-89622380D02*
X85058333Y-90622380D01*
X85248809Y-89908095D01*
X85439285Y-90622380D01*
X85677380Y-89622380D01*
X86010714Y-89717619D02*
X86058333Y-89670000D01*
X86153571Y-89622380D01*
X86391666Y-89622380D01*
X86486904Y-89670000D01*
X86534523Y-89717619D01*
X86582142Y-89812857D01*
X86582142Y-89908095D01*
X86534523Y-90050952D01*
X85963095Y-90622380D01*
X86582142Y-90622380D01*
X86963095Y-89717619D02*
X87010714Y-89670000D01*
X87105952Y-89622380D01*
X87344047Y-89622380D01*
X87439285Y-89670000D01*
X87486904Y-89717619D01*
X87534523Y-89812857D01*
X87534523Y-89908095D01*
X87486904Y-90050952D01*
X86915476Y-90622380D01*
X87534523Y-90622380D01*
D16*
X84867857Y-87574285D02*
X85296428Y-87717142D01*
X86010714Y-87717142D01*
X86296428Y-87574285D01*
X86439285Y-87431428D01*
X86582142Y-87145714D01*
X86582142Y-86860000D01*
X86439285Y-86574285D01*
X86296428Y-86431428D01*
X86010714Y-86288571D01*
X85439285Y-86145714D01*
X85153571Y-86002857D01*
X85010714Y-85860000D01*
X84867857Y-85574285D01*
X84867857Y-85288571D01*
X85010714Y-85002857D01*
X85153571Y-84860000D01*
X85439285Y-84717142D01*
X86153571Y-84717142D01*
X86582142Y-84860000D01*
D15*
X70020476Y-90574761D02*
X70163333Y-90622380D01*
X70401428Y-90622380D01*
X70496666Y-90574761D01*
X70544285Y-90527142D01*
X70591904Y-90431904D01*
X70591904Y-90336666D01*
X70544285Y-90241428D01*
X70496666Y-90193809D01*
X70401428Y-90146190D01*
X70210952Y-90098571D01*
X70115714Y-90050952D01*
X70068095Y-90003333D01*
X70020476Y-89908095D01*
X70020476Y-89812857D01*
X70068095Y-89717619D01*
X70115714Y-89670000D01*
X70210952Y-89622380D01*
X70449047Y-89622380D01*
X70591904Y-89670000D01*
X70925238Y-89622380D02*
X71163333Y-90622380D01*
X71353809Y-89908095D01*
X71544285Y-90622380D01*
X71782380Y-89622380D01*
X72115714Y-89717619D02*
X72163333Y-89670000D01*
X72258571Y-89622380D01*
X72496666Y-89622380D01*
X72591904Y-89670000D01*
X72639523Y-89717619D01*
X72687142Y-89812857D01*
X72687142Y-89908095D01*
X72639523Y-90050952D01*
X72068095Y-90622380D01*
X72687142Y-90622380D01*
X73639523Y-90622380D02*
X73068095Y-90622380D01*
X73353809Y-90622380D02*
X73353809Y-89622380D01*
X73258571Y-89765238D01*
X73163333Y-89860476D01*
X73068095Y-89908095D01*
D16*
X71065714Y-86860000D02*
X72494285Y-86860000D01*
X70780000Y-87717142D02*
X71780000Y-84717142D01*
X72780000Y-87717142D01*
D15*
X193210476Y-77239761D02*
X193353333Y-77287380D01*
X193591428Y-77287380D01*
X193686666Y-77239761D01*
X193734285Y-77192142D01*
X193781904Y-77096904D01*
X193781904Y-77001666D01*
X193734285Y-76906428D01*
X193686666Y-76858809D01*
X193591428Y-76811190D01*
X193400952Y-76763571D01*
X193305714Y-76715952D01*
X193258095Y-76668333D01*
X193210476Y-76573095D01*
X193210476Y-76477857D01*
X193258095Y-76382619D01*
X193305714Y-76335000D01*
X193400952Y-76287380D01*
X193639047Y-76287380D01*
X193781904Y-76335000D01*
X194115238Y-76287380D02*
X194353333Y-77287380D01*
X194543809Y-76573095D01*
X194734285Y-77287380D01*
X194972380Y-76287380D01*
X195305714Y-76382619D02*
X195353333Y-76335000D01*
X195448571Y-76287380D01*
X195686666Y-76287380D01*
X195781904Y-76335000D01*
X195829523Y-76382619D01*
X195877142Y-76477857D01*
X195877142Y-76573095D01*
X195829523Y-76715952D01*
X195258095Y-77287380D01*
X195877142Y-77287380D01*
X196496190Y-76287380D02*
X196591428Y-76287380D01*
X196686666Y-76335000D01*
X196734285Y-76382619D01*
X196781904Y-76477857D01*
X196829523Y-76668333D01*
X196829523Y-76906428D01*
X196781904Y-77096904D01*
X196734285Y-77192142D01*
X196686666Y-77239761D01*
X196591428Y-77287380D01*
X196496190Y-77287380D01*
X196400952Y-77239761D01*
X196353333Y-77192142D01*
X196305714Y-77096904D01*
X196258095Y-76906428D01*
X196258095Y-76668333D01*
X196305714Y-76477857D01*
X196353333Y-76382619D01*
X196400952Y-76335000D01*
X196496190Y-76287380D01*
D16*
X194159285Y-74382142D02*
X194159285Y-71382142D01*
X195302142Y-71382142D01*
X195587857Y-71525000D01*
X195730714Y-71667857D01*
X195873571Y-71953571D01*
X195873571Y-72382142D01*
X195730714Y-72667857D01*
X195587857Y-72810714D01*
X195302142Y-72953571D01*
X194159285Y-72953571D01*
D15*
X179240476Y-77239761D02*
X179383333Y-77287380D01*
X179621428Y-77287380D01*
X179716666Y-77239761D01*
X179764285Y-77192142D01*
X179811904Y-77096904D01*
X179811904Y-77001666D01*
X179764285Y-76906428D01*
X179716666Y-76858809D01*
X179621428Y-76811190D01*
X179430952Y-76763571D01*
X179335714Y-76715952D01*
X179288095Y-76668333D01*
X179240476Y-76573095D01*
X179240476Y-76477857D01*
X179288095Y-76382619D01*
X179335714Y-76335000D01*
X179430952Y-76287380D01*
X179669047Y-76287380D01*
X179811904Y-76335000D01*
X180145238Y-76287380D02*
X180383333Y-77287380D01*
X180573809Y-76573095D01*
X180764285Y-77287380D01*
X181002380Y-76287380D01*
X181907142Y-77287380D02*
X181335714Y-77287380D01*
X181621428Y-77287380D02*
X181621428Y-76287380D01*
X181526190Y-76430238D01*
X181430952Y-76525476D01*
X181335714Y-76573095D01*
X182383333Y-77287380D02*
X182573809Y-77287380D01*
X182669047Y-77239761D01*
X182716666Y-77192142D01*
X182811904Y-77049285D01*
X182859523Y-76858809D01*
X182859523Y-76477857D01*
X182811904Y-76382619D01*
X182764285Y-76335000D01*
X182669047Y-76287380D01*
X182478571Y-76287380D01*
X182383333Y-76335000D01*
X182335714Y-76382619D01*
X182288095Y-76477857D01*
X182288095Y-76715952D01*
X182335714Y-76811190D01*
X182383333Y-76858809D01*
X182478571Y-76906428D01*
X182669047Y-76906428D01*
X182764285Y-76858809D01*
X182811904Y-76811190D01*
X182859523Y-76715952D01*
D16*
X180689285Y-71382142D02*
X181260714Y-71382142D01*
X181546428Y-71525000D01*
X181832142Y-71810714D01*
X181975000Y-72382142D01*
X181975000Y-73382142D01*
X181832142Y-73953571D01*
X181546428Y-74239285D01*
X181260714Y-74382142D01*
X180689285Y-74382142D01*
X180403571Y-74239285D01*
X180117857Y-73953571D01*
X179975000Y-73382142D01*
X179975000Y-72382142D01*
X180117857Y-71810714D01*
X180403571Y-71525000D01*
X180689285Y-71382142D01*
D15*
X165195476Y-77239761D02*
X165338333Y-77287380D01*
X165576428Y-77287380D01*
X165671666Y-77239761D01*
X165719285Y-77192142D01*
X165766904Y-77096904D01*
X165766904Y-77001666D01*
X165719285Y-76906428D01*
X165671666Y-76858809D01*
X165576428Y-76811190D01*
X165385952Y-76763571D01*
X165290714Y-76715952D01*
X165243095Y-76668333D01*
X165195476Y-76573095D01*
X165195476Y-76477857D01*
X165243095Y-76382619D01*
X165290714Y-76335000D01*
X165385952Y-76287380D01*
X165624047Y-76287380D01*
X165766904Y-76335000D01*
X166100238Y-76287380D02*
X166338333Y-77287380D01*
X166528809Y-76573095D01*
X166719285Y-77287380D01*
X166957380Y-76287380D01*
X167862142Y-77287380D02*
X167290714Y-77287380D01*
X167576428Y-77287380D02*
X167576428Y-76287380D01*
X167481190Y-76430238D01*
X167385952Y-76525476D01*
X167290714Y-76573095D01*
X168433571Y-76715952D02*
X168338333Y-76668333D01*
X168290714Y-76620714D01*
X168243095Y-76525476D01*
X168243095Y-76477857D01*
X168290714Y-76382619D01*
X168338333Y-76335000D01*
X168433571Y-76287380D01*
X168624047Y-76287380D01*
X168719285Y-76335000D01*
X168766904Y-76382619D01*
X168814523Y-76477857D01*
X168814523Y-76525476D01*
X168766904Y-76620714D01*
X168719285Y-76668333D01*
X168624047Y-76715952D01*
X168433571Y-76715952D01*
X168338333Y-76763571D01*
X168290714Y-76811190D01*
X168243095Y-76906428D01*
X168243095Y-77096904D01*
X168290714Y-77192142D01*
X168338333Y-77239761D01*
X168433571Y-77287380D01*
X168624047Y-77287380D01*
X168719285Y-77239761D01*
X168766904Y-77192142D01*
X168814523Y-77096904D01*
X168814523Y-76906428D01*
X168766904Y-76811190D01*
X168719285Y-76763571D01*
X168624047Y-76715952D01*
D16*
X167005000Y-74382142D02*
X167005000Y-71382142D01*
D15*
X151300476Y-77239761D02*
X151443333Y-77287380D01*
X151681428Y-77287380D01*
X151776666Y-77239761D01*
X151824285Y-77192142D01*
X151871904Y-77096904D01*
X151871904Y-77001666D01*
X151824285Y-76906428D01*
X151776666Y-76858809D01*
X151681428Y-76811190D01*
X151490952Y-76763571D01*
X151395714Y-76715952D01*
X151348095Y-76668333D01*
X151300476Y-76573095D01*
X151300476Y-76477857D01*
X151348095Y-76382619D01*
X151395714Y-76335000D01*
X151490952Y-76287380D01*
X151729047Y-76287380D01*
X151871904Y-76335000D01*
X152205238Y-76287380D02*
X152443333Y-77287380D01*
X152633809Y-76573095D01*
X152824285Y-77287380D01*
X153062380Y-76287380D01*
X153967142Y-77287380D02*
X153395714Y-77287380D01*
X153681428Y-77287380D02*
X153681428Y-76287380D01*
X153586190Y-76430238D01*
X153490952Y-76525476D01*
X153395714Y-76573095D01*
X154300476Y-76287380D02*
X154967142Y-76287380D01*
X154538571Y-77287380D01*
D16*
X152177857Y-71382142D02*
X152177857Y-73810714D01*
X152320714Y-74096428D01*
X152463571Y-74239285D01*
X152749285Y-74382142D01*
X153320714Y-74382142D01*
X153606428Y-74239285D01*
X153749285Y-74096428D01*
X153892142Y-73810714D01*
X153892142Y-71382142D01*
D15*
X137330476Y-77239761D02*
X137473333Y-77287380D01*
X137711428Y-77287380D01*
X137806666Y-77239761D01*
X137854285Y-77192142D01*
X137901904Y-77096904D01*
X137901904Y-77001666D01*
X137854285Y-76906428D01*
X137806666Y-76858809D01*
X137711428Y-76811190D01*
X137520952Y-76763571D01*
X137425714Y-76715952D01*
X137378095Y-76668333D01*
X137330476Y-76573095D01*
X137330476Y-76477857D01*
X137378095Y-76382619D01*
X137425714Y-76335000D01*
X137520952Y-76287380D01*
X137759047Y-76287380D01*
X137901904Y-76335000D01*
X138235238Y-76287380D02*
X138473333Y-77287380D01*
X138663809Y-76573095D01*
X138854285Y-77287380D01*
X139092380Y-76287380D01*
X139997142Y-77287380D02*
X139425714Y-77287380D01*
X139711428Y-77287380D02*
X139711428Y-76287380D01*
X139616190Y-76430238D01*
X139520952Y-76525476D01*
X139425714Y-76573095D01*
X140854285Y-76287380D02*
X140663809Y-76287380D01*
X140568571Y-76335000D01*
X140520952Y-76382619D01*
X140425714Y-76525476D01*
X140378095Y-76715952D01*
X140378095Y-77096904D01*
X140425714Y-77192142D01*
X140473333Y-77239761D01*
X140568571Y-77287380D01*
X140759047Y-77287380D01*
X140854285Y-77239761D01*
X140901904Y-77192142D01*
X140949523Y-77096904D01*
X140949523Y-76858809D01*
X140901904Y-76763571D01*
X140854285Y-76715952D01*
X140759047Y-76668333D01*
X140568571Y-76668333D01*
X140473333Y-76715952D01*
X140425714Y-76763571D01*
X140378095Y-76858809D01*
D16*
X139065000Y-72953571D02*
X139065000Y-74382142D01*
X138065000Y-71382142D02*
X139065000Y-72953571D01*
X140065000Y-71382142D01*
D15*
X123360476Y-77239761D02*
X123503333Y-77287380D01*
X123741428Y-77287380D01*
X123836666Y-77239761D01*
X123884285Y-77192142D01*
X123931904Y-77096904D01*
X123931904Y-77001666D01*
X123884285Y-76906428D01*
X123836666Y-76858809D01*
X123741428Y-76811190D01*
X123550952Y-76763571D01*
X123455714Y-76715952D01*
X123408095Y-76668333D01*
X123360476Y-76573095D01*
X123360476Y-76477857D01*
X123408095Y-76382619D01*
X123455714Y-76335000D01*
X123550952Y-76287380D01*
X123789047Y-76287380D01*
X123931904Y-76335000D01*
X124265238Y-76287380D02*
X124503333Y-77287380D01*
X124693809Y-76573095D01*
X124884285Y-77287380D01*
X125122380Y-76287380D01*
X126027142Y-77287380D02*
X125455714Y-77287380D01*
X125741428Y-77287380D02*
X125741428Y-76287380D01*
X125646190Y-76430238D01*
X125550952Y-76525476D01*
X125455714Y-76573095D01*
X126931904Y-76287380D02*
X126455714Y-76287380D01*
X126408095Y-76763571D01*
X126455714Y-76715952D01*
X126550952Y-76668333D01*
X126789047Y-76668333D01*
X126884285Y-76715952D01*
X126931904Y-76763571D01*
X126979523Y-76858809D01*
X126979523Y-77096904D01*
X126931904Y-77192142D01*
X126884285Y-77239761D01*
X126789047Y-77287380D01*
X126550952Y-77287380D01*
X126455714Y-77239761D01*
X126408095Y-77192142D01*
D16*
X124237857Y-71382142D02*
X125952142Y-71382142D01*
X125095000Y-74382142D02*
X125095000Y-71382142D01*
D15*
X109315476Y-77239761D02*
X109458333Y-77287380D01*
X109696428Y-77287380D01*
X109791666Y-77239761D01*
X109839285Y-77192142D01*
X109886904Y-77096904D01*
X109886904Y-77001666D01*
X109839285Y-76906428D01*
X109791666Y-76858809D01*
X109696428Y-76811190D01*
X109505952Y-76763571D01*
X109410714Y-76715952D01*
X109363095Y-76668333D01*
X109315476Y-76573095D01*
X109315476Y-76477857D01*
X109363095Y-76382619D01*
X109410714Y-76335000D01*
X109505952Y-76287380D01*
X109744047Y-76287380D01*
X109886904Y-76335000D01*
X110220238Y-76287380D02*
X110458333Y-77287380D01*
X110648809Y-76573095D01*
X110839285Y-77287380D01*
X111077380Y-76287380D01*
X111982142Y-77287380D02*
X111410714Y-77287380D01*
X111696428Y-77287380D02*
X111696428Y-76287380D01*
X111601190Y-76430238D01*
X111505952Y-76525476D01*
X111410714Y-76573095D01*
X112839285Y-76620714D02*
X112839285Y-77287380D01*
X112601190Y-76239761D02*
X112363095Y-76954047D01*
X112982142Y-76954047D01*
D16*
X112053571Y-74382142D02*
X111053571Y-72953571D01*
X110339285Y-74382142D02*
X110339285Y-71382142D01*
X111482142Y-71382142D01*
X111767857Y-71525000D01*
X111910714Y-71667857D01*
X112053571Y-71953571D01*
X112053571Y-72382142D01*
X111910714Y-72667857D01*
X111767857Y-72810714D01*
X111482142Y-72953571D01*
X110339285Y-72953571D01*
D15*
X95420476Y-77239761D02*
X95563333Y-77287380D01*
X95801428Y-77287380D01*
X95896666Y-77239761D01*
X95944285Y-77192142D01*
X95991904Y-77096904D01*
X95991904Y-77001666D01*
X95944285Y-76906428D01*
X95896666Y-76858809D01*
X95801428Y-76811190D01*
X95610952Y-76763571D01*
X95515714Y-76715952D01*
X95468095Y-76668333D01*
X95420476Y-76573095D01*
X95420476Y-76477857D01*
X95468095Y-76382619D01*
X95515714Y-76335000D01*
X95610952Y-76287380D01*
X95849047Y-76287380D01*
X95991904Y-76335000D01*
X96325238Y-76287380D02*
X96563333Y-77287380D01*
X96753809Y-76573095D01*
X96944285Y-77287380D01*
X97182380Y-76287380D01*
X98087142Y-77287380D02*
X97515714Y-77287380D01*
X97801428Y-77287380D02*
X97801428Y-76287380D01*
X97706190Y-76430238D01*
X97610952Y-76525476D01*
X97515714Y-76573095D01*
X98420476Y-76287380D02*
X99039523Y-76287380D01*
X98706190Y-76668333D01*
X98849047Y-76668333D01*
X98944285Y-76715952D01*
X98991904Y-76763571D01*
X99039523Y-76858809D01*
X99039523Y-77096904D01*
X98991904Y-77192142D01*
X98944285Y-77239761D01*
X98849047Y-77287380D01*
X98563333Y-77287380D01*
X98468095Y-77239761D01*
X98420476Y-77192142D01*
D16*
X96512142Y-72810714D02*
X97512142Y-72810714D01*
X97940714Y-74382142D02*
X96512142Y-74382142D01*
X96512142Y-71382142D01*
X97940714Y-71382142D01*
D15*
X81450476Y-77239761D02*
X81593333Y-77287380D01*
X81831428Y-77287380D01*
X81926666Y-77239761D01*
X81974285Y-77192142D01*
X82021904Y-77096904D01*
X82021904Y-77001666D01*
X81974285Y-76906428D01*
X81926666Y-76858809D01*
X81831428Y-76811190D01*
X81640952Y-76763571D01*
X81545714Y-76715952D01*
X81498095Y-76668333D01*
X81450476Y-76573095D01*
X81450476Y-76477857D01*
X81498095Y-76382619D01*
X81545714Y-76335000D01*
X81640952Y-76287380D01*
X81879047Y-76287380D01*
X82021904Y-76335000D01*
X82355238Y-76287380D02*
X82593333Y-77287380D01*
X82783809Y-76573095D01*
X82974285Y-77287380D01*
X83212380Y-76287380D01*
X84117142Y-77287380D02*
X83545714Y-77287380D01*
X83831428Y-77287380D02*
X83831428Y-76287380D01*
X83736190Y-76430238D01*
X83640952Y-76525476D01*
X83545714Y-76573095D01*
X84498095Y-76382619D02*
X84545714Y-76335000D01*
X84640952Y-76287380D01*
X84879047Y-76287380D01*
X84974285Y-76335000D01*
X85021904Y-76382619D01*
X85069523Y-76477857D01*
X85069523Y-76573095D01*
X85021904Y-76715952D01*
X84450476Y-77287380D01*
X85069523Y-77287380D01*
D16*
X81899285Y-71382142D02*
X82613571Y-74382142D01*
X83185000Y-72239285D01*
X83756428Y-74382142D01*
X84470714Y-71382142D01*
D15*
X67480476Y-77239761D02*
X67623333Y-77287380D01*
X67861428Y-77287380D01*
X67956666Y-77239761D01*
X68004285Y-77192142D01*
X68051904Y-77096904D01*
X68051904Y-77001666D01*
X68004285Y-76906428D01*
X67956666Y-76858809D01*
X67861428Y-76811190D01*
X67670952Y-76763571D01*
X67575714Y-76715952D01*
X67528095Y-76668333D01*
X67480476Y-76573095D01*
X67480476Y-76477857D01*
X67528095Y-76382619D01*
X67575714Y-76335000D01*
X67670952Y-76287380D01*
X67909047Y-76287380D01*
X68051904Y-76335000D01*
X68385238Y-76287380D02*
X68623333Y-77287380D01*
X68813809Y-76573095D01*
X69004285Y-77287380D01*
X69242380Y-76287380D01*
X70147142Y-77287380D02*
X69575714Y-77287380D01*
X69861428Y-77287380D02*
X69861428Y-76287380D01*
X69766190Y-76430238D01*
X69670952Y-76525476D01*
X69575714Y-76573095D01*
X71099523Y-77287380D02*
X70528095Y-77287380D01*
X70813809Y-77287380D02*
X70813809Y-76287380D01*
X70718571Y-76430238D01*
X70623333Y-76525476D01*
X70528095Y-76573095D01*
D16*
X70357857Y-74667857D02*
X70072142Y-74525000D01*
X69786428Y-74239285D01*
X69357857Y-73810714D01*
X69072142Y-73667857D01*
X68786428Y-73667857D01*
X68929285Y-74382142D02*
X68643571Y-74239285D01*
X68357857Y-73953571D01*
X68215000Y-73382142D01*
X68215000Y-72382142D01*
X68357857Y-71810714D01*
X68643571Y-71525000D01*
X68929285Y-71382142D01*
X69500714Y-71382142D01*
X69786428Y-71525000D01*
X70072142Y-71810714D01*
X70215000Y-72382142D01*
X70215000Y-73382142D01*
X70072142Y-73953571D01*
X69786428Y-74239285D01*
X69500714Y-74382142D01*
X68929285Y-74382142D01*
D15*
X185515476Y-63904761D02*
X185658333Y-63952380D01*
X185896428Y-63952380D01*
X185991666Y-63904761D01*
X186039285Y-63857142D01*
X186086904Y-63761904D01*
X186086904Y-63666666D01*
X186039285Y-63571428D01*
X185991666Y-63523809D01*
X185896428Y-63476190D01*
X185705952Y-63428571D01*
X185610714Y-63380952D01*
X185563095Y-63333333D01*
X185515476Y-63238095D01*
X185515476Y-63142857D01*
X185563095Y-63047619D01*
X185610714Y-63000000D01*
X185705952Y-62952380D01*
X185944047Y-62952380D01*
X186086904Y-63000000D01*
X186420238Y-62952380D02*
X186658333Y-63952380D01*
X186848809Y-63238095D01*
X187039285Y-63952380D01*
X187277380Y-62952380D01*
X188182142Y-63952380D02*
X187610714Y-63952380D01*
X187896428Y-63952380D02*
X187896428Y-62952380D01*
X187801190Y-63095238D01*
X187705952Y-63190476D01*
X187610714Y-63238095D01*
X188801190Y-62952380D02*
X188896428Y-62952380D01*
X188991666Y-63000000D01*
X189039285Y-63047619D01*
X189086904Y-63142857D01*
X189134523Y-63333333D01*
X189134523Y-63571428D01*
X189086904Y-63761904D01*
X189039285Y-63857142D01*
X188991666Y-63904761D01*
X188896428Y-63952380D01*
X188801190Y-63952380D01*
X188705952Y-63904761D01*
X188658333Y-63857142D01*
X188610714Y-63761904D01*
X188563095Y-63571428D01*
X188563095Y-63333333D01*
X188610714Y-63142857D01*
X188658333Y-63047619D01*
X188705952Y-63000000D01*
X188801190Y-62952380D01*
D16*
X184007142Y-58047142D02*
X184292857Y-58047142D01*
X184578571Y-58190000D01*
X184721428Y-58332857D01*
X184864285Y-58618571D01*
X185007142Y-59190000D01*
X185007142Y-59904285D01*
X184864285Y-60475714D01*
X184721428Y-60761428D01*
X184578571Y-60904285D01*
X184292857Y-61047142D01*
X184007142Y-61047142D01*
X183721428Y-60904285D01*
X183578571Y-60761428D01*
X183435714Y-60475714D01*
X183292857Y-59904285D01*
X183292857Y-59190000D01*
X183435714Y-58618571D01*
X183578571Y-58332857D01*
X183721428Y-58190000D01*
X184007142Y-58047142D01*
D15*
X172021666Y-63904761D02*
X172164523Y-63952380D01*
X172402619Y-63952380D01*
X172497857Y-63904761D01*
X172545476Y-63857142D01*
X172593095Y-63761904D01*
X172593095Y-63666666D01*
X172545476Y-63571428D01*
X172497857Y-63523809D01*
X172402619Y-63476190D01*
X172212142Y-63428571D01*
X172116904Y-63380952D01*
X172069285Y-63333333D01*
X172021666Y-63238095D01*
X172021666Y-63142857D01*
X172069285Y-63047619D01*
X172116904Y-63000000D01*
X172212142Y-62952380D01*
X172450238Y-62952380D01*
X172593095Y-63000000D01*
X172926428Y-62952380D02*
X173164523Y-63952380D01*
X173355000Y-63238095D01*
X173545476Y-63952380D01*
X173783571Y-62952380D01*
X174212142Y-63952380D02*
X174402619Y-63952380D01*
X174497857Y-63904761D01*
X174545476Y-63857142D01*
X174640714Y-63714285D01*
X174688333Y-63523809D01*
X174688333Y-63142857D01*
X174640714Y-63047619D01*
X174593095Y-63000000D01*
X174497857Y-62952380D01*
X174307380Y-62952380D01*
X174212142Y-63000000D01*
X174164523Y-63047619D01*
X174116904Y-63142857D01*
X174116904Y-63380952D01*
X174164523Y-63476190D01*
X174212142Y-63523809D01*
X174307380Y-63571428D01*
X174497857Y-63571428D01*
X174593095Y-63523809D01*
X174640714Y-63476190D01*
X174688333Y-63380952D01*
D16*
X172783571Y-61047142D02*
X173355000Y-61047142D01*
X173640714Y-60904285D01*
X173783571Y-60761428D01*
X174069285Y-60332857D01*
X174212142Y-59761428D01*
X174212142Y-58618571D01*
X174069285Y-58332857D01*
X173926428Y-58190000D01*
X173640714Y-58047142D01*
X173069285Y-58047142D01*
X172783571Y-58190000D01*
X172640714Y-58332857D01*
X172497857Y-58618571D01*
X172497857Y-59332857D01*
X172640714Y-59618571D01*
X172783571Y-59761428D01*
X173069285Y-59904285D01*
X173640714Y-59904285D01*
X173926428Y-59761428D01*
X174069285Y-59618571D01*
X174212142Y-59332857D01*
D15*
X158126666Y-63904761D02*
X158269523Y-63952380D01*
X158507619Y-63952380D01*
X158602857Y-63904761D01*
X158650476Y-63857142D01*
X158698095Y-63761904D01*
X158698095Y-63666666D01*
X158650476Y-63571428D01*
X158602857Y-63523809D01*
X158507619Y-63476190D01*
X158317142Y-63428571D01*
X158221904Y-63380952D01*
X158174285Y-63333333D01*
X158126666Y-63238095D01*
X158126666Y-63142857D01*
X158174285Y-63047619D01*
X158221904Y-63000000D01*
X158317142Y-62952380D01*
X158555238Y-62952380D01*
X158698095Y-63000000D01*
X159031428Y-62952380D02*
X159269523Y-63952380D01*
X159460000Y-63238095D01*
X159650476Y-63952380D01*
X159888571Y-62952380D01*
X160412380Y-63380952D02*
X160317142Y-63333333D01*
X160269523Y-63285714D01*
X160221904Y-63190476D01*
X160221904Y-63142857D01*
X160269523Y-63047619D01*
X160317142Y-63000000D01*
X160412380Y-62952380D01*
X160602857Y-62952380D01*
X160698095Y-63000000D01*
X160745714Y-63047619D01*
X160793333Y-63142857D01*
X160793333Y-63190476D01*
X160745714Y-63285714D01*
X160698095Y-63333333D01*
X160602857Y-63380952D01*
X160412380Y-63380952D01*
X160317142Y-63428571D01*
X160269523Y-63476190D01*
X160221904Y-63571428D01*
X160221904Y-63761904D01*
X160269523Y-63857142D01*
X160317142Y-63904761D01*
X160412380Y-63952380D01*
X160602857Y-63952380D01*
X160698095Y-63904761D01*
X160745714Y-63857142D01*
X160793333Y-63761904D01*
X160793333Y-63571428D01*
X160745714Y-63476190D01*
X160698095Y-63428571D01*
X160602857Y-63380952D01*
D16*
X159099285Y-59332857D02*
X158813571Y-59190000D01*
X158670714Y-59047142D01*
X158527857Y-58761428D01*
X158527857Y-58618571D01*
X158670714Y-58332857D01*
X158813571Y-58190000D01*
X159099285Y-58047142D01*
X159670714Y-58047142D01*
X159956428Y-58190000D01*
X160099285Y-58332857D01*
X160242142Y-58618571D01*
X160242142Y-58761428D01*
X160099285Y-59047142D01*
X159956428Y-59190000D01*
X159670714Y-59332857D01*
X159099285Y-59332857D01*
X158813571Y-59475714D01*
X158670714Y-59618571D01*
X158527857Y-59904285D01*
X158527857Y-60475714D01*
X158670714Y-60761428D01*
X158813571Y-60904285D01*
X159099285Y-61047142D01*
X159670714Y-61047142D01*
X159956428Y-60904285D01*
X160099285Y-60761428D01*
X160242142Y-60475714D01*
X160242142Y-59904285D01*
X160099285Y-59618571D01*
X159956428Y-59475714D01*
X159670714Y-59332857D01*
D15*
X144081666Y-63904761D02*
X144224523Y-63952380D01*
X144462619Y-63952380D01*
X144557857Y-63904761D01*
X144605476Y-63857142D01*
X144653095Y-63761904D01*
X144653095Y-63666666D01*
X144605476Y-63571428D01*
X144557857Y-63523809D01*
X144462619Y-63476190D01*
X144272142Y-63428571D01*
X144176904Y-63380952D01*
X144129285Y-63333333D01*
X144081666Y-63238095D01*
X144081666Y-63142857D01*
X144129285Y-63047619D01*
X144176904Y-63000000D01*
X144272142Y-62952380D01*
X144510238Y-62952380D01*
X144653095Y-63000000D01*
X144986428Y-62952380D02*
X145224523Y-63952380D01*
X145415000Y-63238095D01*
X145605476Y-63952380D01*
X145843571Y-62952380D01*
X146129285Y-62952380D02*
X146795952Y-62952380D01*
X146367380Y-63952380D01*
D16*
X141240000Y-58047142D02*
X143240000Y-58047142D01*
X141954285Y-61047142D01*
D15*
X130186666Y-63904761D02*
X130329523Y-63952380D01*
X130567619Y-63952380D01*
X130662857Y-63904761D01*
X130710476Y-63857142D01*
X130758095Y-63761904D01*
X130758095Y-63666666D01*
X130710476Y-63571428D01*
X130662857Y-63523809D01*
X130567619Y-63476190D01*
X130377142Y-63428571D01*
X130281904Y-63380952D01*
X130234285Y-63333333D01*
X130186666Y-63238095D01*
X130186666Y-63142857D01*
X130234285Y-63047619D01*
X130281904Y-63000000D01*
X130377142Y-62952380D01*
X130615238Y-62952380D01*
X130758095Y-63000000D01*
X131091428Y-62952380D02*
X131329523Y-63952380D01*
X131520000Y-63238095D01*
X131710476Y-63952380D01*
X131948571Y-62952380D01*
X132758095Y-62952380D02*
X132567619Y-62952380D01*
X132472380Y-63000000D01*
X132424761Y-63047619D01*
X132329523Y-63190476D01*
X132281904Y-63380952D01*
X132281904Y-63761904D01*
X132329523Y-63857142D01*
X132377142Y-63904761D01*
X132472380Y-63952380D01*
X132662857Y-63952380D01*
X132758095Y-63904761D01*
X132805714Y-63857142D01*
X132853333Y-63761904D01*
X132853333Y-63523809D01*
X132805714Y-63428571D01*
X132758095Y-63380952D01*
X132662857Y-63333333D01*
X132472380Y-63333333D01*
X132377142Y-63380952D01*
X132329523Y-63428571D01*
X132281904Y-63523809D01*
D16*
X128841428Y-58047142D02*
X128270000Y-58047142D01*
X127984285Y-58190000D01*
X127841428Y-58332857D01*
X127555714Y-58761428D01*
X127412857Y-59332857D01*
X127412857Y-60475714D01*
X127555714Y-60761428D01*
X127698571Y-60904285D01*
X127984285Y-61047142D01*
X128555714Y-61047142D01*
X128841428Y-60904285D01*
X128984285Y-60761428D01*
X129127142Y-60475714D01*
X129127142Y-59761428D01*
X128984285Y-59475714D01*
X128841428Y-59332857D01*
X128555714Y-59190000D01*
X127984285Y-59190000D01*
X127698571Y-59332857D01*
X127555714Y-59475714D01*
X127412857Y-59761428D01*
D15*
X116216666Y-63904761D02*
X116359523Y-63952380D01*
X116597619Y-63952380D01*
X116692857Y-63904761D01*
X116740476Y-63857142D01*
X116788095Y-63761904D01*
X116788095Y-63666666D01*
X116740476Y-63571428D01*
X116692857Y-63523809D01*
X116597619Y-63476190D01*
X116407142Y-63428571D01*
X116311904Y-63380952D01*
X116264285Y-63333333D01*
X116216666Y-63238095D01*
X116216666Y-63142857D01*
X116264285Y-63047619D01*
X116311904Y-63000000D01*
X116407142Y-62952380D01*
X116645238Y-62952380D01*
X116788095Y-63000000D01*
X117121428Y-62952380D02*
X117359523Y-63952380D01*
X117550000Y-63238095D01*
X117740476Y-63952380D01*
X117978571Y-62952380D01*
X118835714Y-62952380D02*
X118359523Y-62952380D01*
X118311904Y-63428571D01*
X118359523Y-63380952D01*
X118454761Y-63333333D01*
X118692857Y-63333333D01*
X118788095Y-63380952D01*
X118835714Y-63428571D01*
X118883333Y-63523809D01*
X118883333Y-63761904D01*
X118835714Y-63857142D01*
X118788095Y-63904761D01*
X118692857Y-63952380D01*
X118454761Y-63952380D01*
X118359523Y-63904761D01*
X118311904Y-63857142D01*
D16*
X115014285Y-58047142D02*
X113585714Y-58047142D01*
X113442857Y-59475714D01*
X113585714Y-59332857D01*
X113871428Y-59190000D01*
X114585714Y-59190000D01*
X114871428Y-59332857D01*
X115014285Y-59475714D01*
X115157142Y-59761428D01*
X115157142Y-60475714D01*
X115014285Y-60761428D01*
X114871428Y-60904285D01*
X114585714Y-61047142D01*
X113871428Y-61047142D01*
X113585714Y-60904285D01*
X113442857Y-60761428D01*
D15*
X102246666Y-63904761D02*
X102389523Y-63952380D01*
X102627619Y-63952380D01*
X102722857Y-63904761D01*
X102770476Y-63857142D01*
X102818095Y-63761904D01*
X102818095Y-63666666D01*
X102770476Y-63571428D01*
X102722857Y-63523809D01*
X102627619Y-63476190D01*
X102437142Y-63428571D01*
X102341904Y-63380952D01*
X102294285Y-63333333D01*
X102246666Y-63238095D01*
X102246666Y-63142857D01*
X102294285Y-63047619D01*
X102341904Y-63000000D01*
X102437142Y-62952380D01*
X102675238Y-62952380D01*
X102818095Y-63000000D01*
X103151428Y-62952380D02*
X103389523Y-63952380D01*
X103580000Y-63238095D01*
X103770476Y-63952380D01*
X104008571Y-62952380D01*
X104818095Y-63285714D02*
X104818095Y-63952380D01*
X104580000Y-62904761D02*
X104341904Y-63619047D01*
X104960952Y-63619047D01*
D16*
X100901428Y-59047142D02*
X100901428Y-61047142D01*
X100187142Y-57904285D02*
X99472857Y-60047142D01*
X101330000Y-60047142D01*
D15*
X88276666Y-63904761D02*
X88419523Y-63952380D01*
X88657619Y-63952380D01*
X88752857Y-63904761D01*
X88800476Y-63857142D01*
X88848095Y-63761904D01*
X88848095Y-63666666D01*
X88800476Y-63571428D01*
X88752857Y-63523809D01*
X88657619Y-63476190D01*
X88467142Y-63428571D01*
X88371904Y-63380952D01*
X88324285Y-63333333D01*
X88276666Y-63238095D01*
X88276666Y-63142857D01*
X88324285Y-63047619D01*
X88371904Y-63000000D01*
X88467142Y-62952380D01*
X88705238Y-62952380D01*
X88848095Y-63000000D01*
X89181428Y-62952380D02*
X89419523Y-63952380D01*
X89610000Y-63238095D01*
X89800476Y-63952380D01*
X90038571Y-62952380D01*
X90324285Y-62952380D02*
X90943333Y-62952380D01*
X90610000Y-63333333D01*
X90752857Y-63333333D01*
X90848095Y-63380952D01*
X90895714Y-63428571D01*
X90943333Y-63523809D01*
X90943333Y-63761904D01*
X90895714Y-63857142D01*
X90848095Y-63904761D01*
X90752857Y-63952380D01*
X90467142Y-63952380D01*
X90371904Y-63904761D01*
X90324285Y-63857142D01*
D16*
X85360000Y-58047142D02*
X87217142Y-58047142D01*
X86217142Y-59190000D01*
X86645714Y-59190000D01*
X86931428Y-59332857D01*
X87074285Y-59475714D01*
X87217142Y-59761428D01*
X87217142Y-60475714D01*
X87074285Y-60761428D01*
X86931428Y-60904285D01*
X86645714Y-61047142D01*
X85788571Y-61047142D01*
X85502857Y-60904285D01*
X85360000Y-60761428D01*
D15*
X74231666Y-63904761D02*
X74374523Y-63952380D01*
X74612619Y-63952380D01*
X74707857Y-63904761D01*
X74755476Y-63857142D01*
X74803095Y-63761904D01*
X74803095Y-63666666D01*
X74755476Y-63571428D01*
X74707857Y-63523809D01*
X74612619Y-63476190D01*
X74422142Y-63428571D01*
X74326904Y-63380952D01*
X74279285Y-63333333D01*
X74231666Y-63238095D01*
X74231666Y-63142857D01*
X74279285Y-63047619D01*
X74326904Y-63000000D01*
X74422142Y-62952380D01*
X74660238Y-62952380D01*
X74803095Y-63000000D01*
X75136428Y-62952380D02*
X75374523Y-63952380D01*
X75565000Y-63238095D01*
X75755476Y-63952380D01*
X75993571Y-62952380D01*
X76326904Y-63047619D02*
X76374523Y-63000000D01*
X76469761Y-62952380D01*
X76707857Y-62952380D01*
X76803095Y-63000000D01*
X76850714Y-63047619D01*
X76898333Y-63142857D01*
X76898333Y-63238095D01*
X76850714Y-63380952D01*
X76279285Y-63952380D01*
X76898333Y-63952380D01*
D16*
X71532857Y-58332857D02*
X71675714Y-58190000D01*
X71961428Y-58047142D01*
X72675714Y-58047142D01*
X72961428Y-58190000D01*
X73104285Y-58332857D01*
X73247142Y-58618571D01*
X73247142Y-58904285D01*
X73104285Y-59332857D01*
X71390000Y-61047142D01*
X73247142Y-61047142D01*
D15*
X60336666Y-63904761D02*
X60479523Y-63952380D01*
X60717619Y-63952380D01*
X60812857Y-63904761D01*
X60860476Y-63857142D01*
X60908095Y-63761904D01*
X60908095Y-63666666D01*
X60860476Y-63571428D01*
X60812857Y-63523809D01*
X60717619Y-63476190D01*
X60527142Y-63428571D01*
X60431904Y-63380952D01*
X60384285Y-63333333D01*
X60336666Y-63238095D01*
X60336666Y-63142857D01*
X60384285Y-63047619D01*
X60431904Y-63000000D01*
X60527142Y-62952380D01*
X60765238Y-62952380D01*
X60908095Y-63000000D01*
X61241428Y-62952380D02*
X61479523Y-63952380D01*
X61670000Y-63238095D01*
X61860476Y-63952380D01*
X62098571Y-62952380D01*
X63003333Y-63952380D02*
X62431904Y-63952380D01*
X62717619Y-63952380D02*
X62717619Y-62952380D01*
X62622380Y-63095238D01*
X62527142Y-63190476D01*
X62431904Y-63238095D01*
D16*
X59277142Y-61047142D02*
X57562857Y-61047142D01*
X58420000Y-61047142D02*
X58420000Y-58047142D01*
X58134285Y-58475714D01*
X57848571Y-58761428D01*
X57562857Y-58904285D01*
D15*
X128801904Y-46172380D02*
X128801904Y-45172380D01*
X129040000Y-45172380D01*
X129182857Y-45220000D01*
X129278095Y-45315238D01*
X129325714Y-45410476D01*
X129373333Y-45600952D01*
X129373333Y-45743809D01*
X129325714Y-45934285D01*
X129278095Y-46029523D01*
X129182857Y-46124761D01*
X129040000Y-46172380D01*
X128801904Y-46172380D01*
X130325714Y-46172380D02*
X129754285Y-46172380D01*
X130040000Y-46172380D02*
X130040000Y-45172380D01*
X129944761Y-45315238D01*
X129849523Y-45410476D01*
X129754285Y-45458095D01*
X65071666Y-45807380D02*
X65071666Y-46521666D01*
X65024047Y-46664523D01*
X64928809Y-46759761D01*
X64785952Y-46807380D01*
X64690714Y-46807380D01*
X66071666Y-46807380D02*
X65500238Y-46807380D01*
X65785952Y-46807380D02*
X65785952Y-45807380D01*
X65690714Y-45950238D01*
X65595476Y-46045476D01*
X65500238Y-46093095D01*
X98258333Y-46426380D02*
X97925000Y-45950190D01*
X97686904Y-46426380D02*
X97686904Y-45426380D01*
X98067857Y-45426380D01*
X98163095Y-45474000D01*
X98210714Y-45521619D01*
X98258333Y-45616857D01*
X98258333Y-45759714D01*
X98210714Y-45854952D01*
X98163095Y-45902571D01*
X98067857Y-45950190D01*
X97686904Y-45950190D01*
X99210714Y-46426380D02*
X98639285Y-46426380D01*
X98925000Y-46426380D02*
X98925000Y-45426380D01*
X98829761Y-45569238D01*
X98734523Y-45664476D01*
X98639285Y-45712095D01*
M02*
